{"_v":2,"glyphs":{"0":{"ha":462,"x_min":34,"x_max":422,"o":"m 422 293 l 422 293 q 422 95 336 25 l 336 25 q 293 -10 228 -10 l 228 -10 q 34 -10 34 293 l 34 293 q 34 492 121 562 l 121 562 q 163 597 228 597 l 228 597 q 367 597 409 433 l 409 433 q 422 381 422 293 z m 347 293 l 347 293 q 347 536 227 536 l 227 536 q 109 536 109 293 l 109 293 q 109 50 228 50 l 228 50 q 347 50 347 293 z"},"1":{"ha":462,"x_min":90,"x_max":309,"o":"m 309 597 l 309 0 l 236 0 l 236 465 q 178 409 90 377 l 90 377 l 90 447 q 218 507 262 597 l 262 597 l 309 597 z"},"2":{"ha":462,"x_min":25,"x_max":418,"o":"m 418 70 l 418 0 l 25 0 q 25 2 25 4 l 25 4 q 25 63 82 130 l 82 130 q 114 168 177 220 l 177 220 q 250 280 281 313 l 281 313 q 342 380 342 433 l 342 433 q 342 480 310 508 q 277 536 230 536 l 230 536 q 176 536 145 504 q 114 472 114 417 l 114 417 l 39 425 q 55 597 232 597 l 232 597 q 310 597 363 553 q 417 509 417 432 l 417 432 q 417 360 354 289 l 354 289 q 319 250 242 184 l 242 184 q 187 138 180 132 l 180 132 q 144 99 126 70 l 126 70 l 418 70 z"},"3":{"ha":462,"x_min":35,"x_max":424,"o":"m 424 175 l 424 175 q 424 93 365 41 q 307 -11 224 -11 l 224 -11 q 147 -11 95 35 q 42 81 35 157 l 35 157 l 108 167 q 131 50 224 50 l 224 50 q 276 50 312 85 q 347 121 347 174 l 347 174 q 347 225 314 257 q 281 289 230 289 l 230 289 q 210 289 179 281 l 179 281 l 187 345 q 194 344 199 344 l 199 344 q 249 344 282 368 l 282 368 q 320 395 320 444 l 320 444 q 320 485 292 511 q 264 537 222 537 l 222 537 q 131 537 115 430 l 115 430 l 42 443 q 55 514 102 555 q 149 597 221 597 l 221 597 q 326 597 373 519 l 373 519 q 395 483 395 442 l 395 442 q 395 359 313 322 l 313 322 q 424 296 424 175 z"},"4":{"ha":462,"x_min":11,"x_max":421,"o":"m 421 209 l 421 142 l 341 142 l 341 0 l 268 0 l 268 142 l 11 142 l 11 209 l 282 594 l 341 594 l 341 209 l 421 209 z m 82 209 l 268 209 l 268 477 l 82 209 z"},"5":{"ha":462,"x_min":34,"x_max":428,"o":"m 428 201 l 428 201 q 428 121 381 62 l 381 62 q 324 -10 225 -10 l 225 -10 q 146 -10 94 34 q 42 78 34 156 l 34 156 l 111 162 q 128 50 225 50 l 225 50 q 284 50 319 94 l 319 94 q 351 135 351 195 l 351 195 q 351 255 317 292 q 283 329 224 329 l 224 329 q 152 329 116 272 l 116 272 l 47 281 l 105 586 l 400 586 l 400 516 l 163 516 l 131 357 q 185 394 244 394 l 244 394 q 325 394 376 338 q 428 283 428 201 z"},"6":{"ha":462,"x_min":31,"x_max":424,"o":"m 424 193 l 424 193 q 424 139 401 92 l 401 92 q 377 42 334 16 q 291 -10 237 -10 l 237 -10 q 31 -10 31 278 l 31 278 q 31 597 244 597 l 244 597 q 315 597 360 557 q 404 518 413 449 l 413 449 l 340 443 q 319 537 240 537 l 240 537 q 163 537 124 444 l 124 444 q 105 396 104 306 l 104 306 q 156 385 248 385 l 248 385 q 327 385 375 329 q 424 273 424 193 z m 349 188 l 349 188 q 349 245 320 281 l 320 281 q 288 321 233 321 l 233 321 q 180 321 147 284 q 115 246 115 193 l 115 193 q 115 106 176 68 l 176 68 q 205 50 236 50 l 236 50 q 290 50 321 94 l 321 94 q 349 133 349 188 z"},"7":{"ha":462,"x_min":39,"x_max":424,"o":"m 424 586 l 424 530 q 360 462 305 357 l 305 357 q 254 261 225 163 l 225 163 q 203 88 197 0 l 197 0 l 122 0 q 125 173 226 361 l 226 361 q 275 453 330 516 l 330 516 l 39 516 l 39 586 l 424 586 z"},"8":{"ha":462,"x_min":34,"x_max":425,"o":"m 425 170 l 425 170 q 425 88 368 39 q 312 -10 229 -10 l 229 -10 q 146 -10 90 40 q 34 89 34 172 l 34 172 q 34 293 147 322 l 147 322 q 58 355 58 443 l 58 443 q 58 514 107 555 q 156 597 228 597 l 228 597 q 300 597 349 556 l 349 556 q 401 512 401 441 l 401 441 q 401 355 313 322 l 313 322 q 425 286 425 170 z m 326 442 l 326 442 q 326 483 298 510 q 270 537 229 537 l 229 537 q 189 537 161 511 q 132 485 132 446 l 132 446 q 132 403 159 376 q 187 350 230 350 l 230 350 q 270 350 298 375 q 326 401 326 442 z m 351 169 l 351 169 q 351 222 316 256 q 281 291 228 291 l 228 291 q 176 291 143 257 q 109 223 109 171 l 109 171 q 109 98 167 66 l 167 66 q 197 50 230 50 l 230 50 q 283 50 317 83 q 351 117 351 169 z"},"9":{"ha":462,"x_min":34,"x_max":425,"o":"m 425 309 l 425 309 q 425 96 327 25 l 327 25 q 278 -10 212 -10 l 212 -10 q 142 -10 98 29 q 54 68 45 137 l 45 137 l 116 144 q 132 50 214 50 l 214 50 q 279 50 314 106 l 314 106 q 353 167 353 265 l 353 265 q 353 270 352 280 l 352 280 q 303 201 210 201 l 210 201 q 130 201 81 260 l 81 260 q 34 315 34 396 l 34 396 q 34 482 85 540 q 136 597 221 597 l 221 597 q 282 597 329 564 q 376 532 400 476 q 425 419 425 309 z m 344 400 l 344 400 q 344 455 315 493 l 315 493 q 284 536 230 536 l 230 536 q 175 536 141 491 l 141 491 q 109 450 109 394 l 109 394 q 109 340 142 303 q 175 266 228 266 l 228 266 q 284 266 315 306 l 315 306 q 344 342 344 400 z"},"\r":{"ha":228,"x_min":0,"x_max":0,"o":""}," ":{"ha":277,"x_min":0,"x_max":0,"o":""},"!":{"ha":231,"x_min":71,"x_max":162,"o":"m 162 594 l 162 462 l 141 148 l 94 148 l 71 462 l 71 594 l 162 594 z m 158 83 l 158 0 l 75 0 l 75 83 l 158 83 z"},"\"":{"ha":295,"x_min":38,"x_max":256,"o":"m 256 594 l 256 497 l 236 384 l 193 384 l 173 497 l 173 594 l 256 594 z m 121 594 l 121 497 l 103 384 l 58 384 l 38 497 l 38 594 l 121 594 z"},"#":{"ha":462,"x_min":9,"x_max":451,"o":"m 451 223 l 451 163 l 326 163 l 291 -10 l 230 -10 l 265 163 l 138 163 l 103 -10 l 42 -10 l 77 163 l 9 163 l 9 223 l 89 223 l 119 370 l 9 370 l 9 430 l 131 430 l 167 604 l 227 604 l 192 430 l 320 430 l 355 604 l 416 604 l 381 430 l 451 430 l 451 370 l 369 370 l 338 223 l 451 223 z m 277 223 l 308 370 l 180 370 l 150 223 l 277 223 z"},"$":{"ha":462,"x_min":30,"x_max":423,"o":"m 423 169 l 423 169 q 423 92 375 42 q 326 -8 250 -12 l 250 -12 l 250 -86 l 207 -86 l 207 -13 q 102 1 59 69 l 59 69 q 34 108 30 165 l 30 165 l 103 179 q 120 58 207 49 l 207 49 l 207 281 q 98 302 61 370 l 61 370 q 42 404 42 448 l 42 448 q 42 526 97 574 l 97 574 q 134 607 207 614 l 207 614 l 207 649 l 250 649 l 250 614 q 389 601 408 468 l 408 468 l 333 456 q 320 538 250 552 l 250 552 l 250 342 q 305 328 323 321 l 323 321 q 388 292 411 233 l 411 233 q 423 203 423 169 z m 207 351 l 207 351 l 207 553 q 166 547 141 521 q 115 494 115 454 l 115 454 q 115 379 207 351 z m 348 164 l 348 164 q 348 210 320 236 l 320 236 q 300 255 250 271 l 250 271 l 250 49 q 294 55 321 87 q 348 119 348 164 z"},"%":{"ha":738,"x_min":48,"x_max":687,"o":"m 687 135 l 687 135 q 687 69 656 26 l 656 26 q 621 -22 558 -22 l 558 -22 q 494 -22 461 29 l 461 29 q 432 72 432 139 l 432 139 q 432 204 462 245 l 462 245 q 496 292 558 292 l 558 292 q 622 292 657 244 l 657 244 q 687 202 687 135 z m 501 604 l 560 604 l 236 -22 l 175 -22 l 501 604 z m 302 447 l 302 447 q 302 382 272 339 l 272 339 q 237 290 174 290 l 174 290 q 109 290 76 341 l 76 341 q 48 384 48 451 l 48 451 q 48 515 78 557 l 78 557 q 112 604 173 604 l 173 604 q 238 604 272 556 l 272 556 q 302 514 302 447 z m 623 138 l 623 138 q 623 242 560 242 l 560 242 q 496 242 496 132 l 496 132 q 496 28 559 28 l 559 28 q 623 28 623 138 z m 239 450 l 239 450 q 239 554 175 554 l 175 554 q 112 554 112 444 l 112 444 q 112 340 175 340 l 175 340 q 239 340 239 450 z"},"&":{"ha":554,"x_min":36,"x_max":535,"o":"m 535 44 l 535 44 l 486 -14 q 441 15 394 70 l 394 70 q 322 -10 224 -10 l 224 -10 q 132 -10 79 51 l 79 51 q 36 102 36 164 l 36 164 q 36 274 177 341 l 177 341 q 110 418 110 472 l 110 472 q 110 530 156 568 l 156 568 q 199 604 258 604 l 258 604 q 315 604 356 569 q 396 534 396 477 l 396 477 q 396 393 284 333 l 284 333 l 390 197 q 409 233 419 280 l 419 280 l 494 263 q 475 186 442 135 l 442 135 q 483 81 535 44 z m 321 475 l 321 475 q 321 505 303 524 q 284 544 254 544 l 254 544 q 225 544 205 525 q 185 507 185 479 l 185 479 q 185 450 214 417 l 214 417 l 246 380 q 321 424 321 475 z m 349 128 l 349 128 l 215 293 q 114 234 114 168 l 114 168 q 114 123 146 88 q 179 54 225 54 l 225 54 q 259 54 295 76 l 295 76 q 328 97 349 128 z"},"'":{"ha":158,"x_min":36,"x_max":120,"o":"m 120 594 l 120 495 l 100 384 l 55 384 l 36 495 l 36 594 l 120 594 z"},"(":{"ha":276,"x_min":50,"x_max":246,"o":"m 246 -175 l 246 -175 l 194 -175 q 50 7 50 215 l 50 215 q 50 412 194 604 l 194 604 l 246 604 q 198 521 182 484 l 182 484 q 125 356 125 215 l 125 215 q 125 20 246 -175 z"},")":{"ha":276,"x_min":50,"x_max":246,"o":"m 246 215 l 246 215 q 246 8 103 -175 l 103 -175 l 50 -175 q 171 20 171 215 l 171 215 q 171 355 116 483 l 116 483 q 99 520 50 604 l 50 604 l 103 604 q 246 412 246 215 z"},"*":{"ha":323,"x_min":26,"x_max":294,"o":"m 275 543 l 294 485 q 242 468 193 462 l 193 462 q 218 441 263 386 l 263 386 l 214 351 q 190 383 158 438 l 158 438 q 128 381 106 351 l 106 351 l 58 386 q 105 444 125 462 l 125 462 q 73 473 26 485 l 26 485 l 45 543 q 109 520 138 503 l 138 503 q 130 577 130 604 l 130 604 l 189 604 q 188 564 180 504 l 180 504 q 221 525 275 543 l 275 543 z"},"+":{"ha":485,"x_min":46,"x_max":438,"o":"m 438 327 l 438 259 l 277 259 l 277 96 l 208 96 l 208 259 l 46 259 l 46 327 l 208 327 l 208 489 l 277 489 l 277 327 l 438 327 z"},",":{"ha":231,"x_min":69,"x_max":157,"o":"m 157 83 l 157 0 q 157 -88 89 -118 l 89 -118 l 69 -86 q 113 -67 115 0 l 115 0 l 74 0 l 74 83 l 157 83 z"},"-":{"ha":276,"x_min":26,"x_max":250,"o":"m 250 252 l 250 178 l 26 178 l 26 252 l 250 252 z"},".":{"ha":231,"x_min":75,"x_max":158,"o":"m 158 83 l 158 0 l 75 0 l 75 83 l 158 83 z"},"/":{"ha":231,"x_min":0,"x_max":231,"o":"m 172 604 l 231 604 l 59 -10 l 0 -10 l 172 604 z"},":":{"ha":231,"x_min":75,"x_max":158,"o":"m 158 430 l 158 347 l 75 347 l 75 430 l 158 430 z m 158 83 l 158 0 l 75 0 l 75 83 l 158 83 z"},";":{"ha":231,"x_min":69,"x_max":157,"o":"m 157 430 l 157 347 l 74 347 l 74 430 l 157 430 z m 157 83 l 157 0 q 157 -88 89 -118 l 89 -118 l 69 -86 q 113 -67 115 0 l 115 0 l 74 0 l 74 83 l 157 83 z"},"<":{"ha":485,"x_min":45,"x_max":439,"o":"m 439 164 l 439 92 l 45 260 l 45 328 l 439 494 l 439 421 l 127 293 l 439 164 z"},"=":{"ha":485,"x_min":46,"x_max":438,"o":"m 438 417 l 438 349 l 46 349 l 46 417 l 438 417 z m 438 237 l 438 169 l 46 169 l 46 237 l 438 237 z"},">":{"ha":485,"x_min":45,"x_max":439,"o":"m 439 328 l 439 260 l 45 92 l 45 164 l 357 293 l 45 421 l 45 494 l 439 328 z"},"?":{"ha":462,"x_min":36,"x_max":420,"o":"m 420 442 l 420 442 q 420 396 393 357 l 393 357 q 375 330 330 291 l 330 291 q 302 265 292 255 l 292 255 q 274 233 268 212 q 262 190 261 146 l 261 146 l 191 146 q 191 161 191 168 l 191 168 q 191 241 232 290 l 232 290 q 242 303 286 341 l 286 341 q 322 374 333 394 q 345 414 345 437 l 345 437 q 345 483 311 514 q 276 544 230 544 l 230 544 q 130 544 111 424 l 111 424 l 36 433 q 57 604 229 604 l 229 604 q 307 604 361 563 l 361 563 q 420 518 420 442 z m 270 83 l 270 0 l 187 0 l 187 83 l 270 83 z"},"@":{"ha":843,"x_min":45,"x_max":813,"o":"m 739 8 l 813 8 q 788 -43 732 -87 l 732 -87 q 681 -127 622 -149 l 622 -149 q 553 -175 455 -175 l 455 -175 q 266 -175 160 -82 l 160 -82 q 45 17 45 190 l 45 190 q 45 296 91 391 l 91 391 q 140 492 226 547 l 226 547 q 317 605 447 605 l 447 605 q 661 605 753 441 l 753 441 q 793 372 793 289 l 793 289 q 793 172 710 80 l 710 80 q 636 -2 549 -2 l 549 -2 q 495 -2 478 31 l 478 31 q 473 41 471 66 l 471 66 q 412 -1 346 -1 l 346 -1 q 262 -1 221 85 l 221 85 q 199 128 199 181 l 199 181 q 199 244 231 309 q 264 373 314 406 q 364 439 410 439 l 410 439 q 486 439 532 365 l 532 365 l 546 428 l 618 428 l 560 156 q 548 99 548 93 l 548 93 q 548 66 576 66 l 576 66 q 598 66 633 91 l 633 91 q 679 124 706 178 q 733 232 733 290 l 733 290 q 733 407 644 479 l 644 479 q 561 546 443 546 l 443 546 q 348 546 271 502 l 271 502 q 191 457 148 374 q 105 291 105 197 l 105 197 q 105 -10 273 -80 l 273 -80 q 355 -115 454 -115 l 454 -115 q 654 -115 739 8 l 739 8 z m 509 263 l 509 263 q 509 311 486 343 l 486 343 q 461 379 415 379 l 415 379 q 363 379 322 323 l 322 323 q 274 259 274 176 l 274 176 q 274 131 295 98 l 295 98 q 319 59 361 59 l 361 59 q 411 59 457 113 l 457 113 q 509 173 509 263 z"},"A":{"ha":554,"x_min":-1,"x_max":555,"o":"m 312 594 l 555 0 l 465 0 l 396 180 l 148 180 l 82 0 l -1 0 l 227 594 l 312 594 z m 170 244 l 372 244 l 310 409 q 281 485 267 532 l 267 532 q 256 472 235 418 l 235 418 l 170 244 z"},"B":{"ha":554,"x_min":61,"x_max":509,"o":"m 509 172 l 509 172 q 509 85 448 39 l 448 39 q 396 0 287 0 l 287 0 l 61 0 l 61 594 l 284 594 q 412 594 457 521 l 457 521 q 481 483 481 442 l 481 442 q 481 357 398 316 l 398 316 q 509 283 509 172 z m 403 433 l 403 433 q 403 498 349 516 l 349 516 q 322 524 258 524 l 258 524 l 139 524 l 139 344 l 268 344 q 361 344 388 381 l 388 381 q 403 402 403 433 z m 428 172 l 428 172 q 428 243 364 264 l 364 264 q 334 274 277 274 l 277 274 l 139 274 l 139 70 l 287 70 q 325 70 341 73 l 341 73 q 395 83 416 122 l 416 122 q 428 144 428 172 z"},"C":{"ha":599,"x_min":41,"x_max":567,"o":"m 488 208 l 567 188 q 543 94 479 42 q 416 -10 321 -10 l 321 -10 q 137 -10 73 142 l 73 142 q 41 216 41 302 l 41 302 q 41 494 178 568 l 178 568 q 243 604 322 604 l 322 604 q 410 604 471 559 q 532 515 556 431 l 556 431 l 479 413 q 439 537 320 537 l 320 537 q 182 537 141 416 l 141 416 q 122 361 122 302 l 122 302 q 122 140 213 85 l 213 85 q 260 57 314 57 l 314 57 q 455 57 488 208 l 488 208 z"},"D":{"ha":599,"x_min":64,"x_max":555,"o":"m 555 300 l 555 300 q 555 172 499 94 l 499 94 q 452 29 374 10 l 374 10 q 332 0 278 0 l 278 0 l 64 0 l 64 594 l 269 594 q 338 594 374 586 l 374 586 q 487 559 532 442 l 532 442 q 555 380 555 300 z m 474 302 l 474 302 q 474 471 369 512 l 369 512 q 338 524 267 524 l 267 524 l 143 524 l 143 70 l 270 70 q 373 70 415 112 l 415 112 q 474 171 474 302 z"},"E":{"ha":554,"x_min":66,"x_max":509,"o":"m 509 70 l 509 0 l 66 0 l 66 594 l 495 594 l 495 524 l 144 524 l 144 342 l 473 342 l 473 272 l 144 272 l 144 70 l 509 70 z"},"F":{"ha":507,"x_min":68,"x_max":469,"o":"m 469 594 l 469 524 l 147 524 l 147 340 l 426 340 l 426 270 l 147 270 l 147 0 l 68 0 l 68 594 l 469 594 z"},"G":{"ha":646,"x_min":44,"x_max":594,"o":"m 594 303 l 594 83 q 477 -10 348 -10 l 348 -10 q 262 -10 193 25 l 193 25 q 118 63 81 135 q 44 207 44 294 l 44 294 q 44 380 78 451 l 78 451 q 115 531 184 567 q 253 604 342 604 l 342 604 q 477 604 540 525 l 540 525 q 569 488 585 428 l 585 428 l 514 409 q 489 494 424 521 l 424 521 q 387 537 342 537 l 342 537 q 239 537 185 477 l 185 477 q 125 411 125 299 l 125 299 q 125 140 232 87 l 232 87 q 284 61 343 61 l 343 61 q 387 61 437 78 q 486 95 517 122 l 517 122 l 517 233 l 342 233 l 342 303 l 594 303 z"},"H":{"ha":599,"x_min":66,"x_max":533,"o":"m 533 594 l 533 0 l 454 0 l 454 280 l 145 280 l 145 0 l 66 0 l 66 594 l 145 594 l 145 350 l 454 350 l 454 594 l 533 594 z"},"I":{"ha":231,"x_min":77,"x_max":156,"o":"m 156 594 l 156 0 l 77 0 l 77 594 l 156 594 z"},"J":{"ha":415,"x_min":24,"x_max":351,"o":"m 351 594 l 351 189 q 351 53 275 11 l 275 11 q 236 -10 184 -10 l 184 -10 q 24 -10 24 162 l 24 162 q 24 165 24 169 l 24 169 l 95 178 q 100 60 183 60 l 183 60 q 246 60 264 110 l 264 110 q 272 134 272 185 l 272 185 l 272 594 l 351 594 z"},"K":{"ha":554,"x_min":61,"x_max":552,"o":"m 292 353 l 552 0 l 448 0 l 237 301 l 139 206 l 139 0 l 61 0 l 61 594 l 139 594 l 139 299 l 434 594 l 541 594 l 292 353 z"},"L":{"ha":462,"x_min":61,"x_max":432,"o":"m 432 70 l 432 0 l 61 0 l 61 594 l 139 594 l 139 70 l 432 70 z"},"M":{"ha":691,"x_min":62,"x_max":629,"o":"m 629 594 l 629 0 l 553 0 l 553 497 l 380 0 l 309 0 l 137 506 l 137 0 l 62 0 l 62 594 l 180 594 l 321 173 q 338 121 349 86 l 349 86 q 360 122 381 181 l 381 181 l 523 594 l 629 594 z"},"N":{"ha":599,"x_min":63,"x_max":531,"o":"m 531 594 l 531 0 l 451 0 l 139 467 l 139 0 l 63 0 l 63 594 l 144 594 l 456 128 l 456 594 l 531 594 z"},"O":{"ha":646,"x_min":40,"x_max":608,"o":"m 608 296 l 608 296 q 608 210 575 141 l 575 141 q 539 65 468 27 l 468 27 q 402 -10 324 -10 l 324 -10 q 242 -10 177 29 l 177 29 q 109 69 75 140 q 40 211 40 289 l 40 289 q 40 427 112 513 l 112 513 q 189 605 325 605 l 325 605 q 406 605 472 566 q 538 527 573 456 q 608 385 608 296 z m 527 297 l 527 297 q 527 446 431 507 l 431 507 q 384 537 325 537 l 325 537 q 220 537 167 462 l 167 462 q 121 397 121 288 l 121 288 q 121 190 172 126 l 172 126 q 228 57 324 57 l 324 57 q 423 57 478 129 l 478 129 q 527 194 527 297 z"},"P":{"ha":554,"x_min":64,"x_max":518,"o":"m 518 422 l 518 422 q 518 242 295 242 l 295 242 l 143 242 l 143 0 l 64 0 l 64 594 l 288 594 q 346 594 379 588 l 379 588 q 465 573 499 503 l 499 503 q 518 466 518 422 z m 436 420 l 436 420 q 436 500 368 519 l 368 519 q 349 524 295 524 l 295 524 l 143 524 l 143 312 l 296 312 q 436 312 436 420 z"},"Q":{"ha":646,"x_min":36,"x_max":615,"o":"m 615 9 l 615 9 l 592 -46 q 528 -23 464 27 l 464 27 q 398 -10 319 -10 l 319 -10 q 238 -10 173 29 q 107 67 72 138 q 36 209 36 297 l 36 297 q 36 382 68 451 l 68 451 q 104 528 173 567 l 173 567 q 239 605 320 605 l 320 605 q 402 605 468 567 q 534 528 569 457 q 604 386 604 297 l 604 297 q 604 150 514 64 l 514 64 q 569 26 615 9 z m 523 297 l 523 297 q 523 446 427 507 l 427 507 q 379 537 321 537 l 321 537 q 219 537 165 466 l 165 466 q 117 402 117 297 l 117 297 q 117 194 166 129 l 166 129 q 220 57 321 57 l 321 57 q 363 57 400 73 l 400 73 q 363 97 322 107 l 322 107 l 341 164 q 409 145 453 107 l 453 107 q 523 171 523 297 z"},"R":{"ha":599,"x_min":65,"x_max":589,"o":"m 486 162 l 589 0 l 490 0 l 411 124 q 385 165 368 189 l 368 189 q 336 231 315 245 l 315 245 q 286 264 235 264 l 235 264 l 144 264 l 144 0 l 65 0 l 65 594 l 329 594 q 397 594 434 583 l 434 583 q 488 567 515 522 l 515 522 q 540 481 540 432 l 540 432 q 540 293 373 270 l 373 270 q 405 255 420 241 l 420 241 q 456 208 486 162 l 486 162 z m 459 432 l 459 432 q 459 528 332 528 l 332 528 l 144 528 l 144 332 l 313 332 q 413 332 443 379 l 443 379 q 459 403 459 432 z"},"S":{"ha":554,"x_min":37,"x_max":510,"o":"m 510 168 l 510 168 q 510 117 481 76 q 453 35 405 13 l 405 13 q 354 -10 291 -10 l 291 -10 q 132 -10 70 84 l 70 84 q 39 131 37 191 l 37 191 l 111 197 q 122 110 196 78 l 196 78 q 236 60 287 60 l 287 60 q 382 60 418 110 l 418 110 q 434 134 434 161 l 434 161 q 434 218 365 245 l 365 245 q 337 256 253 275 l 253 275 q 181 292 144 311 l 144 311 q 60 356 60 441 l 60 441 q 60 543 160 584 l 160 584 q 209 604 269 604 l 269 604 q 408 604 463 520 l 463 520 q 490 479 492 427 l 492 427 l 417 421 q 405 535 272 535 l 272 535 q 219 535 183 517 l 183 517 q 136 494 136 446 l 136 446 q 136 400 187 376 l 187 376 q 208 366 277 351 l 277 351 q 374 329 409 313 l 409 313 q 510 266 510 168 z"},"T":{"ha":507,"x_min":19,"x_max":490,"o":"m 490 594 l 490 524 l 294 524 l 294 0 l 215 0 l 215 524 l 19 524 l 19 594 l 490 594 z"},"U":{"ha":599,"x_min":65,"x_max":533,"o":"m 533 594 l 533 251 q 533 169 517 122 l 517 122 q 496 58 439 23 l 439 23 q 386 -10 300 -10 l 300 -10 q 135 -10 88 102 l 88 102 q 65 156 65 251 l 65 251 l 65 594 l 144 594 l 144 251 q 144 187 153 155 l 153 155 q 166 104 208 81 l 208 81 q 243 61 293 61 l 293 61 q 389 61 424 110 l 424 110 q 454 151 454 251 l 454 251 l 454 594 l 533 594 z"},"V":{"ha":554,"x_min":4,"x_max":547,"o":"m 467 594 l 547 594 l 314 0 l 234 0 l 4 594 l 89 594 l 243 163 q 262 110 274 65 l 274 65 q 288 112 306 163 l 306 163 l 467 594 z"},"W":{"ha":783,"x_min":10,"x_max":774,"o":"m 695 594 l 774 594 l 611 0 l 535 0 l 410 453 q 394 511 391 522 l 391 522 q 383 483 374 453 l 374 453 l 248 0 l 168 0 l 10 594 l 91 594 l 181 205 q 197 137 206 83 l 206 83 l 233 193 l 346 594 l 441 594 l 526 293 q 558 179 572 83 l 572 83 q 582 129 602 212 l 602 212 l 695 594 z"},"X":{"ha":554,"x_min":4,"x_max":548,"o":"m 323 314 l 548 0 l 451 0 l 302 212 q 291 227 276 252 l 276 252 q 254 217 247 207 l 247 207 l 98 0 l 4 0 l 233 310 l 31 594 l 124 594 l 232 442 q 266 394 280 369 l 280 369 q 298 398 327 436 l 327 436 l 447 594 l 532 594 l 323 314 z"},"Y":{"ha":554,"x_min":2,"x_max":547,"o":"m 456 594 l 547 594 l 310 252 l 310 0 l 231 0 l 231 252 l 2 594 l 98 594 l 215 415 q 245 369 276 314 l 276 314 q 305 365 340 419 l 340 419 l 456 594 z"},"Z":{"ha":507,"x_min":17,"x_max":486,"o":"m 486 70 l 486 0 l 17 0 l 17 73 l 321 453 q 353 494 383 524 l 383 524 l 51 524 l 51 594 l 477 594 l 477 524 l 107 70 l 486 70 z"},"[":{"ha":231,"x_min":56,"x_max":217,"o":"m 217 -105 l 217 -165 l 56 -165 l 56 594 l 217 594 l 217 534 l 129 534 l 129 -105 l 217 -105 z"},"\\":{"ha":231,"x_min":0,"x_max":231,"o":"m 59 604 l 231 -10 l 172 -10 l 0 604 l 59 604 z"},"]":{"ha":231,"x_min":16,"x_max":177,"o":"m 177 594 l 177 -165 l 16 -165 l 16 -105 l 104 -105 l 104 534 l 16 534 l 16 594 l 177 594 z"},"^":{"ha":389,"x_min":22,"x_max":368,"o":"m 224 604 l 368 280 l 294 280 l 194 522 l 97 280 l 22 280 l 165 604 l 224 604 z"},"_":{"ha":462,"x_min":-13,"x_max":471,"o":"m 471 -112 l 471 -165 l -13 -165 l -13 -112 l 471 -112 z"},"`":{"ha":276,"x_min":36,"x_max":188,"o":"m 134 597 l 188 484 l 130 484 l 36 597 l 134 597 z"},"a":{"ha":462,"x_min":30,"x_max":426,"o":"m 426 0 l 426 0 l 350 0 q 339 23 336 53 l 336 53 q 262 -10 177 -10 l 177 -10 q 114 -10 74 20 l 74 20 q 30 53 30 113 l 30 113 q 30 178 82 213 l 82 213 q 119 238 199 248 l 199 248 q 288 259 329 273 l 329 273 q 330 288 330 292 l 330 292 q 330 380 226 380 l 226 380 q 176 380 151 362 q 126 345 114 298 l 114 298 l 43 308 q 62 397 139 425 l 139 425 q 181 440 237 440 l 237 440 q 339 440 377 395 l 377 395 q 393 374 400 345 l 400 345 q 403 327 403 278 l 403 278 l 403 180 q 403 95 404 88 l 404 88 q 407 34 426 0 z m 329 189 l 329 189 l 329 216 q 290 200 210 188 l 210 188 q 174 183 159 179 l 159 179 q 130 169 118 150 l 118 150 q 108 135 108 116 l 108 116 q 108 81 135 63 l 135 63 q 158 47 195 47 l 195 47 q 285 47 318 116 l 318 116 q 329 141 329 189 z"},"b":{"ha":462,"x_min":54,"x_max":428,"o":"m 428 222 l 428 222 q 428 127 383 63 l 383 63 q 332 -10 242 -10 l 242 -10 q 165 -10 122 54 l 122 54 l 122 0 l 54 0 l 54 594 l 127 594 l 127 382 q 173 440 245 440 l 245 440 q 331 440 379 379 q 428 317 428 222 z m 353 216 l 353 216 q 353 281 329 325 l 329 325 q 299 380 239 380 l 239 380 q 179 380 148 326 l 148 326 q 121 282 121 218 l 121 218 q 121 141 142 107 l 142 107 q 177 50 235 50 l 235 50 q 296 50 327 106 l 327 106 q 353 151 353 216 z"},"c":{"ha":415,"x_min":32,"x_max":407,"o":"m 336 158 l 407 148 q 396 76 349 33 q 301 -10 228 -10 l 228 -10 q 132 -10 80 55 l 80 55 q 32 115 32 214 l 32 214 q 32 362 126 414 l 126 414 q 173 440 229 440 l 229 440 q 374 440 400 304 l 400 304 l 329 293 q 309 380 231 380 l 231 380 q 107 380 107 216 l 107 216 q 107 50 227 50 l 227 50 q 320 50 336 158 l 336 158 z"},"d":{"ha":462,"x_min":28,"x_max":402,"o":"m 402 594 l 402 0 l 334 0 l 334 54 q 293 -10 214 -10 l 214 -10 q 102 -10 52 98 l 52 98 q 28 149 28 215 l 28 215 q 28 356 114 412 l 114 412 q 157 440 210 440 l 210 440 q 286 440 329 381 l 329 381 l 329 594 l 402 594 z m 335 209 l 335 209 q 335 278 311 323 l 311 323 q 281 380 217 380 l 217 380 q 156 380 126 325 l 126 325 q 103 282 103 215 l 103 215 q 103 150 129 105 l 129 105 q 160 50 220 50 l 220 50 q 280 50 310 102 l 310 102 q 335 145 335 209 z"},"e":{"ha":462,"x_min":30,"x_max":427,"o":"m 427 216 l 427 216 q 427 210 427 197 l 427 197 l 106 197 q 109 133 140 94 l 140 94 q 175 50 236 50 l 236 50 q 318 50 349 139 l 349 139 l 425 129 q 387 -10 235 -10 l 235 -10 q 136 -10 82 52 l 82 52 q 30 111 30 212 l 30 212 q 30 311 80 373 l 80 373 q 134 440 231 440 l 231 440 q 326 440 379 374 l 379 374 q 427 313 427 216 z m 110 257 l 350 257 q 345 311 323 338 l 323 338 q 288 380 232 380 l 232 380 q 179 380 146 345 q 113 310 110 257 l 110 257 z"},"f":{"ha":231,"x_min":8,"x_max":259,"o":"m 259 597 l 259 597 l 248 533 q 226 537 205 537 l 205 537 q 170 537 157 521 q 145 506 145 470 l 145 470 l 145 430 l 229 430 l 229 374 l 145 374 l 145 0 l 72 0 l 72 374 l 8 374 l 8 430 l 72 430 l 72 476 q 72 557 117 587 l 117 587 q 143 604 191 604 l 191 604 q 222 604 259 597 z"},"g":{"ha":462,"x_min":27,"x_max":406,"o":"m 406 430 l 406 58 q 406 -22 394 -61 l 394 -61 q 376 -120 321 -150 l 321 -150 q 276 -175 212 -175 l 212 -175 q 138 -175 94 -145 l 94 -145 q 41 -110 41 -40 l 41 -40 q 41 -38 41 -36 l 41 -36 l 112 -46 q 122 -114 211 -114 l 211 -114 q 306 -114 327 -37 l 327 -37 q 332 -17 332 47 l 332 47 l 332 56 q 284 0 213 0 l 213 0 q 124 0 73 66 l 73 66 q 27 127 27 218 l 27 218 q 27 354 114 412 l 114 412 q 156 440 213 440 l 213 440 q 289 440 339 379 l 339 379 l 339 430 l 406 430 z m 338 220 l 338 220 q 338 285 311 328 l 311 328 q 279 380 218 380 l 218 380 q 159 380 128 329 l 128 329 q 102 286 102 223 l 102 223 q 102 155 126 113 l 126 113 q 157 60 220 60 l 220 60 q 282 60 313 112 l 313 112 q 338 154 338 220 z"},"h":{"ha":462,"x_min":55,"x_max":405,"o":"m 405 273 l 405 0 l 332 0 l 332 273 q 332 377 242 377 l 242 377 q 209 377 181 360 q 152 344 140 315 q 128 286 128 235 l 128 235 l 128 0 l 55 0 l 55 594 l 128 594 l 128 381 q 179 440 257 440 l 257 440 q 358 440 390 369 l 390 369 q 405 336 405 273 l 405 273 z"},"i":{"ha":184,"x_min":55,"x_max":128,"o":"m 128 594 l 128 510 l 55 510 l 55 594 l 128 594 z m 128 430 l 128 0 l 55 0 l 55 430 l 128 430 z"},"j":{"ha":184,"x_min":-38,"x_max":127,"o":"m 127 594 l 127 509 l 54 509 l 54 594 l 127 594 z m 127 430 l 127 -24 q 127 -103 107 -134 l 107 -134 q 80 -175 19 -175 l 19 -175 q -11 -175 -38 -167 l -38 -167 l -24 -105 q -2 -111 10 -111 l 10 -111 q 41 -111 50 -79 l 50 -79 q 54 -65 54 -22 l 54 -22 l 54 430 l 127 430 z"},"k":{"ha":415,"x_min":55,"x_max":412,"o":"m 231 271 l 412 0 l 322 0 l 180 220 l 128 171 l 128 0 l 55 0 l 55 594 l 128 594 l 128 255 l 301 430 l 395 430 l 231 271 z"},"l":{"ha":184,"x_min":53,"x_max":126,"o":"m 126 594 l 126 0 l 53 0 l 53 594 l 126 594 z"},"m":{"ha":691,"x_min":55,"x_max":638,"o":"m 638 295 l 638 0 l 565 0 l 565 271 q 565 344 533 365 l 533 365 q 514 377 489 377 l 489 377 q 383 377 383 250 l 383 250 l 383 0 l 310 0 l 310 280 q 310 377 234 377 l 234 377 q 163 377 139 313 l 139 313 q 128 282 128 223 l 128 223 l 128 0 l 55 0 l 55 430 l 120 430 l 120 370 q 165 440 250 440 l 250 440 q 345 440 372 365 l 372 365 q 423 440 505 440 l 505 440 q 638 440 638 295 l 638 295 z"},"n":{"ha":462,"x_min":55,"x_max":404,"o":"m 404 265 l 404 0 l 332 0 l 332 262 q 332 340 293 364 l 293 364 q 271 377 242 377 l 242 377 q 128 377 128 235 l 128 235 l 128 0 l 55 0 l 55 430 l 120 430 l 120 369 q 168 440 257 440 l 257 440 q 342 440 378 389 l 378 389 q 394 367 400 336 l 400 336 q 404 316 404 265 l 404 265 z"},"o":{"ha":462,"x_min":28,"x_max":431,"o":"m 431 221 l 431 221 q 431 71 333 17 l 333 17 q 286 -10 229 -10 l 229 -10 q 131 -10 77 55 l 77 55 q 28 115 28 215 l 28 215 q 28 316 78 376 l 78 376 q 132 440 229 440 l 229 440 q 324 440 379 377 l 379 377 q 431 318 431 221 z m 356 218 l 356 218 q 356 285 327 329 l 327 329 q 293 380 229 380 l 229 380 q 164 380 131 328 l 131 328 q 103 284 103 215 l 103 215 q 103 146 131 102 l 131 102 q 164 50 229 50 l 229 50 q 295 50 328 103 l 328 103 q 356 148 356 218 z"},"p":{"ha":462,"x_min":55,"x_max":428,"o":"m 428 218 l 428 218 q 428 76 336 18 l 336 18 q 291 -10 241 -10 l 241 -10 q 171 -10 128 45 l 128 45 l 128 -165 l 55 -165 l 55 430 l 121 430 l 121 374 q 168 440 246 440 l 246 440 q 362 440 407 332 l 407 332 q 428 280 428 218 z m 354 219 l 354 219 q 354 283 329 328 l 329 328 q 299 383 239 383 l 239 383 q 179 383 147 325 l 147 325 q 121 277 121 213 l 121 213 q 121 147 145 104 l 145 104 q 175 50 236 50 l 236 50 q 298 50 329 107 l 329 107 q 354 151 354 219 z"},"q":{"ha":462,"x_min":29,"x_max":402,"o":"m 402 430 l 402 -165 l 329 -165 l 329 46 q 290 -10 216 -10 l 216 -10 q 127 -10 76 63 l 76 63 q 29 127 29 219 l 29 219 q 29 359 117 414 l 117 414 q 160 440 211 440 l 211 440 q 291 440 336 373 l 336 373 l 336 430 l 402 430 z m 336 210 l 336 210 q 336 277 311 324 l 311 324 q 279 383 218 383 l 218 383 q 157 383 127 327 l 127 327 q 104 283 104 216 l 104 216 q 104 151 130 106 l 130 106 q 161 50 222 50 l 222 50 q 282 50 312 103 l 312 103 q 336 146 336 210 z"},"r":{"ha":276,"x_min":54,"x_max":288,"o":"m 288 417 l 288 417 l 263 349 q 236 365 209 365 l 209 365 q 156 365 139 310 l 139 310 q 127 272 127 225 l 127 225 l 127 0 l 54 0 l 54 430 l 120 430 l 120 365 q 161 440 213 440 l 213 440 q 250 440 288 417 z"},"s":{"ha":415,"x_min":26,"x_max":383,"o":"m 383 126 l 383 126 q 383 44 300 8 l 300 8 q 260 -10 210 -10 l 210 -10 q 50 -10 26 128 l 26 128 l 98 140 q 110 50 209 50 l 209 50 q 248 50 275 65 l 275 65 q 308 83 308 119 l 308 119 q 308 144 287 158 l 287 158 q 272 167 212 182 l 212 182 q 145 199 125 207 l 125 207 q 73 227 54 258 l 54 258 q 38 284 38 316 l 38 316 q 38 375 87 410 l 87 410 q 128 440 196 440 l 196 440 q 302 440 342 386 l 342 386 q 360 361 367 319 l 367 319 l 295 310 q 285 380 201 380 l 201 380 q 108 380 108 325 l 108 325 q 108 294 145 280 l 145 280 q 156 276 210 261 l 210 261 q 281 242 294 237 l 294 237 q 345 218 366 189 l 366 189 q 383 164 383 126 z"},"t":{"ha":231,"x_min":15,"x_max":225,"o":"m 214 65 l 225 1 q 194 -6 169 -6 l 169 -6 q 97 -6 77 40 l 77 40 q 68 60 68 126 l 68 126 l 68 374 l 15 374 l 15 430 l 68 430 l 68 537 l 141 581 l 141 430 l 214 430 l 214 374 l 141 374 l 141 122 q 141 90 146 79 l 146 79 q 154 62 182 62 l 182 62 q 194 62 214 65 l 214 65 z"},"u":{"ha":462,"x_min":53,"x_max":402,"o":"m 402 430 l 402 0 l 337 0 l 337 63 q 287 -10 200 -10 l 200 -10 q 117 -10 80 42 l 80 42 q 64 64 58 96 l 58 96 q 53 117 53 164 l 53 164 l 53 430 l 126 430 l 126 192 q 126 134 130 115 l 130 115 q 145 53 215 53 l 215 53 q 248 53 276 70 q 305 87 317 116 q 329 145 329 200 l 329 200 l 329 430 l 402 430 z"},"v":{"ha":415,"x_min":11,"x_max":405,"o":"m 330 430 l 405 430 l 242 0 l 174 0 l 11 430 l 88 430 l 180 173 q 195 131 207 86 l 207 86 q 217 120 235 168 l 235 168 l 330 430 z"},"w":{"ha":599,"x_min":2,"x_max":593,"o":"m 522 430 l 593 430 l 458 0 l 383 0 l 314 258 l 297 331 l 210 0 l 134 0 l 2 430 l 78 430 l 172 90 q 176 107 194 178 l 194 178 l 263 430 l 338 430 l 424 98 l 522 430 z"},"x":{"ha":415,"x_min":6,"x_max":409,"o":"m 249 228 l 409 0 l 319 0 l 207 170 l 94 0 l 6 0 l 163 224 l 18 430 l 109 430 l 175 329 q 192 303 205 281 l 205 281 q 219 303 238 329 l 238 329 l 310 430 l 398 430 l 249 228 z"},"y":{"ha":415,"x_min":13,"x_max":408,"o":"m 335 430 l 408 430 l 244 -7 q 217 -79 203 -105 l 203 -105 q 165 -175 98 -175 l 98 -175 q 77 -175 51 -166 l 51 -166 l 43 -97 q 67 -104 85 -104 l 85 -104 q 128 -104 148 -73 l 148 -73 q 155 -62 170 -19 l 170 -19 q 172 -15 175 -5 l 175 -5 l 177 -1 l 13 430 l 92 430 l 182 181 q 200 130 213 81 l 213 81 q 226 133 243 180 l 243 180 l 335 430 z"},"z":{"ha":415,"x_min":16,"x_max":397,"o":"m 397 63 l 397 0 l 16 0 l 16 59 l 290 374 q 244 371 208 371 l 208 371 l 32 371 l 32 430 l 384 430 l 384 382 l 106 59 q 155 63 198 63 l 198 63 l 397 63 z"},"{":{"ha":277,"x_min":23,"x_max":258,"o":"m 258 -111 l 258 -175 l 235 -175 q 195 -175 178 -168 l 178 -168 q 122 -148 112 -85 l 112 -85 q 111 -18 109 48 l 109 48 q 105 139 74 165 l 74 165 q 54 181 23 182 l 23 182 l 23 248 q 86 250 100 309 l 100 309 q 107 337 107 404 l 107 404 q 107 435 109 494 l 109 494 q 118 582 185 600 l 185 600 q 199 604 235 604 l 235 604 l 258 604 l 258 541 l 245 541 q 200 541 186 521 l 186 521 q 175 506 175 458 l 175 458 q 175 350 171 323 l 171 323 q 164 281 146 257 q 129 233 91 215 l 91 215 q 144 192 163 140 l 163 140 q 175 104 175 32 l 175 32 q 175 -47 177 -62 l 177 -62 q 181 -92 198 -103 l 198 -103 q 211 -111 245 -111 l 245 -111 l 258 -111 z"},"|":{"ha":216,"x_min":76,"x_max":140,"o":"m 140 604 l 140 -175 l 76 -175 l 76 604 l 140 604 z"},"}":{"ha":277,"x_min":19,"x_max":254,"o":"m 254 248 l 254 182 q 191 180 177 121 l 177 121 q 169 89 169 30 l 169 30 q 169 -43 167 -64 l 167 -64 q 159 -151 92 -170 l 92 -170 q 76 -175 42 -175 l 42 -175 l 19 -175 l 19 -111 l 32 -111 q 77 -111 90 -92 l 90 -92 q 101 -76 101 -28 l 101 -28 q 101 75 105 101 l 105 101 q 117 186 186 215 l 186 215 q 132 241 114 290 l 114 290 q 101 324 101 399 q 101 474 99 492 l 99 492 q 96 523 79 533 l 79 533 q 66 541 32 541 l 32 541 l 19 541 l 19 604 l 42 604 q 81 604 99 598 l 99 598 q 154 578 164 515 l 164 515 q 169 485 169 411 l 169 411 q 168 345 177 309 l 177 309 q 191 250 254 248 l 254 248 z"},"~":{"ha":485,"x_min":35,"x_max":450,"o":"m 450 359 l 450 273 q 401 227 338 227 l 338 227 q 294 227 221 259 l 221 259 q 173 281 141 281 l 141 281 q 92 281 35 226 l 35 226 l 35 309 q 78 357 148 357 l 148 357 q 192 357 275 322 l 275 322 q 320 303 345 303 l 345 303 q 399 303 450 359 l 450 359 z"},"ഀ":{"ha":1000,"x_min":72,"x_max":668,"o":"m 668 221 l 668 221 q 668 180 657 141 q 646 103 627 70 q 608 37 581 10 q 554 -17 521 -37 q 488 -56 450 -67 q 412 -77 371 -77 l 371 -77 q 309 -77 255 -54 q 200 -31 160 10 q 119 50 96 104 q 72 158 72 220 l 72 220 q 72 282 96 336 q 119 390 160 430 q 200 471 254 494 q 309 518 370 518 l 370 518 q 432 518 486 494 q 540 471 581 430 q 621 390 645 336 q 668 282 668 221 z m 636 219 l 636 219 q 636 275 615 324 q 593 373 557 410 q 520 446 471 467 q 422 488 366 488 l 366 488 q 311 488 261 467 q 212 446 176 410 q 139 373 118 324 q 97 275 97 219 l 97 219 q 97 163 118 114 q 139 64 176 28 q 212 -9 261 -30 q 311 -52 366 -52 l 366 -52 q 422 -52 471 -30 q 520 -9 557 28 q 593 64 615 114 q 636 163 636 219 z m 526 68 l 455 -3 q 447 9 444 22 q 440 36 438 50 q 435 64 431 77 q 427 90 416 101 l 416 101 q 409 108 404 116 q 398 124 394 132 q 389 140 383 148 q 377 156 369 165 l 369 165 q 362 170 356 175 q 351 180 344 183 l 344 183 q 335 183 328 183 q 320 184 312 184 l 312 184 q 311 163 311 143 q 311 124 311 104 l 311 104 l 236 30 q 236 107 240 184 q 244 262 248 334 l 248 334 l 276 362 q 265 362 253 361 q 242 360 232 358 l 232 358 l 307 434 q 327 437 355 437 q 383 437 412 432 q 441 428 467 419 q 492 410 507 395 l 507 395 q 516 386 520 369 q 523 351 523 332 q 523 313 519 296 q 515 279 509 272 l 509 272 l 455 218 q 465 205 471 193 q 478 181 490 169 l 490 169 q 501 158 505 145 q 509 131 511 118 q 514 104 516 92 q 519 79 526 68 l 526 68 z m 448 258 l 448 258 q 450 278 447 297 q 444 315 436 324 l 436 324 q 427 333 415 339 q 402 346 387 350 q 372 354 354 357 q 337 359 320 360 l 320 360 q 317 321 316 280 q 314 240 312 200 l 312 200 l 370 258 q 380 263 391 262 q 401 261 411 257 l 411 257 q 420 257 430 257 q 439 257 448 258 z"},"ഁ":{"ha":1000,"x_min":72,"x_max":668,"o":"m 668 221 l 668 221 q 668 180 657 141 q 646 103 627 70 q 608 37 581 10 q 554 -17 521 -37 q 488 -56 450 -67 q 412 -77 371 -77 l 371 -77 q 309 -77 255 -54 q 200 -31 160 10 q 119 50 96 104 q 72 158 72 220 l 72 220 q 72 282 96 336 q 119 390 160 430 q 200 471 254 494 q 309 518 370 518 l 370 518 q 432 518 486 494 q 540 471 581 430 q 621 390 645 336 q 668 282 668 221 z m 636 219 l 636 219 q 636 275 615 324 q 593 373 557 410 q 520 446 471 467 q 422 488 366 488 l 366 488 q 311 488 261 467 q 212 446 176 410 q 139 373 118 324 q 97 275 97 219 l 97 219 q 97 163 118 114 q 139 64 176 28 q 212 -9 261 -30 q 311 -52 366 -52 l 366 -52 q 422 -52 471 -30 q 520 -9 557 28 q 593 64 615 114 q 636 163 636 219 z m 526 68 l 455 -3 q 447 9 444 22 q 440 36 438 50 q 435 64 431 77 q 427 90 416 101 l 416 101 q 409 108 404 116 q 398 124 394 132 q 389 140 383 148 q 377 156 369 165 l 369 165 q 362 170 356 175 q 351 180 344 183 l 344 183 q 335 183 328 183 q 320 184 312 184 l 312 184 q 311 163 311 143 q 311 124 311 104 l 311 104 l 236 30 q 236 107 240 184 q 244 262 248 334 l 248 334 l 276 362 q 265 362 253 361 q 242 360 232 358 l 232 358 l 307 434 q 327 437 355 437 q 383 437 412 432 q 441 428 467 419 q 492 410 507 395 l 507 395 q 516 386 520 369 q 523 351 523 332 q 523 313 519 296 q 515 279 509 272 l 509 272 l 455 218 q 465 205 471 193 q 478 181 490 169 l 490 169 q 501 158 505 145 q 509 131 511 118 q 514 104 516 92 q 519 79 526 68 l 526 68 z m 448 258 l 448 258 q 450 278 447 297 q 444 315 436 324 l 436 324 q 427 333 415 339 q 402 346 387 350 q 372 354 354 357 q 337 359 320 360 l 320 360 q 317 321 316 280 q 314 240 312 200 l 312 200 l 370 258 q 380 263 391 262 q 401 261 411 257 l 411 257 q 420 257 430 257 q 439 257 448 258 z"},"ം":{"ha":418,"x_min":77,"x_max":416,"o":"m 416 158 l 416 158 q 416 123 403 92 q 389 61 366 38 q 343 15 313 2 q 282 -12 247 -12 l 247 -12 q 211 -12 180 2 q 149 15 126 38 q 104 61 90 92 q 77 123 77 158 l 77 158 q 77 193 90 224 q 104 255 126 278 q 149 301 180 315 q 211 328 247 328 l 247 328 q 282 328 313 315 q 343 301 366 278 q 389 255 403 224 q 416 193 416 158 z m 341 163 l 341 163 q 341 187 332 207 q 323 228 307 243 q 292 258 271 267 q 250 276 227 276 l 227 276 q 203 276 182 267 q 162 258 146 243 q 130 228 121 207 q 112 187 112 163 l 112 163 q 112 139 121 118 q 130 98 146 82 q 162 67 182 58 q 203 49 227 49 l 227 49 q 250 49 271 58 q 292 67 307 82 q 323 98 332 118 q 341 139 341 163 z"},"ഃ":{"ha":222,"x_min":56,"x_max":222,"o":"m 222 345 l 222 345 q 222 328 215 313 q 208 297 197 286 q 186 275 171 268 q 156 262 139 262 l 139 262 q 122 262 106 268 q 91 275 80 286 q 69 297 62 313 q 56 328 56 345 l 56 345 q 56 362 62 377 q 69 392 80 403 q 91 415 106 421 q 122 428 139 428 l 139 428 q 156 428 171 421 q 186 415 197 403 q 208 392 215 377 q 222 362 222 345 z m 222 91 l 222 91 q 222 74 215 59 q 208 43 197 32 q 186 21 171 14 q 156 8 139 8 l 139 8 q 122 8 106 14 q 91 21 80 32 q 69 43 62 59 q 56 74 56 91 l 56 91 q 56 108 62 123 q 69 138 80 149 q 91 161 106 167 q 122 174 139 174 l 139 174 q 156 174 171 167 q 186 161 197 149 q 208 138 215 123 q 222 108 222 91 z m 168 344 l 168 344 q 168 361 156 373 q 145 386 127 386 l 127 386 q 109 386 98 373 q 86 361 86 344 l 86 344 q 86 328 98 315 q 109 303 127 303 l 127 303 q 145 303 156 315 q 168 328 168 344 z m 168 91 l 168 91 q 168 107 156 119 q 145 132 127 132 l 127 132 q 109 132 98 119 q 86 107 86 91 l 86 91 q 86 74 98 61 q 109 49 127 49 l 127 49 q 145 49 156 61 q 168 74 168 91 z"},"ഄ":{"ha":1000,"x_min":72,"x_max":668,"o":"m 668 221 l 668 221 q 668 180 657 141 q 646 103 627 70 q 608 37 581 10 q 554 -17 521 -37 q 488 -56 450 -67 q 412 -77 371 -77 l 371 -77 q 309 -77 255 -54 q 200 -31 160 10 q 119 50 96 104 q 72 158 72 220 l 72 220 q 72 282 96 336 q 119 390 160 430 q 200 471 254 494 q 309 518 370 518 l 370 518 q 432 518 486 494 q 540 471 581 430 q 621 390 645 336 q 668 282 668 221 z m 636 219 l 636 219 q 636 275 615 324 q 593 373 557 410 q 520 446 471 467 q 422 488 366 488 l 366 488 q 311 488 261 467 q 212 446 176 410 q 139 373 118 324 q 97 275 97 219 l 97 219 q 97 163 118 114 q 139 64 176 28 q 212 -9 261 -30 q 311 -52 366 -52 l 366 -52 q 422 -52 471 -30 q 520 -9 557 28 q 593 64 615 114 q 636 163 636 219 z m 526 68 l 455 -3 q 447 9 444 22 q 440 36 438 50 q 435 64 431 77 q 427 90 416 101 l 416 101 q 409 108 404 116 q 398 124 394 132 q 389 140 383 148 q 377 156 369 165 l 369 165 q 362 170 356 175 q 351 180 344 183 l 344 183 q 335 183 328 183 q 320 184 312 184 l 312 184 q 311 163 311 143 q 311 124 311 104 l 311 104 l 236 30 q 236 107 240 184 q 244 262 248 334 l 248 334 l 276 362 q 265 362 253 361 q 242 360 232 358 l 232 358 l 307 434 q 327 437 355 437 q 383 437 412 432 q 441 428 467 419 q 492 410 507 395 l 507 395 q 516 386 520 369 q 523 351 523 332 q 523 313 519 296 q 515 279 509 272 l 509 272 l 455 218 q 465 205 471 193 q 478 181 490 169 l 490 169 q 501 158 505 145 q 509 131 511 118 q 514 104 516 92 q 519 79 526 68 l 526 68 z m 448 258 l 448 258 q 450 278 447 297 q 444 315 436 324 l 436 324 q 427 333 415 339 q 402 346 387 350 q 372 354 354 357 q 337 359 320 360 l 320 360 q 317 321 316 280 q 314 240 312 200 l 312 200 l 370 258 q 380 263 391 262 q 401 261 411 257 l 411 257 q 420 257 430 257 q 439 257 448 258 z"},"അ":{"ha":1056,"x_min":76,"x_max":1055,"o":"m 1055 200 l 1055 200 q 1055 178 1051 154 q 1048 130 1040 107 q 1033 83 1021 62 q 1010 41 993 25 q 977 9 956 0 q 935 -10 908 -10 l 908 -10 q 878 -10 854 4 q 830 19 813 41 q 796 64 787 92 q 778 121 778 148 l 778 148 q 778 185 790 216 q 802 247 823 271 q 844 294 874 310 q 903 325 938 330 l 938 330 q 920 363 890 381 q 860 398 822 398 l 822 398 q 805 398 785 394 q 765 389 748 379 q 731 369 720 354 q 709 338 709 318 l 709 318 l 709 0 l 625 0 l 625 272 q 625 298 614 321 q 603 344 584 361 q 565 378 542 388 q 518 398 492 398 l 492 398 l 461 398 q 490 383 508 358 q 526 333 526 299 l 526 299 q 526 267 510 244 q 493 222 467 207 l 467 207 q 483 202 497 194 q 511 187 521 175 q 532 164 537 149 q 543 134 543 116 l 543 116 q 543 90 532 67 q 521 44 503 27 q 485 10 461 0 q 438 -10 412 -10 l 412 -10 q 373 -10 343 8 q 313 25 294 53 q 274 82 265 117 q 255 152 255 187 l 255 187 q 255 248 278 299 q 301 350 349 388 l 349 388 q 335 391 322 392 q 308 393 295 393 l 295 393 q 251 393 219 375 q 186 357 165 328 q 144 298 133 261 q 123 224 123 186 l 123 186 q 123 157 128 130 q 134 103 145 79 q 156 56 172 37 q 189 18 211 7 l 211 7 l 178 -10 q 152 4 133 26 q 114 48 102 76 q 89 104 83 135 q 76 167 76 200 l 76 200 q 76 246 89 291 q 102 335 128 370 q 155 405 195 427 q 234 448 288 448 l 288 448 q 317 448 346 444 q 375 439 400 425 l 400 425 q 429 438 461 443 q 493 448 524 448 l 524 448 q 549 448 573 444 q 597 439 618 430 q 640 420 658 405 q 676 389 688 366 l 688 366 q 712 405 748 427 q 784 448 830 448 l 830 448 q 880 448 921 427 q 962 406 992 372 q 1022 337 1038 292 q 1055 248 1055 200 z m 978 187 l 978 187 q 978 215 972 244 q 966 272 953 299 l 953 299 q 926 295 901 286 q 876 276 857 259 q 838 243 827 219 q 816 196 816 166 l 816 166 q 816 150 822 131 q 827 111 837 93 q 847 76 861 64 q 876 52 895 52 l 895 52 q 918 52 934 66 q 950 80 960 101 q 969 122 973 145 q 978 168 978 187 z m 460 112 l 460 112 q 460 135 450 148 q 440 161 424 168 q 409 175 390 177 q 371 180 354 180 l 354 180 l 352 180 l 352 214 l 376 214 q 391 214 405 220 q 419 226 430 236 q 441 246 448 260 q 455 273 455 288 l 455 288 q 455 302 448 315 q 442 329 432 340 q 421 352 409 361 q 396 370 384 375 l 384 375 q 359 362 341 341 q 323 320 311 295 q 299 269 293 241 q 287 213 287 187 l 287 187 q 287 165 293 140 q 299 115 311 94 q 324 73 343 60 q 362 46 389 46 l 389 46 q 402 46 415 51 q 428 56 438 65 q 448 74 454 86 q 460 98 460 112 z"},"ആ":{"ha":1196,"x_min":76,"x_max":1192,"o":"m 1192 100 l 1192 100 q 1192 40 1172 -8 q 1152 -57 1118 -90 q 1084 -124 1039 -142 q 994 -160 944 -160 l 944 -160 q 914 -160 885 -155 q 855 -150 824 -134 l 824 -134 l 841 -89 q 861 -99 879 -102 q 896 -105 915 -105 l 915 -105 q 960 -105 1000 -84 q 1039 -63 1069 -29 q 1100 5 1117 49 q 1135 94 1135 140 l 1135 140 q 1135 164 1128 189 q 1121 214 1108 236 q 1096 258 1077 275 q 1059 292 1034 300 l 1034 300 q 1044 275 1049 250 q 1055 226 1055 200 l 1055 200 q 1055 167 1047 130 q 1039 94 1021 63 q 1004 31 976 11 q 948 -10 908 -10 l 908 -10 q 878 -10 854 4 q 830 19 813 42 q 796 64 787 92 q 778 120 778 148 l 778 148 q 778 185 790 216 q 802 247 823 271 q 845 294 874 310 q 903 325 938 330 l 938 330 q 920 363 890 381 q 860 398 822 398 l 822 398 q 805 398 785 394 q 766 389 749 378 q 731 368 720 354 q 709 339 709 318 l 709 318 l 709 0 l 625 0 l 625 272 q 625 298 614 321 q 603 344 584 361 q 565 378 542 388 q 518 398 492 398 l 492 398 l 461 398 q 490 383 508 358 q 526 333 526 299 l 526 299 q 526 268 510 245 q 493 222 467 207 l 467 207 q 500 197 521 175 q 543 153 543 116 l 543 116 q 543 90 532 67 q 521 44 503 27 q 485 10 461 0 q 438 -10 412 -10 l 412 -10 q 372 -10 343 8 q 313 25 294 54 q 274 82 265 117 q 255 151 255 187 l 255 187 q 255 248 278 299 q 302 351 349 388 l 349 388 q 335 391 322 392 q 309 393 295 393 l 295 393 q 251 393 219 375 q 187 356 165 327 q 144 298 133 261 q 123 224 123 186 l 123 186 q 123 157 128 130 q 134 103 145 79 q 156 56 172 37 q 188 19 211 7 l 211 7 l 178 -10 q 152 4 133 26 q 114 48 102 76 q 89 104 83 135 q 76 167 76 200 l 76 200 q 76 246 89 291 q 102 335 128 370 q 154 405 194 427 q 234 448 288 448 l 288 448 q 317 448 346 444 q 375 439 400 425 l 400 425 q 429 438 461 443 q 493 448 524 448 l 524 448 q 573 448 618 430 q 663 411 688 366 l 688 366 q 712 405 748 427 q 783 448 830 448 l 830 448 q 894 448 939 418 q 985 389 1016 334 l 1016 334 q 1059 325 1091 303 q 1124 281 1146 250 q 1169 219 1181 180 q 1192 142 1192 100 z m 978 187 l 978 187 q 978 215 972 244 q 967 272 953 299 l 953 299 q 926 296 901 286 q 876 275 857 259 q 839 242 828 219 q 816 196 816 166 l 816 166 q 816 150 822 130 q 827 110 837 93 q 847 75 861 63 q 876 52 895 52 l 895 52 q 918 52 934 66 q 950 80 960 101 q 970 121 974 145 q 978 168 978 187 z m 460 112 l 460 112 q 460 135 450 148 q 439 161 424 168 q 409 176 390 178 q 371 180 354 180 l 354 180 l 352 180 l 352 214 l 376 214 q 391 214 405 220 q 419 226 430 236 q 441 246 448 260 q 455 273 455 288 l 455 288 q 455 302 449 315 q 442 328 432 340 q 422 352 409 361 q 396 370 384 375 l 384 375 q 359 362 341 341 q 323 320 311 294 q 299 269 293 241 q 287 213 287 187 l 287 187 q 287 164 293 140 q 299 115 312 94 q 324 73 343 60 q 362 46 389 46 l 389 46 q 417 46 438 65 q 460 84 460 112 z"},"ഇ":{"ha":793,"x_min":76,"x_max":794,"o":"m 794 -160 l 190 -160 q 162 -160 141 -152 q 120 -144 106 -131 q 92 -118 85 -101 q 78 -83 78 -65 l 78 -65 q 78 -47 85 -29 q 92 -11 106 3 q 121 17 142 26 q 163 34 190 34 l 190 34 l 563 34 q 601 34 629 49 q 658 64 676 89 q 694 114 703 146 q 712 178 712 211 l 712 211 q 712 246 703 279 q 693 313 676 339 q 658 366 632 382 q 606 398 572 398 l 572 398 q 554 398 538 393 q 522 388 510 378 q 499 368 491 354 q 484 339 484 320 l 484 320 l 484 70 l 400 70 l 400 300 q 400 322 390 339 q 380 356 363 368 q 345 380 323 386 q 300 393 276 393 l 276 393 q 251 393 226 385 q 201 378 179 364 q 158 349 142 325 q 125 301 119 269 l 119 269 l 124 267 q 140 292 163 307 q 187 322 218 322 l 218 322 q 244 322 265 312 q 286 301 300 283 q 314 266 322 243 q 329 220 329 196 l 329 196 q 329 171 320 148 q 312 124 296 105 q 280 87 259 76 q 237 64 211 64 l 211 64 q 179 64 154 78 q 128 91 111 114 q 94 136 85 166 q 76 195 76 228 l 76 228 q 76 281 97 323 q 118 364 151 393 q 185 421 226 436 q 268 450 310 450 l 310 450 q 358 450 400 430 q 441 411 466 370 l 466 370 q 488 411 521 430 q 555 448 592 448 l 592 448 q 642 448 680 428 q 717 407 742 374 q 767 340 779 298 q 791 255 791 212 l 791 212 q 791 171 781 133 q 771 95 750 65 q 730 36 699 18 q 669 0 629 0 l 629 0 l 190 0 q 176 0 165 -4 q 154 -8 147 -14 q 140 -21 136 -29 q 132 -37 132 -45 l 132 -45 q 132 -61 146 -74 q 160 -87 190 -87 l 190 -87 l 794 -87 l 794 -160 z m 263 196 l 263 196 q 263 212 259 227 q 255 242 247 254 q 239 266 228 273 q 216 280 200 280 l 200 280 q 186 280 175 273 q 165 266 157 254 q 150 243 146 228 q 143 213 143 198 l 143 198 q 143 183 146 167 q 150 152 158 140 q 166 127 177 120 q 189 112 204 112 l 204 112 q 218 112 229 120 q 240 127 248 139 q 255 150 259 166 q 263 181 263 196 z"},"ഈ":{"ha":1468,"x_min":76,"x_max":1468,"o":"m 1468 218 l 1468 218 q 1468 189 1462 161 q 1456 132 1444 107 q 1432 82 1413 60 q 1394 38 1368 22 q 1341 6 1307 -3 q 1273 -12 1230 -12 l 1230 -12 q 1193 -12 1159 -3 q 1125 5 1098 20 q 1071 35 1055 55 q 1039 76 1039 102 l 1039 102 l 1039 114 l 1072 114 l 1072 103 q 1072 88 1084 75 q 1095 62 1115 51 q 1134 41 1159 35 q 1184 28 1211 28 l 1211 28 q 1257 28 1290 45 q 1323 62 1344 89 q 1365 116 1375 150 q 1386 185 1386 220 l 1386 220 q 1386 267 1374 300 q 1362 334 1343 356 q 1324 378 1301 388 q 1277 398 1255 398 l 1255 398 q 1239 398 1225 394 q 1211 389 1200 379 q 1189 370 1183 356 q 1177 343 1177 326 l 1177 326 l 1177 187 l 1093 187 l 1093 291 q 1093 320 1086 341 q 1080 362 1068 375 q 1057 389 1042 396 q 1028 402 1012 402 l 1012 402 q 992 402 972 392 q 952 382 936 363 q 920 344 910 317 q 900 289 900 254 l 900 254 q 900 245 899 238 q 898 230 898 223 l 898 223 q 898 215 900 208 q 901 200 902 190 l 902 190 l 871 190 q 869 201 867 209 q 866 217 866 226 l 866 226 q 866 234 867 243 q 868 251 868 262 l 868 262 q 868 306 882 340 q 896 375 918 399 q 941 423 970 436 q 1000 448 1030 448 l 1030 448 q 1065 448 1099 431 q 1132 413 1156 375 l 1156 375 q 1184 414 1218 432 q 1251 450 1286 450 l 1286 450 q 1321 450 1354 433 q 1386 416 1412 385 q 1437 354 1452 312 q 1468 269 1468 218 z m 794 -160 l 190 -160 q 162 -160 141 -152 q 120 -144 106 -131 q 92 -118 85 -101 q 78 -83 78 -65 l 78 -65 q 78 -47 85 -29 q 92 -11 106 3 q 121 17 142 26 q 163 34 190 34 l 190 34 l 563 34 q 601 34 629 49 q 658 64 676 89 q 694 114 703 146 q 712 178 712 211 l 712 211 q 712 246 703 279 q 693 313 676 339 q 658 366 632 382 q 606 398 572 398 l 572 398 q 554 398 538 393 q 522 388 510 378 q 499 368 491 354 q 484 339 484 320 l 484 320 l 484 70 l 400 70 l 400 300 q 400 322 390 339 q 380 356 363 368 q 345 380 323 386 q 300 393 276 393 l 276 393 q 251 393 226 385 q 201 378 179 364 q 158 349 142 325 q 125 301 119 269 l 119 269 l 124 267 q 140 292 163 307 q 187 322 218 322 l 218 322 q 244 322 265 312 q 286 301 300 283 q 314 266 322 243 q 329 220 329 196 l 329 196 q 329 171 320 148 q 312 124 296 105 q 280 87 259 76 q 237 64 211 64 l 211 64 q 179 64 154 78 q 128 91 111 114 q 94 136 85 166 q 76 195 76 228 l 76 228 q 76 281 97 323 q 118 364 151 393 q 185 421 226 436 q 268 450 310 450 l 310 450 q 358 450 400 430 q 441 411 466 370 l 466 370 q 488 411 521 430 q 555 448 592 448 l 592 448 q 642 448 680 428 q 717 407 742 374 q 767 340 779 298 q 791 255 791 212 l 791 212 q 791 171 781 133 q 771 95 750 65 q 730 36 699 18 q 669 0 629 0 l 629 0 l 190 0 q 176 0 165 -4 q 154 -8 147 -14 q 140 -21 136 -29 q 132 -37 132 -45 l 132 -45 q 132 -61 146 -74 q 160 -87 190 -87 l 190 -87 l 794 -87 l 794 -160 z m 263 196 l 263 196 q 263 212 259 227 q 255 242 247 254 q 239 266 228 273 q 216 280 200 280 l 200 280 q 186 280 175 273 q 165 266 157 254 q 150 243 146 228 q 143 213 143 198 l 143 198 q 143 183 146 167 q 150 152 158 140 q 166 127 177 120 q 189 112 204 112 l 204 112 q 218 112 229 120 q 240 127 248 139 q 255 150 259 166 q 263 181 263 196 z"},"ഉ":{"ha":570,"x_min":72,"x_max":570,"o":"m 570 219 l 570 219 q 570 169 549 129 q 528 89 494 60 q 459 32 415 16 q 371 0 324 0 l 324 0 l 194 0 q 184 0 173 -2 q 162 -5 153 -10 q 144 -15 138 -24 q 132 -33 132 -45 l 132 -45 q 132 -58 138 -66 q 144 -74 153 -78 q 163 -83 174 -85 q 185 -87 194 -87 l 194 -87 l 570 -87 l 570 -160 l 194 -160 q 172 -160 152 -155 q 131 -149 115 -137 q 99 -125 89 -108 q 79 -90 79 -65 l 79 -65 q 79 -36 90 -17 q 101 2 118 14 q 136 25 159 30 q 182 35 206 36 q 230 38 254 37 q 278 36 299 36 l 299 36 q 336 36 371 49 q 405 63 432 86 q 458 110 474 142 q 490 175 490 214 l 490 214 q 490 251 476 285 q 461 319 437 345 q 412 371 378 385 q 345 400 307 400 l 307 400 q 244 400 195 373 q 146 345 119 286 l 119 286 l 124 282 q 139 307 164 323 q 188 339 218 339 l 218 339 q 245 339 265 328 q 286 317 300 300 q 314 282 322 259 q 329 235 329 211 l 329 211 q 329 184 321 160 q 312 136 296 119 q 280 101 257 91 q 234 81 206 81 l 206 81 q 176 81 151 92 q 126 104 109 123 q 91 142 82 167 q 72 193 72 223 l 72 223 q 72 273 93 315 q 114 356 148 386 q 183 417 228 433 q 272 450 320 450 l 320 450 q 353 450 384 442 q 415 435 443 420 q 471 406 494 385 q 518 364 534 339 q 551 313 561 283 q 570 252 570 219 z m 263 212 l 263 212 q 263 226 259 240 q 256 255 248 268 q 241 280 229 288 q 217 296 200 296 l 200 296 q 184 296 171 289 q 159 281 150 270 q 142 258 138 243 q 134 228 134 213 l 134 213 q 134 197 138 182 q 142 167 151 156 q 159 144 172 136 q 185 129 202 129 l 202 129 q 218 129 230 137 q 241 145 249 156 q 256 168 259 183 q 263 198 263 212 z"},"ഊ":{"ha":1244,"x_min":77,"x_max":1244,"o":"m 1244 218 l 1244 218 q 1244 189 1238 161 q 1232 132 1220 107 q 1208 82 1188 60 q 1169 38 1143 22 q 1117 6 1083 -3 q 1049 -12 1007 -12 l 1007 -12 q 969 -12 934 -3 q 899 5 873 20 q 846 35 830 55 q 814 76 814 102 l 814 102 l 814 114 l 848 114 l 848 103 q 848 88 859 75 q 871 62 890 51 q 909 41 934 35 q 959 28 986 28 l 986 28 q 1032 28 1065 45 q 1098 62 1119 89 q 1141 116 1151 150 q 1161 185 1161 220 l 1161 220 q 1161 267 1149 300 q 1137 334 1118 356 q 1099 378 1076 388 q 1053 398 1030 398 l 1030 398 q 1015 398 1000 394 q 986 389 976 379 q 965 370 959 356 q 953 343 953 326 l 953 326 l 953 187 l 868 187 l 868 291 q 868 320 862 341 q 855 362 844 375 q 833 389 818 396 q 804 402 788 402 l 788 402 q 768 402 748 392 q 728 382 711 363 q 695 344 685 317 q 675 289 675 254 l 675 254 q 675 245 674 238 q 674 230 674 223 l 674 223 q 674 215 675 208 q 675 200 678 190 l 678 190 l 646 190 q 644 201 643 209 q 642 217 642 226 l 642 226 q 642 234 642 243 q 643 251 643 262 l 643 262 q 643 306 656 340 q 670 375 693 399 q 716 423 746 436 q 775 448 806 448 l 806 448 q 841 448 875 431 q 908 413 932 375 l 932 375 q 959 414 993 432 q 1026 450 1061 450 l 1061 450 q 1096 450 1129 433 q 1162 416 1187 385 q 1213 354 1229 312 q 1244 269 1244 218 z m 570 -160 l 194 -160 q 164 -160 142 -152 q 120 -144 106 -131 q 92 -118 85 -101 q 79 -83 79 -65 l 79 -65 q 79 -47 86 -29 q 93 -11 107 3 q 122 17 143 26 q 165 34 194 34 l 194 34 l 339 34 q 375 34 403 49 q 432 64 451 89 q 470 113 480 145 q 490 177 490 210 l 490 210 q 490 245 479 279 q 467 313 442 340 q 418 367 381 384 q 343 400 292 400 l 292 400 q 262 400 233 393 q 205 386 181 371 q 158 356 141 335 q 125 314 119 286 l 119 286 l 124 282 q 140 308 164 323 q 188 339 218 339 l 218 339 q 244 339 265 328 q 286 317 300 300 q 314 282 322 259 q 329 236 329 212 l 329 212 q 329 187 320 163 q 312 139 296 121 q 280 103 259 91 q 237 80 211 80 l 211 80 q 177 80 152 94 q 127 107 110 130 q 94 153 85 181 q 77 210 77 240 l 77 240 q 77 292 97 332 q 117 371 150 397 q 184 424 227 437 q 270 450 316 450 l 316 450 q 384 450 432 430 q 479 409 510 376 q 540 343 554 300 q 568 258 568 214 l 568 214 q 568 173 557 134 q 545 96 524 66 q 503 36 472 18 q 442 0 404 0 l 404 0 l 194 0 q 178 0 166 -4 q 154 -8 147 -14 q 139 -21 135 -29 q 132 -37 132 -45 l 132 -45 q 132 -53 135 -61 q 139 -68 146 -74 q 153 -80 165 -83 q 177 -87 194 -87 l 194 -87 l 570 -87 l 570 -160 z m 263 215 l 263 215 q 263 229 259 243 q 255 257 247 269 q 239 281 228 288 q 216 296 200 296 l 200 296 q 185 296 174 288 q 163 281 156 269 q 149 257 146 243 q 143 229 143 216 l 143 216 q 143 202 146 186 q 149 171 156 158 q 164 146 175 137 q 187 129 204 129 l 204 129 q 220 129 231 137 q 242 146 249 159 q 256 171 260 187 q 263 202 263 215 z"},"ഋ":{"ha":677,"x_min":79,"x_max":674,"o":"m 674 -32 l 674 -32 q 674 -65 658 -89 q 643 -113 618 -129 q 593 -146 562 -156 q 530 -167 497 -172 q 464 -178 433 -180 q 402 -182 378 -182 l 378 -182 q 354 -182 323 -180 q 291 -178 258 -172 q 225 -167 193 -156 q 161 -146 135 -129 q 110 -113 94 -89 q 79 -65 79 -32 l 79 -32 q 79 -5 89 15 q 98 35 115 49 q 131 63 152 72 q 174 80 198 85 l 198 85 q 167 96 144 114 q 122 131 107 155 q 93 178 86 207 q 79 235 79 268 l 79 268 q 79 300 88 333 q 97 365 115 390 q 134 416 161 432 q 188 448 225 448 l 225 448 q 250 448 272 439 q 293 429 309 413 q 324 396 333 374 q 341 352 341 326 l 341 326 q 341 300 333 277 q 326 253 312 236 q 297 218 276 207 q 254 196 227 196 l 227 196 q 193 196 168 213 q 143 230 126 258 l 126 258 l 126 251 l 126 248 q 125 213 137 188 q 148 164 167 148 q 186 131 211 122 q 236 112 265 108 q 293 103 322 102 q 351 101 378 101 l 378 101 q 405 101 435 102 q 464 104 492 109 q 520 115 545 125 q 570 136 589 153 q 607 171 618 196 q 629 222 629 258 l 629 258 q 612 230 586 213 q 560 196 526 196 l 526 196 q 499 196 478 207 q 457 218 442 236 q 427 253 420 277 q 412 300 412 326 l 412 326 q 412 352 420 374 q 429 396 444 413 q 459 429 481 439 q 502 448 528 448 l 528 448 q 565 448 592 432 q 620 416 638 390 q 656 365 665 333 q 674 300 674 268 l 674 268 q 674 235 667 207 q 660 179 646 155 q 631 132 608 115 q 585 97 554 87 l 554 87 q 578 82 600 73 q 622 64 638 50 q 654 35 664 15 q 674 -5 674 -32 z m 601 322 l 601 322 q 601 336 596 351 q 592 366 583 378 q 575 391 563 398 q 550 406 534 406 l 534 406 q 519 406 508 398 q 498 391 491 379 q 484 367 481 353 q 478 339 478 326 l 478 326 q 478 311 480 295 q 482 279 489 266 q 496 254 508 246 q 521 238 540 238 l 540 238 q 556 238 568 246 q 579 254 586 267 q 594 279 597 294 q 601 309 601 322 z m 274 326 l 274 326 q 274 339 271 353 q 268 367 261 379 q 255 391 244 398 q 233 406 218 406 l 218 406 q 202 406 190 398 q 178 391 170 378 q 161 366 157 351 q 152 336 152 322 l 152 322 q 152 309 156 294 q 160 279 167 267 q 174 254 186 246 q 198 238 214 238 l 214 238 q 233 238 245 246 q 256 254 263 266 q 270 279 272 295 q 274 311 274 326 z m 597 -33 l 597 -33 q 597 -12 585 4 q 573 20 554 31 q 535 42 511 49 q 487 56 462 60 q 438 63 416 65 q 394 66 378 66 l 378 66 q 362 66 340 65 q 317 64 292 60 q 268 56 243 50 q 219 43 199 32 q 180 21 168 5 q 156 -11 156 -33 l 156 -33 q 156 -56 168 -72 q 180 -88 199 -100 q 219 -111 243 -119 q 268 -126 292 -130 q 317 -135 339 -136 q 362 -138 378 -138 l 378 -138 q 394 -138 417 -136 q 439 -134 463 -130 q 488 -126 511 -118 q 535 -111 554 -99 q 573 -88 585 -72 q 597 -55 597 -33 z"},"ഌ":{"ha":898,"x_min":82,"x_max":895,"o":"m 895 180 l 895 180 q 895 146 885 112 q 875 78 856 51 q 837 24 808 7 q 780 -10 742 -10 l 742 -10 q 708 -10 681 8 q 655 25 637 52 q 620 80 611 112 q 602 145 602 175 l 602 175 q 602 205 610 234 q 618 263 632 290 q 646 317 666 341 q 685 365 708 383 l 708 383 q 690 393 670 397 q 650 400 630 400 l 630 400 q 611 400 591 396 q 571 391 555 381 q 538 371 527 355 q 517 340 517 318 l 517 318 l 517 0 l 434 0 l 434 276 q 434 296 429 318 q 424 339 414 358 q 404 376 387 388 q 371 400 347 400 l 347 400 q 327 400 306 397 q 286 393 269 383 l 269 383 q 292 365 312 341 q 331 317 345 290 q 359 263 367 234 q 375 205 375 175 l 375 175 q 375 145 366 112 q 357 80 339 52 q 322 25 295 8 q 269 -10 234 -10 l 234 -10 q 197 -10 168 7 q 140 24 121 51 q 102 78 92 112 q 82 146 82 180 l 82 180 q 82 231 99 279 q 116 327 148 364 q 179 401 224 424 q 268 446 322 446 l 322 446 q 369 446 408 428 q 448 410 478 376 l 478 376 q 513 412 558 429 q 604 446 654 446 l 654 446 q 708 446 753 424 q 797 401 828 364 q 860 327 877 279 q 895 231 895 180 z m 822 181 l 822 181 q 822 236 801 282 q 779 328 736 362 l 736 362 q 714 345 696 324 q 677 304 663 280 q 649 256 642 230 q 634 203 634 174 l 634 174 q 634 153 640 132 q 646 110 658 92 q 670 75 688 63 q 706 52 729 52 l 729 52 q 753 52 771 64 q 789 77 800 96 q 812 115 817 137 q 822 160 822 181 z m 343 174 l 343 174 q 343 203 335 230 q 327 256 313 280 q 300 304 281 324 q 262 345 240 362 l 240 362 q 198 328 176 282 q 154 236 154 181 l 154 181 q 154 160 160 137 q 165 114 176 95 q 188 76 205 64 q 223 52 248 52 l 248 52 q 271 52 289 63 q 307 75 319 93 q 331 110 337 132 q 343 154 343 174 z"},"഍":{"ha":1000,"x_min":72,"x_max":668,"o":"m 668 221 l 668 221 q 668 180 657 141 q 646 103 627 70 q 608 37 581 10 q 554 -17 521 -37 q 488 -56 450 -67 q 412 -77 371 -77 l 371 -77 q 309 -77 255 -54 q 200 -31 160 10 q 119 50 96 104 q 72 158 72 220 l 72 220 q 72 282 96 336 q 119 390 160 430 q 200 471 254 494 q 309 518 370 518 l 370 518 q 432 518 486 494 q 540 471 581 430 q 621 390 645 336 q 668 282 668 221 z m 636 219 l 636 219 q 636 275 615 324 q 593 373 557 410 q 520 446 471 467 q 422 488 366 488 l 366 488 q 311 488 261 467 q 212 446 176 410 q 139 373 118 324 q 97 275 97 219 l 97 219 q 97 163 118 114 q 139 64 176 28 q 212 -9 261 -30 q 311 -52 366 -52 l 366 -52 q 422 -52 471 -30 q 520 -9 557 28 q 593 64 615 114 q 636 163 636 219 z m 526 68 l 455 -3 q 447 9 444 22 q 440 36 438 50 q 435 64 431 77 q 427 90 416 101 l 416 101 q 409 108 404 116 q 398 124 394 132 q 389 140 383 148 q 377 156 369 165 l 369 165 q 362 170 356 175 q 351 180 344 183 l 344 183 q 335 183 328 183 q 320 184 312 184 l 312 184 q 311 163 311 143 q 311 124 311 104 l 311 104 l 236 30 q 236 107 240 184 q 244 262 248 334 l 248 334 l 276 362 q 265 362 253 361 q 242 360 232 358 l 232 358 l 307 434 q 327 437 355 437 q 383 437 412 432 q 441 428 467 419 q 492 410 507 395 l 507 395 q 516 386 520 369 q 523 351 523 332 q 523 313 519 296 q 515 279 509 272 l 509 272 l 455 218 q 465 205 471 193 q 478 181 490 169 l 490 169 q 501 158 505 145 q 509 131 511 118 q 514 104 516 92 q 519 79 526 68 l 526 68 z m 448 258 l 448 258 q 450 278 447 297 q 444 315 436 324 l 436 324 q 427 333 415 339 q 402 346 387 350 q 372 354 354 357 q 337 359 320 360 l 320 360 q 317 321 316 280 q 314 240 312 200 l 312 200 l 370 258 q 380 263 391 262 q 401 261 411 257 l 411 257 q 420 257 430 257 q 439 257 448 258 z"},"എ":{"ha":1009,"x_min":78,"x_max":1006,"o":"m 1006 135 l 1006 135 q 1006 85 998 39 q 990 -7 972 -49 q 954 -91 925 -127 q 895 -164 852 -194 l 852 -194 l 802 -174 q 837 -144 861 -110 q 884 -76 898 -39 q 912 -2 917 38 q 923 78 923 120 l 923 120 q 923 188 907 239 q 891 290 865 324 q 839 359 805 376 q 772 394 736 394 l 736 394 q 699 394 662 375 q 626 355 597 317 q 569 278 552 219 q 534 161 534 83 l 534 83 l 534 34 l 677 34 l 677 324 l 760 324 l 760 -70 q 760 -96 752 -118 q 744 -141 729 -157 q 714 -174 693 -184 q 671 -194 645 -194 l 645 -194 q 618 -194 598 -186 q 577 -178 561 -164 q 545 -150 534 -132 q 523 -113 516 -91 q 509 -70 505 -46 q 502 -23 502 0 l 502 0 l 260 0 l 260 7 q 293 27 313 59 q 332 91 332 131 l 332 131 q 332 156 323 176 q 315 195 301 208 q 287 221 268 228 q 250 234 230 234 l 230 234 q 210 234 190 227 q 170 219 154 204 q 139 188 129 164 q 119 141 119 108 l 119 108 q 119 93 122 79 q 125 65 132 52 q 138 40 147 30 q 156 21 168 15 l 168 15 l 138 -10 q 123 1 112 17 q 101 32 93 50 q 86 68 82 87 q 78 107 78 127 l 78 127 q 78 170 92 202 q 106 234 130 255 q 153 276 183 287 q 213 297 245 297 l 245 297 q 277 297 307 286 q 338 276 362 255 q 386 235 400 204 q 415 174 415 134 l 415 134 q 415 106 406 80 q 396 54 379 34 l 379 34 l 502 34 l 502 82 q 502 177 524 247 q 545 316 581 361 q 616 407 662 428 q 707 450 755 450 l 755 450 q 802 450 847 429 q 893 409 928 368 q 963 328 984 269 q 1006 210 1006 135 z m 677 -62 l 677 0 l 534 0 q 534 -19 538 -42 q 542 -64 552 -84 q 561 -104 576 -118 q 591 -132 614 -132 l 614 -132 q 629 -132 641 -126 q 652 -120 660 -110 q 668 -101 673 -88 q 677 -75 677 -62 l 677 -62 z"},"ഏ":{"ha":1005,"x_min":78,"x_max":1008,"o":"m 1008 -20 l 1008 -20 q 1008 -52 999 -83 q 991 -114 974 -138 q 957 -163 932 -177 q 907 -192 873 -192 l 873 -192 q 859 -192 847 -189 q 834 -186 820 -178 l 820 -178 l 810 -115 q 821 -124 832 -127 q 842 -131 854 -131 l 854 -131 q 870 -131 882 -122 q 894 -113 901 -99 q 909 -84 913 -65 q 917 -46 917 -25 l 917 -25 q 917 -1 911 23 q 906 48 894 67 q 883 86 866 98 q 849 110 826 110 l 826 110 l 807 110 l 807 154 l 826 154 q 843 154 855 162 q 868 169 877 181 q 886 194 890 210 q 895 227 895 245 l 895 245 q 895 270 885 296 q 876 322 858 343 q 839 364 810 377 q 780 391 740 391 l 740 391 q 704 391 667 374 q 630 357 601 320 q 571 282 553 222 q 534 163 534 77 l 534 77 l 534 34 l 677 34 l 677 324 l 760 324 l 760 -70 q 760 -99 750 -122 q 741 -144 725 -159 q 709 -175 689 -183 q 668 -190 646 -190 l 646 -190 q 621 -190 595 -179 q 569 -168 548 -145 q 528 -121 515 -85 q 502 -49 502 0 l 502 0 l 260 0 l 260 7 q 293 27 313 59 q 332 91 332 131 l 332 131 q 332 156 323 176 q 315 195 301 208 q 287 221 268 228 q 250 234 230 234 l 230 234 q 210 234 190 227 q 170 219 154 204 q 139 188 129 164 q 119 141 119 108 l 119 108 q 119 93 122 79 q 125 65 132 52 q 138 40 147 30 q 156 21 168 15 l 168 15 l 138 -10 q 123 1 112 17 q 101 32 93 50 q 86 68 82 87 q 78 107 78 127 l 78 127 q 78 170 92 202 q 106 234 130 255 q 153 276 183 287 q 213 297 245 297 l 245 297 q 277 297 307 286 q 338 276 362 255 q 386 235 400 204 q 415 174 415 134 l 415 134 q 415 106 406 80 q 396 54 379 34 l 379 34 l 502 34 l 502 82 q 502 148 512 201 q 523 253 541 294 q 559 334 584 363 q 609 392 638 410 q 667 429 698 438 q 729 446 761 446 l 761 446 q 813 446 854 428 q 896 410 926 381 q 956 353 972 317 q 988 281 988 247 l 988 247 q 988 212 971 182 q 954 152 916 134 l 916 134 q 938 128 956 113 q 973 98 985 77 q 996 57 1002 31 q 1008 6 1008 -20 z m 677 -62 l 677 0 l 534 0 q 534 -20 538 -43 q 542 -66 552 -86 q 561 -106 576 -119 q 591 -132 614 -132 l 614 -132 q 629 -132 641 -126 q 652 -120 660 -110 q 668 -101 673 -88 q 677 -75 677 -62 l 677 -62 z"},"ഐ":{"ha":1539,"x_min":76,"x_max":1539,"o":"m 1539 135 l 1539 135 q 1539 85 1531 39 q 1523 -7 1505 -49 q 1487 -91 1457 -127 q 1427 -164 1384 -194 l 1384 -194 l 1334 -174 q 1370 -144 1393 -110 q 1417 -76 1430 -39 q 1444 -2 1450 38 q 1456 78 1456 120 l 1456 120 q 1456 188 1440 239 q 1424 290 1397 324 q 1371 359 1337 376 q 1303 394 1268 394 l 1268 394 q 1230 394 1195 375 q 1159 355 1130 317 q 1102 278 1084 219 q 1066 161 1066 83 l 1066 83 l 1066 34 l 1209 34 l 1209 324 l 1292 324 l 1292 -70 q 1292 -96 1284 -118 q 1276 -141 1261 -157 q 1247 -174 1225 -184 q 1204 -194 1177 -194 l 1177 -194 q 1151 -194 1130 -186 q 1109 -178 1094 -164 q 1078 -150 1066 -132 q 1055 -113 1048 -91 q 1041 -70 1038 -46 q 1034 -23 1034 0 l 1034 0 l 792 0 l 792 7 q 826 27 845 59 q 864 91 864 131 l 864 131 q 864 156 856 176 q 847 195 833 208 q 819 221 801 228 q 783 234 764 234 l 764 234 q 743 234 723 227 q 703 219 688 204 q 672 188 662 164 q 652 141 652 108 l 652 108 q 652 93 655 79 q 658 65 664 52 q 670 40 679 30 q 688 21 700 15 l 700 15 l 670 -10 q 656 1 645 17 q 633 32 626 50 q 618 68 614 87 q 610 107 610 127 l 610 127 q 610 170 625 202 q 639 234 663 255 q 686 276 716 287 q 746 297 776 297 l 776 297 q 809 297 839 286 q 870 276 894 255 q 917 235 932 204 q 946 174 946 134 l 946 134 q 946 106 938 80 q 929 54 911 34 l 911 34 l 1034 34 l 1034 82 q 1034 177 1056 247 q 1078 316 1113 361 q 1149 407 1194 428 q 1240 450 1287 450 l 1287 450 q 1334 450 1380 429 q 1425 409 1460 368 q 1496 328 1517 269 q 1539 210 1539 135 z m 540 208 l 540 208 q 540 176 533 145 q 526 114 511 86 q 496 57 473 32 q 450 7 419 -12 l 419 -12 l 370 11 q 394 29 411 50 q 427 71 438 95 q 448 119 452 144 q 457 170 457 196 l 457 196 q 457 245 443 283 q 428 320 405 345 q 381 371 351 384 q 321 396 289 396 l 289 396 q 258 396 229 384 q 199 372 174 347 q 149 322 132 283 q 114 245 108 192 l 108 192 l 112 190 q 135 228 162 245 q 189 262 217 262 l 217 262 q 245 262 267 249 q 289 236 303 216 q 318 195 326 169 q 334 143 334 116 l 334 116 q 334 92 327 69 q 320 46 306 28 q 292 10 270 -1 q 249 -12 219 -12 l 219 -12 q 184 -12 157 4 q 130 20 112 47 q 94 74 85 109 q 76 144 76 182 l 76 182 q 76 250 96 300 q 117 350 150 384 q 183 417 226 434 q 268 450 313 450 l 313 450 q 355 450 396 435 q 437 419 469 389 q 501 359 521 313 q 540 268 540 208 z m 1209 -62 l 1209 0 l 1066 0 q 1066 -19 1070 -42 q 1074 -64 1084 -84 q 1093 -104 1108 -118 q 1124 -132 1146 -132 l 1146 -132 q 1162 -132 1174 -126 q 1186 -120 1193 -110 q 1201 -101 1205 -88 q 1209 -75 1209 -62 l 1209 -62 z m 269 128 l 269 128 q 269 144 264 159 q 260 174 251 186 q 242 198 229 206 q 216 213 198 213 l 198 213 q 180 213 167 206 q 153 199 144 187 q 135 176 131 161 q 126 146 126 131 l 126 131 q 126 115 131 100 q 135 85 145 73 q 154 62 168 54 q 182 47 200 47 l 200 47 q 218 47 231 54 q 244 61 252 72 q 260 83 264 98 q 269 112 269 128 z"},"഑":{"ha":1000,"x_min":72,"x_max":668,"o":"m 668 221 l 668 221 q 668 180 657 141 q 646 103 627 70 q 608 37 581 10 q 554 -17 521 -37 q 488 -56 450 -67 q 412 -77 371 -77 l 371 -77 q 309 -77 255 -54 q 200 -31 160 10 q 119 50 96 104 q 72 158 72 220 l 72 220 q 72 282 96 336 q 119 390 160 430 q 200 471 254 494 q 309 518 370 518 l 370 518 q 432 518 486 494 q 540 471 581 430 q 621 390 645 336 q 668 282 668 221 z m 636 219 l 636 219 q 636 275 615 324 q 593 373 557 410 q 520 446 471 467 q 422 488 366 488 l 366 488 q 311 488 261 467 q 212 446 176 410 q 139 373 118 324 q 97 275 97 219 l 97 219 q 97 163 118 114 q 139 64 176 28 q 212 -9 261 -30 q 311 -52 366 -52 l 366 -52 q 422 -52 471 -30 q 520 -9 557 28 q 593 64 615 114 q 636 163 636 219 z m 526 68 l 455 -3 q 447 9 444 22 q 440 36 438 50 q 435 64 431 77 q 427 90 416 101 l 416 101 q 409 108 404 116 q 398 124 394 132 q 389 140 383 148 q 377 156 369 165 l 369 165 q 362 170 356 175 q 351 180 344 183 l 344 183 q 335 183 328 183 q 320 184 312 184 l 312 184 q 311 163 311 143 q 311 124 311 104 l 311 104 l 236 30 q 236 107 240 184 q 244 262 248 334 l 248 334 l 276 362 q 265 362 253 361 q 242 360 232 358 l 232 358 l 307 434 q 327 437 355 437 q 383 437 412 432 q 441 428 467 419 q 492 410 507 395 l 507 395 q 516 386 520 369 q 523 351 523 332 q 523 313 519 296 q 515 279 509 272 l 509 272 l 455 218 q 465 205 471 193 q 478 181 490 169 l 490 169 q 501 158 505 145 q 509 131 511 118 q 514 104 516 92 q 519 79 526 68 l 526 68 z m 448 258 l 448 258 q 450 278 447 297 q 444 315 436 324 l 436 324 q 427 333 415 339 q 402 346 387 350 q 372 354 354 357 q 337 359 320 360 l 320 360 q 317 321 316 280 q 314 240 312 200 l 312 200 l 370 258 q 380 263 391 262 q 401 261 411 257 l 411 257 q 420 257 430 257 q 439 257 448 258 z"},"ഒ":{"ha":586,"x_min":78,"x_max":586,"o":"m 586 112 l 586 112 q 586 82 574 59 q 562 37 542 21 q 523 6 498 -2 q 473 -10 446 -10 l 446 -10 q 431 -10 417 -9 q 403 -7 388 0 l 388 0 l 375 60 q 387 47 402 43 q 417 39 431 39 l 431 39 q 444 39 457 44 q 470 48 480 57 q 490 66 496 79 q 502 92 502 108 l 502 108 q 502 125 497 143 q 492 160 481 173 q 471 187 454 196 q 438 204 415 204 l 415 204 l 375 204 l 375 244 l 415 244 q 429 244 440 249 q 451 254 459 263 q 466 272 470 283 q 475 294 475 307 l 475 307 q 475 329 462 347 q 449 366 429 379 q 410 392 385 399 q 360 406 336 406 l 336 406 q 291 406 253 394 q 214 382 186 356 q 157 330 138 289 q 120 249 114 192 l 114 192 l 116 190 q 139 228 167 244 q 196 261 224 261 l 224 261 q 252 261 273 249 q 295 237 310 217 q 324 197 332 172 q 339 147 339 121 l 339 121 q 339 96 332 72 q 324 48 310 30 q 295 11 272 0 q 250 -12 219 -12 l 219 -12 q 187 -12 161 5 q 135 21 117 49 q 99 77 88 113 q 78 149 78 188 l 78 188 q 78 258 101 307 q 124 357 162 389 q 201 420 251 435 q 302 450 358 450 l 358 450 q 396 450 434 440 q 473 430 504 411 q 535 393 554 367 q 574 342 574 311 l 574 311 q 574 288 558 266 q 542 244 506 225 l 506 225 q 524 218 539 207 q 554 195 564 181 q 575 166 580 148 q 586 131 586 112 z m 274 130 l 274 130 q 274 145 270 160 q 265 175 256 187 q 248 198 234 206 q 221 213 203 213 l 203 213 q 189 213 177 208 q 164 202 153 192 q 143 182 137 167 q 131 151 131 132 l 131 132 q 131 109 137 93 q 143 77 152 67 q 162 57 175 52 q 187 47 200 47 l 200 47 q 219 47 233 54 q 247 61 256 73 q 265 84 270 99 q 274 114 274 130 z"},"ഓ":{"ha":982,"x_min":78,"x_max":982,"o":"m 982 217 l 982 217 q 982 191 978 164 q 974 137 965 111 q 956 86 942 63 q 928 41 909 24 q 890 8 865 -2 q 840 -12 810 -12 l 810 -12 q 779 -12 752 1 q 725 14 704 36 q 684 58 671 87 q 659 116 658 148 l 658 148 l 690 148 q 692 128 700 110 q 708 92 721 78 q 733 64 750 56 q 766 48 784 48 l 784 48 q 807 48 824 57 q 842 65 855 80 q 868 95 877 114 q 886 133 892 153 q 897 174 900 194 q 902 215 902 232 l 902 232 q 902 249 900 267 q 898 286 893 305 q 888 324 880 342 q 872 359 860 373 q 848 386 832 394 q 816 402 796 402 l 796 402 q 774 402 755 393 q 735 383 721 367 q 706 351 697 330 q 688 310 688 287 l 688 287 q 688 283 689 280 q 689 277 690 272 l 690 272 l 658 272 l 658 282 q 658 315 669 345 q 679 375 698 399 q 718 422 745 436 q 772 450 807 450 l 807 450 q 837 450 862 440 q 887 430 907 413 q 926 396 941 373 q 955 350 964 324 q 974 298 978 271 q 982 243 982 217 z m 586 112 l 586 112 q 586 82 574 59 q 562 37 542 21 q 523 6 498 -2 q 473 -10 446 -10 l 446 -10 q 431 -10 417 -9 q 403 -7 388 0 l 388 0 l 375 60 q 387 47 402 43 q 417 39 431 39 l 431 39 q 444 39 457 44 q 470 48 480 57 q 490 66 496 79 q 502 92 502 108 l 502 108 q 502 125 497 143 q 492 160 481 173 q 471 187 454 196 q 438 204 415 204 l 415 204 l 375 204 l 375 244 l 415 244 q 429 244 440 249 q 451 254 459 263 q 466 272 470 283 q 475 294 475 307 l 475 307 q 475 329 462 347 q 449 366 429 379 q 410 392 385 399 q 360 406 336 406 l 336 406 q 291 406 253 394 q 214 382 186 356 q 157 330 138 289 q 120 249 114 192 l 114 192 l 116 190 q 139 228 167 244 q 196 261 224 261 l 224 261 q 252 261 273 249 q 295 237 310 217 q 324 197 332 172 q 339 147 339 121 l 339 121 q 339 96 332 72 q 324 48 310 30 q 295 11 272 0 q 250 -12 219 -12 l 219 -12 q 187 -12 161 5 q 135 21 117 49 q 99 77 88 113 q 78 149 78 188 l 78 188 q 78 258 101 307 q 124 357 162 389 q 201 420 251 435 q 302 450 358 450 l 358 450 q 396 450 434 440 q 473 430 504 411 q 535 393 554 367 q 574 342 574 311 l 574 311 q 574 288 558 266 q 542 244 506 225 l 506 225 q 524 218 539 207 q 554 195 564 181 q 575 166 580 148 q 586 131 586 112 z m 274 130 l 274 130 q 274 145 270 160 q 265 175 256 187 q 248 198 234 206 q 221 213 203 213 l 203 213 q 189 213 177 208 q 164 202 153 192 q 143 182 137 167 q 131 151 131 132 l 131 132 q 131 109 137 93 q 143 77 152 67 q 162 57 175 52 q 187 47 200 47 l 200 47 q 219 47 233 54 q 247 61 256 73 q 265 84 270 99 q 274 114 274 130 z"},"ഔ":{"ha":1255,"x_min":78,"x_max":1253,"o":"m 1253 218 l 1253 218 q 1253 174 1240 133 q 1226 92 1198 60 q 1169 27 1124 8 q 1079 -12 1016 -12 l 1016 -12 q 979 -12 944 -3 q 910 5 883 20 q 856 35 840 55 q 824 76 824 102 l 824 102 l 824 114 l 856 114 l 856 103 q 856 88 868 75 q 880 62 899 51 q 918 41 944 35 q 969 28 996 28 l 996 28 q 1042 28 1075 45 q 1108 62 1129 89 q 1150 116 1161 150 q 1171 185 1171 220 l 1171 220 q 1171 267 1159 300 q 1147 334 1128 356 q 1109 378 1086 388 q 1063 398 1040 398 l 1040 398 q 1024 398 1010 394 q 996 389 985 379 q 975 370 968 356 q 962 343 962 326 l 962 326 l 962 187 l 878 187 l 878 291 q 878 320 871 341 q 865 362 854 375 q 842 389 828 396 q 813 402 797 402 l 797 402 q 777 402 757 392 q 737 382 721 363 q 705 344 695 317 q 685 289 685 254 l 685 254 q 685 245 684 238 q 684 230 684 223 l 684 223 q 684 215 685 208 q 686 200 688 190 l 688 190 l 656 190 q 653 201 653 209 q 652 217 652 226 l 652 226 l 652 262 q 652 306 667 340 q 681 375 704 399 q 727 423 756 436 q 786 448 816 448 l 816 448 q 851 448 884 431 q 916 413 940 375 l 940 375 q 969 414 1002 432 q 1036 450 1070 450 l 1070 450 q 1105 450 1138 433 q 1171 416 1197 385 q 1222 354 1238 312 q 1253 269 1253 218 z m 586 112 l 586 112 q 586 82 574 59 q 562 37 542 21 q 523 6 498 -2 q 473 -10 446 -10 l 446 -10 q 431 -10 417 -9 q 403 -7 388 0 l 388 0 l 375 60 q 387 47 402 43 q 417 39 431 39 l 431 39 q 444 39 457 44 q 470 48 480 57 q 490 66 496 79 q 502 92 502 108 l 502 108 q 502 125 497 143 q 492 160 481 173 q 471 187 454 196 q 438 204 415 204 l 415 204 l 375 204 l 375 244 l 415 244 q 429 244 440 249 q 451 254 459 263 q 466 272 470 283 q 475 294 475 307 l 475 307 q 475 329 462 347 q 449 366 429 379 q 410 392 385 399 q 360 406 336 406 l 336 406 q 291 406 253 394 q 214 382 186 356 q 157 330 138 289 q 120 249 114 192 l 114 192 l 116 190 q 139 228 167 244 q 196 261 224 261 l 224 261 q 252 261 273 249 q 295 237 310 217 q 324 197 332 172 q 339 147 339 121 l 339 121 q 339 96 332 72 q 324 48 310 30 q 295 11 272 0 q 250 -12 219 -12 l 219 -12 q 187 -12 161 5 q 135 21 117 49 q 99 77 88 113 q 78 149 78 188 l 78 188 q 78 258 101 307 q 124 357 162 389 q 201 420 251 435 q 302 450 358 450 l 358 450 q 396 450 434 440 q 473 430 504 411 q 535 393 554 367 q 574 342 574 311 l 574 311 q 574 288 558 266 q 542 244 506 225 l 506 225 q 524 218 539 207 q 554 195 564 181 q 575 166 580 148 q 586 131 586 112 z m 274 130 l 274 130 q 274 145 270 160 q 265 175 256 187 q 248 198 234 206 q 221 213 203 213 l 203 213 q 189 213 177 208 q 164 202 153 192 q 143 182 137 167 q 131 151 131 132 l 131 132 q 131 109 137 93 q 143 77 152 67 q 162 57 175 52 q 187 47 200 47 l 200 47 q 219 47 233 54 q 247 61 256 73 q 265 84 270 99 q 274 114 274 130 z"},"ക":{"ha":776,"x_min":74,"x_max":776,"o":"m 776 118 l 776 118 q 776 93 768 70 q 760 47 745 29 q 729 12 708 1 q 687 -10 660 -10 l 660 -10 q 643 -10 626 -5 q 610 -1 597 9 l 597 9 l 592 56 q 600 50 611 45 q 622 40 632 40 l 632 40 q 650 40 664 48 q 677 56 686 68 q 695 81 700 97 q 704 113 704 130 l 704 130 q 704 162 695 180 q 687 198 671 207 q 655 216 633 218 q 611 220 585 220 l 585 220 l 578 220 q 578 196 575 170 q 572 144 564 119 q 557 93 545 70 q 533 46 516 29 q 499 11 476 1 q 454 -10 425 -10 l 425 -10 q 383 -10 353 11 q 322 32 304 70 l 304 70 q 297 55 288 40 q 279 25 267 14 q 255 3 240 -3 q 225 -10 206 -10 l 206 -10 q 176 -10 152 2 q 127 14 110 33 q 93 53 83 79 q 74 105 74 134 l 74 134 q 74 176 88 200 q 103 225 126 237 q 149 249 180 252 q 210 255 242 255 l 242 255 l 278 255 q 278 287 286 321 q 294 355 311 384 q 328 412 355 430 q 382 448 420 448 l 420 448 q 459 448 487 430 q 515 413 533 385 q 552 357 562 323 q 571 288 574 255 l 574 255 l 641 255 q 672 255 697 245 q 722 235 740 217 q 757 199 767 174 q 776 149 776 118 z m 506 255 l 506 255 q 506 277 500 302 q 494 326 482 346 q 469 366 450 379 q 432 393 406 393 l 406 393 q 379 393 361 379 q 343 366 332 345 q 320 325 315 301 q 311 276 311 255 l 311 255 l 506 255 z m 506 220 l 311 220 q 310 210 310 201 q 310 191 310 182 l 310 182 q 310 160 314 135 q 319 110 331 89 q 342 68 360 53 q 378 39 404 39 l 404 39 q 426 39 442 48 q 458 57 470 71 q 481 86 488 105 q 495 124 499 144 q 503 164 504 184 q 506 203 506 220 l 506 220 z m 278 135 l 278 220 l 245 220 q 225 220 207 216 q 188 212 175 202 q 162 193 154 177 q 146 162 146 140 l 146 140 q 146 125 150 107 q 154 89 163 74 q 171 59 184 49 q 197 39 216 39 l 216 39 q 235 39 248 48 q 260 57 267 71 q 273 84 276 102 q 278 119 278 135 l 278 135 z"},"ഖ":{"ha":799,"x_min":77,"x_max":798,"o":"m 798 0 l 358 0 l 358 22 q 385 41 404 63 q 423 86 435 111 q 448 135 454 161 q 460 187 460 212 l 460 212 q 460 255 446 290 q 431 324 407 348 q 383 372 353 384 q 322 396 289 396 l 289 396 q 259 396 229 385 q 199 373 174 348 q 149 323 132 284 q 114 246 108 192 l 108 192 l 112 190 q 135 228 162 245 q 189 262 217 262 l 217 262 q 245 262 267 250 q 289 237 303 217 q 318 197 326 172 q 334 146 334 119 l 334 119 q 334 94 327 71 q 320 47 305 29 q 291 10 268 -1 q 245 -12 214 -12 l 214 -12 q 179 -12 154 3 q 128 18 111 43 q 94 69 86 102 q 77 136 77 173 l 77 173 q 77 245 97 298 q 117 350 150 384 q 183 418 225 434 q 267 450 311 450 l 311 450 q 354 450 396 435 q 438 420 470 392 q 502 364 522 323 q 542 281 542 229 l 542 229 q 542 180 521 129 q 500 79 456 34 l 456 34 l 715 34 l 715 440 l 798 440 l 798 0 z m 269 130 l 269 130 q 269 145 264 160 q 260 175 251 187 q 242 198 229 206 q 216 213 198 213 l 198 213 q 185 213 172 208 q 159 202 148 192 q 138 182 132 167 q 126 151 126 132 l 126 132 q 126 109 132 93 q 138 77 147 67 q 157 57 169 52 q 182 47 194 47 l 194 47 q 213 47 227 54 q 241 61 250 73 q 260 84 264 99 q 269 114 269 130 z"},"ഗ":{"ha":692,"x_min":77,"x_max":688,"o":"m 688 234 l 688 234 q 688 198 680 161 q 672 125 655 92 q 638 59 611 32 q 583 5 546 -12 l 546 -12 l 524 13 q 555 26 578 48 q 600 70 615 96 q 629 123 636 152 q 644 182 644 211 l 644 211 q 644 245 635 277 q 626 310 610 334 q 593 359 569 374 q 545 389 516 389 l 516 389 q 497 389 479 379 q 462 370 448 350 q 435 331 427 300 q 419 269 419 225 l 419 225 l 419 223 l 419 217 l 420 150 q 420 111 407 82 q 394 52 372 31 q 350 11 322 1 q 293 -10 263 -10 l 263 -10 q 215 -10 180 10 q 145 29 122 61 q 99 92 88 133 q 77 173 77 216 l 77 216 q 77 255 84 289 q 90 323 105 353 q 120 382 143 406 q 167 430 200 448 l 200 448 l 223 423 q 195 407 176 389 q 157 370 145 347 q 132 325 127 296 q 121 268 121 232 l 121 232 q 121 198 129 165 q 137 132 154 107 q 170 81 195 65 q 220 50 254 50 l 254 50 q 272 50 289 57 q 306 65 319 81 q 332 97 340 121 q 347 146 347 181 l 347 181 l 347 183 l 347 264 q 347 308 361 342 q 375 376 399 399 q 423 422 453 434 q 484 446 516 446 l 516 446 q 559 446 591 429 q 624 411 645 382 q 667 353 678 314 q 688 276 688 234 z"},"ഘ":{"ha":1096,"x_min":76,"x_max":1095,"o":"m 1095 0 l 475 0 l 475 161 l 236 161 l 236 168 q 270 188 290 217 q 310 245 310 284 l 310 284 q 310 309 302 328 q 293 347 280 360 q 267 373 250 380 q 233 387 215 387 l 215 387 q 197 387 180 379 q 163 372 150 357 q 137 342 128 320 q 120 297 120 266 l 120 266 q 120 237 130 216 q 141 194 164 177 l 164 177 l 135 150 q 101 178 89 213 q 76 248 76 288 l 76 288 q 76 329 89 359 q 103 389 124 409 q 146 429 173 438 q 201 448 230 448 l 230 448 q 260 448 290 438 q 319 428 342 407 q 364 387 378 356 q 393 326 393 286 l 393 286 q 393 261 383 237 q 374 213 356 194 l 356 194 l 475 194 l 475 249 q 475 295 491 332 q 507 370 536 396 q 564 422 602 436 q 639 450 682 450 l 682 450 q 731 450 770 435 q 808 419 834 386 q 860 354 874 302 q 887 251 888 179 l 888 179 l 888 162 l 888 161 l 558 161 l 558 34 l 1012 34 l 1012 440 l 1095 440 l 1095 0 z m 849 198 l 849 215 q 848 265 839 301 q 830 337 812 360 q 794 383 768 394 q 742 404 708 404 l 708 404 q 676 404 649 394 q 621 383 601 363 q 581 342 569 313 q 558 285 558 249 l 558 249 l 558 194 l 849 194 l 849 196 l 849 198 z"},"ങ":{"ha":810,"x_min":76,"x_max":811,"o":"m 811 119 l 811 119 q 811 86 796 61 q 781 37 758 21 q 734 4 704 -4 q 674 -12 645 -12 l 645 -12 q 626 -12 610 -10 q 593 -7 574 0 l 574 0 l 561 58 q 580 42 600 38 q 621 34 643 34 l 643 34 q 660 34 675 39 q 690 43 702 52 q 714 62 721 77 q 728 93 728 114 l 728 114 q 728 131 718 146 q 709 162 694 173 q 679 184 660 190 q 641 196 621 196 l 621 196 l 598 196 l 582 196 l 582 240 l 618 240 q 644 240 663 247 q 682 253 694 264 q 707 275 713 289 q 719 302 719 316 l 719 316 q 719 337 710 353 q 701 369 687 379 q 672 389 653 394 q 634 398 614 398 l 614 398 q 594 398 574 393 q 554 388 538 378 q 522 368 513 354 q 503 339 503 320 l 503 320 l 503 0 l 420 0 l 420 300 q 420 320 409 337 q 397 354 379 367 q 361 379 338 386 q 315 394 293 394 l 293 394 q 253 394 221 383 q 189 372 166 348 q 143 324 128 285 q 114 247 108 192 l 108 192 l 112 190 q 135 228 163 244 q 191 261 220 261 l 220 261 q 248 261 269 249 q 290 237 305 218 q 319 199 327 174 q 334 149 334 124 l 334 124 q 334 98 326 74 q 319 49 303 30 q 288 11 265 0 q 241 -12 209 -12 l 209 -12 q 177 -12 152 3 q 127 18 110 43 q 93 69 85 102 q 76 136 76 173 l 76 173 q 76 242 95 294 q 115 346 149 380 q 183 415 230 433 q 277 450 332 450 l 332 450 q 382 450 421 430 q 459 411 482 371 l 482 371 q 495 391 511 405 q 528 420 548 429 q 568 439 590 444 q 611 448 634 448 l 634 448 q 666 448 696 439 q 727 430 750 413 q 774 396 788 372 q 803 348 803 318 l 803 318 q 803 292 788 269 q 772 245 736 227 l 736 227 q 754 219 768 208 q 782 196 791 182 q 801 168 806 152 q 811 136 811 119 z m 269 132 l 269 132 q 269 147 264 162 q 260 176 251 188 q 242 199 229 206 q 216 213 198 213 l 198 213 q 185 213 172 208 q 159 202 148 192 q 138 182 132 167 q 126 151 126 132 l 126 132 q 126 109 131 93 q 137 77 146 66 q 154 56 166 52 q 178 47 190 47 l 190 47 q 210 47 225 54 q 239 62 249 73 q 259 85 264 101 q 269 116 269 132 z"},"ച":{"ha":727,"x_min":74,"x_max":728,"o":"m 728 0 l 74 0 l 74 34 l 284 34 q 309 34 327 44 q 346 54 358 69 q 371 84 377 104 q 383 124 383 144 l 383 144 q 383 161 378 177 q 374 194 364 207 q 354 219 340 227 q 325 234 306 234 l 306 234 q 288 234 274 228 q 260 221 250 209 q 239 198 234 183 q 229 168 229 152 l 229 152 q 229 143 231 133 q 234 124 238 114 l 238 114 l 194 114 q 183 142 183 169 l 183 169 q 183 194 193 217 q 203 240 220 258 q 238 275 262 286 q 287 296 316 296 l 316 296 q 354 296 381 284 q 409 271 428 251 q 446 231 456 205 q 465 179 465 152 l 465 152 q 465 119 451 88 q 438 57 410 34 l 410 34 l 645 34 l 645 440 l 728 440 l 728 0 z"},"ഛ":{"ha":964,"x_min":72,"x_max":963,"o":"m 963 194 l 963 194 q 963 142 950 104 q 937 65 916 40 q 896 15 869 3 q 843 -10 816 -10 l 816 -10 q 792 -10 769 1 q 745 11 727 31 q 708 51 698 81 q 687 110 687 148 l 687 148 q 687 216 716 272 q 746 328 798 371 l 798 371 q 785 381 770 386 q 755 392 736 392 l 736 392 q 693 392 659 375 q 626 358 603 331 q 581 304 569 269 q 557 233 557 196 l 557 196 q 557 170 563 145 q 568 119 580 95 q 592 72 610 52 q 628 32 652 17 l 652 17 l 652 0 l 72 0 l 72 34 l 274 34 q 294 34 309 43 q 323 53 333 68 q 343 83 348 102 q 354 121 354 141 l 354 141 q 354 159 349 176 q 345 192 336 206 q 327 219 313 227 q 299 234 280 234 l 280 234 q 265 234 251 229 q 236 224 225 213 q 214 202 207 187 q 200 171 200 150 l 200 150 q 200 133 211 114 l 211 114 l 168 114 q 164 126 163 138 q 161 150 161 162 l 161 162 q 161 196 172 221 q 183 247 201 263 q 220 280 243 288 q 267 296 292 296 l 292 296 q 325 296 352 283 q 379 271 398 250 q 417 229 428 202 q 438 175 438 146 l 438 146 q 438 116 426 87 q 414 57 388 34 l 388 34 l 572 34 q 542 76 527 124 q 512 172 512 223 l 512 223 q 512 267 525 307 q 538 348 564 379 q 591 411 632 429 q 673 448 729 448 l 729 448 q 762 448 792 438 q 823 428 849 410 q 875 392 896 367 q 917 343 932 314 q 947 286 955 255 q 963 225 963 194 z m 886 186 l 886 186 q 886 210 882 235 q 878 259 870 281 q 863 303 852 320 q 841 338 827 349 l 827 349 q 806 332 787 311 q 769 291 755 268 q 741 245 733 219 q 725 194 725 166 l 725 166 q 725 139 732 118 q 739 97 750 82 q 762 67 776 60 q 791 52 807 52 l 807 52 q 822 52 836 60 q 850 67 861 84 q 872 100 879 125 q 886 151 886 186 z"},"ജ":{"ha":704,"x_min":74,"x_max":704,"o":"m 704 303 l 704 303 q 704 275 692 250 q 680 224 655 204 q 629 185 589 172 q 550 160 495 160 l 495 160 l 290 160 l 254 160 q 228 160 209 154 q 190 148 178 138 q 166 128 160 116 q 154 104 154 92 l 154 92 q 154 82 158 72 q 162 63 170 56 q 177 48 188 44 q 200 40 214 40 l 214 40 q 241 40 276 49 q 312 57 351 70 q 389 83 428 98 q 468 113 502 126 q 536 139 563 148 q 589 156 604 156 l 604 156 q 628 156 647 149 q 666 141 678 129 q 691 116 698 101 q 704 85 704 68 l 704 68 q 704 53 698 39 q 692 24 679 13 q 667 2 648 -5 q 630 -12 604 -12 l 604 -12 q 587 -12 570 -5 q 553 1 540 12 q 526 23 518 37 q 510 51 510 66 l 510 66 q 510 84 522 102 l 522 102 l 521 104 q 505 97 489 91 q 473 85 458 78 l 458 78 q 448 73 430 64 q 412 56 389 46 q 366 36 340 25 q 313 15 285 7 q 257 -1 230 -7 q 202 -12 178 -12 l 178 -12 q 153 -12 134 -4 q 115 3 102 15 q 88 27 81 43 q 74 60 74 77 l 74 77 q 74 98 85 119 q 96 140 118 156 q 141 173 176 184 q 211 194 260 194 l 260 194 l 482 194 q 515 194 540 205 q 565 216 581 233 q 598 250 606 271 q 614 293 614 314 l 614 314 q 614 338 606 356 q 599 374 586 386 q 573 398 556 405 q 540 411 522 411 l 522 411 q 506 411 490 405 q 475 399 462 386 q 450 374 442 355 q 435 337 435 312 l 435 312 l 435 226 l 353 226 l 353 329 q 353 349 343 364 q 334 379 318 390 q 303 401 282 406 q 262 412 240 412 l 240 412 q 214 412 188 403 q 163 394 144 374 l 144 374 l 146 371 q 155 376 163 378 q 171 380 180 380 l 180 380 q 195 380 209 373 q 224 367 234 356 q 245 345 251 330 q 258 315 258 300 l 258 300 q 258 283 252 266 q 247 249 236 235 q 226 222 210 213 q 195 205 177 205 l 177 205 q 152 205 133 213 q 115 220 103 233 q 90 246 84 263 q 78 280 78 300 l 78 300 q 78 336 94 364 q 111 392 137 410 q 164 429 198 439 q 232 448 269 448 l 269 448 q 311 448 350 435 q 390 421 419 395 l 419 395 q 437 422 466 435 q 496 448 530 448 l 530 448 q 561 448 592 438 q 623 428 648 409 q 673 391 688 364 q 704 337 704 303 z m 645 80 l 645 80 q 645 89 641 96 q 637 104 631 110 q 625 116 616 119 q 608 122 599 122 l 599 122 q 589 122 580 119 q 570 116 563 110 q 556 104 552 97 q 548 89 548 80 l 548 80 q 548 70 552 63 q 557 55 564 50 q 571 44 580 42 q 589 39 599 39 l 599 39 q 617 39 631 50 q 645 62 645 80 z m 198 294 l 198 294 q 198 305 196 314 q 194 323 189 330 q 185 337 177 341 q 168 345 156 345 l 156 345 q 146 345 139 340 q 131 336 125 329 q 120 321 117 312 q 114 303 114 294 l 114 294 q 114 285 117 275 q 120 266 125 259 q 131 251 139 247 q 146 242 156 242 l 156 242 q 180 242 189 257 q 198 272 198 294 z"},"ഝ":{"ha":1245,"x_min":76,"x_max":1245,"o":"m 1245 219 l 1245 219 q 1245 174 1232 133 q 1219 91 1194 59 q 1169 27 1134 8 q 1098 -12 1053 -12 l 1053 -12 q 1015 -12 978 7 q 940 25 911 64 l 911 64 q 888 25 853 7 q 819 -12 782 -12 l 782 -12 q 752 -12 723 0 q 695 12 672 35 q 649 58 636 90 q 622 122 622 162 l 622 162 l 622 259 q 622 286 615 311 q 607 336 593 356 q 578 375 555 387 q 532 398 501 398 l 501 398 q 485 398 471 398 q 457 397 442 392 l 442 392 q 466 372 486 348 q 505 324 520 297 q 535 270 543 240 q 551 211 551 180 l 551 180 q 551 146 541 112 q 532 78 513 51 q 494 24 465 7 q 437 -10 398 -10 l 398 -10 q 364 -10 338 8 q 312 26 294 53 q 276 80 267 113 q 258 145 258 175 l 258 175 q 258 204 265 233 q 273 262 287 289 q 301 316 320 339 q 339 363 362 381 l 362 381 q 346 389 328 391 q 311 393 293 393 l 293 393 q 250 393 218 376 q 186 359 165 332 q 144 304 133 269 q 122 233 122 196 l 122 196 q 122 169 127 142 q 132 115 143 91 q 154 66 172 45 q 190 23 216 7 l 216 7 l 183 -10 q 153 11 133 36 q 113 62 100 90 q 87 118 82 149 q 76 179 76 211 l 76 211 q 76 256 90 299 q 103 342 130 375 q 157 408 198 428 q 239 448 293 448 l 293 448 q 323 448 351 442 q 378 437 408 419 l 408 419 q 423 429 438 435 q 453 441 469 444 q 484 447 499 448 q 515 448 530 448 l 530 448 q 571 448 601 434 q 632 420 652 396 q 672 372 682 340 q 692 309 692 274 l 692 274 l 692 182 q 692 142 701 115 q 710 87 724 70 q 739 53 757 46 q 775 38 794 38 l 794 38 q 812 38 830 44 q 847 51 861 62 q 874 72 882 86 q 891 101 891 116 l 891 116 l 891 440 l 974 440 l 974 165 q 974 136 981 115 q 989 93 1001 79 q 1014 65 1030 58 q 1046 51 1064 51 l 1064 51 q 1096 51 1121 66 q 1146 82 1164 107 q 1181 132 1191 165 q 1200 198 1200 232 l 1200 232 q 1200 261 1193 289 q 1186 317 1172 342 q 1157 367 1135 388 q 1114 409 1084 423 l 1084 423 l 1112 448 q 1146 430 1172 405 q 1197 379 1213 349 q 1229 319 1237 286 q 1245 253 1245 219 z m 478 181 l 478 181 q 478 237 455 283 q 433 330 391 364 l 391 364 q 368 346 350 325 q 331 305 318 281 q 305 257 297 230 q 290 204 290 174 l 290 174 q 290 154 296 132 q 302 111 314 93 q 326 75 343 63 q 361 52 384 52 l 384 52 q 409 52 427 64 q 444 76 456 95 q 467 114 472 137 q 478 160 478 181 z"},"ഞ":{"ha":1104,"x_min":77,"x_max":1106,"o":"m 1106 202 l 1106 202 q 1106 172 1099 142 q 1091 112 1076 84 q 1061 57 1037 32 q 1014 8 982 -10 l 982 -10 l 934 7 q 956 23 972 45 q 988 66 999 90 q 1010 114 1015 139 q 1021 165 1021 190 l 1021 190 q 1021 231 1008 270 q 995 309 970 339 q 945 370 909 388 q 872 406 824 406 l 824 406 q 810 406 795 403 q 780 400 766 395 l 766 395 q 815 354 845 300 q 875 246 875 180 l 875 180 q 875 133 862 98 q 849 63 828 39 q 807 16 780 4 q 753 -8 726 -8 l 726 -8 q 699 -8 673 3 q 647 15 627 37 q 607 60 595 94 q 583 128 583 175 l 583 175 q 583 205 590 234 q 598 263 611 290 q 625 317 644 340 q 663 363 687 381 l 687 381 q 673 387 657 390 q 641 393 624 393 l 624 393 q 602 393 580 387 q 558 382 541 370 q 524 359 513 341 q 503 324 503 300 l 503 300 l 503 0 l 420 0 l 420 300 q 420 320 409 337 q 397 354 379 367 q 361 379 338 386 q 315 394 293 394 l 293 394 q 253 394 221 383 q 189 372 166 348 q 143 324 128 285 q 114 247 108 192 l 108 192 l 112 190 q 134 228 163 244 q 191 261 219 261 l 219 261 q 247 261 269 249 q 291 236 305 217 q 320 197 327 172 q 335 146 335 120 l 335 120 q 335 95 328 71 q 321 47 306 29 q 292 11 270 0 q 249 -12 219 -12 l 219 -12 q 184 -12 157 4 q 131 20 113 46 q 95 72 86 106 q 77 140 77 178 l 77 178 q 77 245 96 296 q 116 348 150 383 q 184 418 230 435 q 277 452 332 450 l 332 450 q 350 449 371 444 q 393 438 412 428 q 432 417 448 403 q 463 389 471 371 l 471 371 q 482 392 501 407 q 519 422 541 432 q 563 441 587 446 q 610 450 632 450 l 632 450 q 658 450 684 443 q 709 435 732 419 l 732 419 q 749 428 764 433 q 779 439 794 442 q 810 446 825 447 q 840 448 856 448 l 856 448 q 916 448 962 427 q 1009 406 1041 372 q 1073 337 1090 293 q 1106 249 1106 202 z m 803 181 l 803 181 q 803 237 781 283 q 759 330 716 364 l 716 364 q 669 330 642 281 q 614 233 614 174 l 614 174 q 614 144 623 122 q 631 99 644 84 q 657 68 674 61 q 691 53 709 53 l 709 53 q 727 53 744 61 q 761 68 774 84 q 787 100 795 124 q 803 148 803 181 z m 269 128 l 269 128 q 269 144 264 159 q 260 174 251 186 q 242 198 229 206 q 216 213 198 213 l 198 213 q 185 213 172 208 q 159 202 148 192 q 138 182 132 167 q 126 151 126 132 l 126 132 q 126 111 132 95 q 139 79 149 68 q 160 58 173 52 q 186 47 200 47 l 200 47 q 218 47 231 54 q 244 61 252 72 q 260 83 264 98 q 269 112 269 128 z"},"ട":{"ha":463,"x_min":74,"x_max":466,"o":"m 466 140 l 466 140 q 466 101 450 73 q 434 44 407 26 q 380 8 346 -1 q 312 -10 274 -10 l 274 -10 q 246 -10 217 -5 q 189 0 163 9 q 137 18 115 31 q 92 44 76 62 l 76 62 l 101 91 q 113 78 132 67 q 152 57 175 49 q 198 42 223 38 q 248 34 272 34 l 272 34 q 298 34 322 39 q 346 43 364 53 q 381 63 392 79 q 402 94 402 116 l 402 116 q 402 129 396 140 q 391 152 378 161 q 366 169 348 175 q 329 180 304 180 l 304 180 l 207 180 q 175 180 150 190 q 125 200 109 217 q 92 234 83 256 q 74 278 74 302 l 74 302 q 74 340 90 368 q 106 396 133 413 q 160 431 195 440 q 229 448 267 448 l 267 448 q 295 448 323 443 q 352 438 378 429 q 404 420 426 407 q 449 394 465 377 l 465 377 l 438 350 q 425 363 407 374 q 389 385 368 392 q 347 399 325 403 q 302 406 280 406 l 280 406 q 253 406 228 401 q 202 395 183 384 q 164 373 152 356 q 141 339 141 316 l 141 316 q 141 304 146 293 q 150 282 160 274 q 169 266 183 261 q 196 256 214 256 l 214 256 l 310 256 q 350 256 379 246 q 408 236 427 220 q 447 204 456 183 q 466 162 466 140 z"},"ഠ":{"ha":532,"x_min":77,"x_max":530,"o":"m 530 217 l 530 217 q 530 168 512 127 q 494 85 463 55 q 431 25 389 8 q 347 -10 300 -10 l 300 -10 q 252 -10 212 7 q 171 23 141 52 q 111 82 94 122 q 77 162 77 210 l 77 210 q 77 258 92 301 q 107 344 135 377 q 164 410 204 429 q 244 448 295 448 l 295 448 q 345 448 388 431 q 431 414 463 383 q 494 352 512 310 q 530 267 530 217 z m 446 214 l 446 214 q 446 249 433 281 q 420 312 398 335 q 375 359 344 373 q 314 387 278 387 l 278 387 q 243 387 212 374 q 181 361 158 339 q 135 316 122 286 q 108 255 108 220 l 108 220 q 108 185 122 153 q 135 122 158 98 q 181 74 212 60 q 243 46 278 46 l 278 46 q 313 46 344 59 q 375 73 397 95 q 420 118 433 149 q 446 179 446 214 z"},"ഡ":{"ha":984,"x_min":77,"x_max":984,"o":"m 984 223 l 984 223 q 984 170 968 127 q 951 83 924 53 q 896 22 861 5 q 826 -12 789 -12 l 789 -12 q 751 -12 715 6 q 679 24 648 64 l 648 64 q 623 25 586 7 q 549 -12 510 -12 l 510 -12 q 478 -12 448 0 q 417 12 393 35 q 369 58 355 92 q 340 126 341 170 l 341 170 l 341 173 l 342 249 l 342 253 l 342 256 q 342 291 335 316 q 328 341 316 357 q 304 373 289 381 q 273 389 256 389 l 256 389 q 233 389 209 376 q 185 363 166 340 q 146 316 134 282 q 121 249 121 207 l 121 207 q 121 179 127 150 q 134 122 147 96 q 161 71 182 49 q 203 28 232 14 l 232 14 l 211 -10 q 176 8 151 34 q 125 60 109 90 q 93 121 85 155 q 77 189 77 224 l 77 224 q 77 278 94 321 q 110 363 137 392 q 164 420 198 435 q 231 450 265 450 l 265 450 q 293 450 320 439 q 347 428 367 405 q 388 382 400 347 q 412 312 412 265 l 412 265 l 412 188 q 412 147 422 118 q 433 89 449 71 q 465 53 486 45 q 507 37 528 37 l 528 37 q 548 37 566 43 q 584 49 598 59 q 612 70 620 84 q 629 99 629 116 l 629 116 l 629 440 l 712 440 l 712 165 q 712 135 719 114 q 726 92 738 78 q 750 63 765 57 q 781 50 798 50 l 798 50 q 822 50 847 63 q 872 75 892 99 q 913 123 926 158 q 938 192 938 236 l 938 236 q 938 264 932 291 q 925 318 911 343 q 897 367 876 388 q 855 409 827 423 l 827 423 l 854 448 q 888 430 913 405 q 937 380 953 350 q 969 320 977 288 q 984 255 984 223 z"},"ഢ":{"ha":1028,"x_min":77,"x_max":1028,"o":"m 1028 254 l 1028 254 q 1028 223 1022 190 q 1017 158 1005 128 q 993 99 975 73 q 957 47 933 28 q 909 8 878 -3 q 848 -14 811 -14 l 811 -14 q 768 -14 726 6 q 685 25 650 66 l 650 66 q 623 27 586 8 q 550 -12 511 -12 l 511 -12 q 479 -12 448 1 q 417 14 394 38 q 370 62 355 98 q 341 133 341 180 l 341 180 l 341 249 q 341 286 334 313 q 327 339 315 356 q 303 373 288 381 q 272 389 255 389 l 255 389 q 225 389 201 373 q 176 357 159 332 q 141 306 132 272 q 122 239 122 203 l 122 203 q 122 175 128 148 q 135 120 148 95 q 161 70 182 49 q 203 28 232 14 l 232 14 l 211 -10 q 176 8 151 34 q 126 60 110 90 q 93 121 85 155 q 77 188 77 223 l 77 223 q 77 266 90 307 q 103 348 127 380 q 151 412 186 431 q 221 450 266 450 l 266 450 q 294 450 321 439 q 347 428 367 405 q 388 382 400 347 q 412 312 412 264 l 412 264 l 412 192 q 412 150 422 120 q 432 91 448 72 q 464 54 484 45 q 504 37 524 37 l 524 37 q 543 37 561 43 q 579 50 593 61 q 607 72 615 87 q 624 102 624 120 l 624 120 l 624 440 l 707 440 l 707 161 q 707 133 718 111 q 729 88 748 72 q 767 56 791 47 q 815 38 841 38 l 841 38 q 869 38 897 50 q 925 62 947 87 q 969 113 982 153 q 996 193 996 251 l 996 251 l 995 251 q 985 234 976 220 q 966 207 954 198 q 942 188 927 184 q 912 179 891 179 l 891 179 q 863 179 843 191 q 822 204 807 224 q 793 244 786 269 q 778 294 778 320 l 778 320 q 778 350 788 374 q 798 397 815 415 q 831 432 852 441 q 874 450 896 450 l 896 450 q 929 450 953 434 q 978 417 995 390 q 1011 363 1020 328 q 1028 292 1028 254 z m 982 308 l 982 308 q 982 330 976 347 q 970 364 960 376 q 950 387 938 393 q 925 398 912 398 l 912 398 q 899 398 886 393 q 874 388 864 377 q 854 367 849 351 q 843 335 843 314 l 843 314 q 843 298 847 282 q 852 267 860 254 q 868 242 880 235 q 893 228 908 228 l 908 228 q 925 228 939 234 q 953 240 963 251 q 972 262 977 277 q 982 291 982 308 z"},"ണ":{"ha":1103,"x_min":76,"x_max":1099,"o":"m 1099 219 l 1099 219 q 1099 185 1090 151 q 1082 117 1064 87 q 1046 57 1019 32 q 992 7 955 -10 l 955 -10 l 912 11 q 939 27 959 50 q 979 73 991 100 q 1003 127 1010 156 q 1016 186 1016 215 l 1016 215 q 1016 264 1003 299 q 991 333 972 356 q 953 378 929 388 q 905 398 882 398 l 882 398 q 864 398 848 393 q 832 387 819 377 q 807 367 799 352 q 792 337 792 318 l 792 318 l 792 0 l 709 0 l 709 276 q 709 300 701 322 q 692 343 677 359 q 662 375 641 384 q 620 393 595 393 l 595 393 q 579 393 563 388 q 547 384 533 375 q 520 366 511 353 q 503 340 503 322 l 503 322 l 503 0 l 420 0 l 420 300 q 420 320 409 337 q 397 354 379 367 q 361 379 338 386 q 315 394 293 394 l 293 394 q 253 394 221 383 q 189 372 166 348 q 143 324 128 285 q 114 247 108 192 l 108 192 l 112 190 q 134 228 163 244 q 191 261 219 261 l 219 261 q 242 261 263 250 q 284 240 300 222 q 316 203 325 177 q 335 151 335 119 l 335 119 q 335 88 325 64 q 314 40 298 23 q 281 6 259 -3 q 237 -12 214 -12 l 214 -12 q 181 -12 155 4 q 129 19 112 45 q 94 71 85 105 q 76 139 76 176 l 76 176 q 76 244 95 295 q 115 346 149 381 q 184 415 230 433 q 277 450 332 450 l 332 450 q 382 450 422 430 q 461 411 484 371 l 484 371 q 507 409 542 428 q 576 448 620 448 l 620 448 q 643 448 665 444 q 687 440 706 432 q 726 423 743 409 q 760 396 772 376 l 772 376 q 794 414 827 432 q 860 450 898 450 l 898 450 q 934 450 970 435 q 1006 419 1034 389 q 1063 359 1081 316 q 1099 273 1099 219 z m 269 126 l 269 126 q 269 148 262 164 q 256 181 246 191 q 236 202 224 208 q 211 213 198 213 l 198 213 q 185 213 172 208 q 159 202 148 192 q 138 182 132 167 q 126 151 126 132 l 126 132 q 126 109 132 93 q 138 77 147 67 q 157 57 169 52 q 182 47 194 47 l 194 47 q 208 47 222 52 q 235 58 246 68 q 256 78 262 93 q 269 107 269 126 z"},"ത":{"ha":780,"x_min":76,"x_max":780,"o":"m 780 198 l 780 198 q 780 168 773 139 q 765 109 750 82 q 735 55 712 32 q 689 8 658 -10 l 658 -10 l 608 7 q 654 42 674 89 q 694 136 694 186 l 694 186 q 694 228 681 268 q 667 308 642 339 q 617 370 581 389 q 545 408 499 408 l 499 408 q 485 408 470 405 q 455 402 440 395 l 440 395 q 464 375 484 351 q 504 327 519 299 q 534 271 542 241 q 551 211 551 180 l 551 180 q 551 133 538 98 q 525 63 504 39 q 483 16 456 4 q 430 -8 402 -8 l 402 -8 q 375 -8 349 3 q 323 15 303 37 q 283 60 270 94 q 258 128 258 175 l 258 175 q 258 204 265 233 q 273 262 287 289 q 301 316 320 339 q 339 363 362 381 l 362 381 q 344 389 326 394 q 309 398 293 398 l 293 398 q 257 398 226 381 q 195 364 172 336 q 149 308 135 271 q 122 235 122 196 l 122 196 q 122 169 127 142 q 132 116 143 91 q 154 67 172 45 q 190 24 216 7 l 216 7 l 183 -10 q 153 11 133 36 q 113 62 100 90 q 87 118 82 149 q 76 179 76 211 l 76 211 q 76 264 94 308 q 111 352 141 383 q 171 415 210 433 q 250 450 294 450 l 294 450 q 322 450 351 443 q 379 435 408 419 l 408 419 q 434 435 463 443 q 492 450 521 450 l 521 450 q 582 450 630 428 q 678 407 712 371 q 745 336 763 291 q 780 246 780 198 z m 478 181 l 478 181 q 478 237 455 283 q 433 330 391 364 l 391 364 q 368 346 350 325 q 331 305 318 281 q 305 257 297 230 q 290 204 290 174 l 290 174 q 290 144 298 121 q 306 99 319 83 q 333 68 349 60 q 366 53 383 53 l 383 53 q 401 53 418 61 q 435 68 448 84 q 461 101 469 125 q 478 148 478 181 z"},"ഥ":{"ha":732,"x_min":77,"x_max":732,"o":"m 732 0 l 77 0 l 77 440 l 161 440 l 161 34 l 326 34 l 326 260 q 326 307 343 342 q 359 378 387 402 q 415 426 450 438 q 485 450 522 450 l 522 450 q 561 450 599 437 q 637 423 666 396 q 696 369 714 327 q 732 286 732 230 l 732 230 l 732 0 z m 700 34 l 700 219 q 700 265 688 299 q 675 333 654 355 q 633 377 607 388 q 580 398 553 398 l 553 398 q 525 398 500 388 q 474 378 453 358 q 433 338 421 308 q 408 279 408 240 l 408 240 l 408 34 l 700 34 z"},"ദ":{"ha":486,"x_min":77,"x_max":484,"o":"m 484 124 l 484 124 q 484 99 472 74 q 460 49 438 29 q 415 9 381 -3 q 348 -16 305 -16 l 305 -16 q 286 -16 269 -12 q 251 -8 236 -2 l 236 -2 l 230 53 q 242 42 260 37 q 279 32 299 32 l 299 32 q 327 32 347 39 q 367 45 380 55 q 394 65 400 79 q 406 92 406 106 l 406 106 q 406 123 398 139 q 391 155 375 168 q 360 181 337 188 q 314 196 284 196 l 284 196 l 240 196 l 240 240 l 282 240 q 312 240 333 247 q 354 253 369 263 q 383 273 390 287 q 396 300 396 314 l 396 314 q 396 330 389 345 q 382 360 367 372 q 353 384 332 391 q 311 398 284 398 l 284 398 q 255 398 225 386 q 195 375 170 348 q 146 321 130 279 q 114 236 114 175 l 114 175 q 114 129 123 86 q 131 43 144 0 l 144 0 l 104 -10 q 92 37 85 84 q 77 132 77 180 l 77 180 q 77 252 98 303 q 118 354 151 387 q 184 419 225 434 q 265 448 306 448 l 306 448 q 346 448 378 437 q 411 426 433 408 q 456 390 468 367 q 480 344 480 320 l 480 320 q 480 293 462 268 q 444 243 404 227 l 404 227 q 425 219 440 208 q 455 197 465 184 q 475 170 479 155 q 484 140 484 124 z"},"ധ":{"ha":738,"x_min":77,"x_max":736,"o":"m 736 221 l 736 221 q 736 166 720 123 q 704 80 677 50 q 651 20 616 4 q 582 -12 546 -12 l 546 -12 q 526 -12 507 -8 q 487 -4 468 5 q 449 14 432 29 q 416 43 402 64 l 402 64 q 392 44 376 30 q 360 15 342 6 q 323 -3 304 -8 q 285 -12 267 -12 l 267 -12 q 230 -12 197 5 q 163 22 136 52 q 109 83 93 125 q 77 167 77 219 l 77 219 q 77 252 85 286 q 94 320 111 350 q 127 380 153 406 q 179 431 215 448 l 215 448 l 250 418 q 228 402 211 379 q 194 356 183 330 q 171 303 166 274 q 160 245 160 216 l 160 216 q 160 167 171 134 q 182 100 199 79 q 217 58 239 49 q 260 39 282 39 l 282 39 q 302 39 320 46 q 338 52 352 64 q 366 76 375 92 q 383 108 383 127 l 383 127 l 383 440 l 466 440 l 466 165 q 466 136 473 115 q 481 93 493 79 q 506 65 522 58 q 539 51 558 51 l 558 51 q 582 51 605 62 q 629 74 649 97 q 668 120 680 154 q 692 188 692 234 l 692 234 q 692 262 686 290 q 679 317 666 342 q 652 367 631 388 q 610 409 581 423 l 581 423 l 608 448 q 641 430 665 405 q 689 379 705 349 q 721 319 729 286 q 736 253 736 221 z"},"ന":{"ha":748,"x_min":79,"x_max":746,"o":"m 746 218 l 746 218 q 746 184 737 150 q 728 117 710 87 q 692 57 666 32 q 639 7 604 -10 l 604 -10 l 570 21 q 597 39 615 61 q 634 84 645 110 q 656 136 660 165 q 665 193 665 223 l 665 223 q 665 257 656 289 q 648 321 631 345 q 614 369 589 384 q 564 398 530 398 l 530 398 q 512 398 496 393 q 480 387 468 377 q 455 367 448 352 q 440 337 440 318 l 440 318 l 440 0 l 358 0 l 358 276 q 358 303 350 324 q 342 345 328 359 q 314 373 296 380 q 278 387 259 387 l 259 387 q 226 387 201 372 q 175 357 158 332 q 140 308 131 276 q 122 244 122 210 l 122 210 q 122 181 128 153 q 135 124 148 98 q 162 72 183 51 q 204 29 234 16 l 234 16 l 206 -10 q 172 8 148 34 q 124 59 109 89 q 93 119 86 151 q 79 184 79 217 l 79 217 q 79 262 93 304 q 106 346 132 378 q 157 411 194 430 q 231 450 279 450 l 279 450 q 298 450 319 445 q 340 439 359 430 q 377 420 392 407 q 407 393 414 375 l 414 375 q 427 397 444 412 q 461 427 480 435 q 499 443 519 447 q 538 450 556 450 l 556 450 q 600 450 635 430 q 670 411 695 378 q 720 346 733 304 q 746 262 746 218 z"},"ഩ":{"ha":1000,"x_min":72,"x_max":668,"o":"m 668 221 l 668 221 q 668 180 657 141 q 646 103 627 70 q 608 37 581 10 q 554 -17 521 -37 q 488 -56 450 -67 q 412 -77 371 -77 l 371 -77 q 309 -77 255 -54 q 200 -31 160 10 q 119 50 96 104 q 72 158 72 220 l 72 220 q 72 282 96 336 q 119 390 160 430 q 200 471 254 494 q 309 518 370 518 l 370 518 q 432 518 486 494 q 540 471 581 430 q 621 390 645 336 q 668 282 668 221 z m 636 219 l 636 219 q 636 275 615 324 q 593 373 557 410 q 520 446 471 467 q 422 488 366 488 l 366 488 q 311 488 261 467 q 212 446 176 410 q 139 373 118 324 q 97 275 97 219 l 97 219 q 97 163 118 114 q 139 64 176 28 q 212 -9 261 -30 q 311 -52 366 -52 l 366 -52 q 422 -52 471 -30 q 520 -9 557 28 q 593 64 615 114 q 636 163 636 219 z m 526 68 l 455 -3 q 447 9 444 22 q 440 36 438 50 q 435 64 431 77 q 427 90 416 101 l 416 101 q 409 108 404 116 q 398 124 394 132 q 389 140 383 148 q 377 156 369 165 l 369 165 q 362 170 356 175 q 351 180 344 183 l 344 183 q 335 183 328 183 q 320 184 312 184 l 312 184 q 311 163 311 143 q 311 124 311 104 l 311 104 l 236 30 q 236 107 240 184 q 244 262 248 334 l 248 334 l 276 362 q 265 362 253 361 q 242 360 232 358 l 232 358 l 307 434 q 327 437 355 437 q 383 437 412 432 q 441 428 467 419 q 492 410 507 395 l 507 395 q 516 386 520 369 q 523 351 523 332 q 523 313 519 296 q 515 279 509 272 l 509 272 l 455 218 q 465 205 471 193 q 478 181 490 169 l 490 169 q 501 158 505 145 q 509 131 511 118 q 514 104 516 92 q 519 79 526 68 l 526 68 z m 448 258 l 448 258 q 450 278 447 297 q 444 315 436 324 l 436 324 q 427 333 415 339 q 402 346 387 350 q 372 354 354 357 q 337 359 320 360 l 320 360 q 317 321 316 280 q 314 240 312 200 l 312 200 l 370 258 q 380 263 391 262 q 401 261 411 257 l 411 257 q 420 257 430 257 q 439 257 448 258 z"},"പ":{"ha":780,"x_min":74,"x_max":780,"o":"m 780 0 l 265 0 l 265 12 q 283 23 297 38 q 311 52 319 68 q 328 84 333 101 q 337 118 337 134 l 337 134 q 337 154 330 173 q 324 191 311 205 q 298 218 279 226 q 260 234 234 234 l 234 234 q 213 234 193 227 q 172 219 156 205 q 141 190 131 168 q 121 146 121 116 l 121 116 q 121 88 134 61 q 146 33 173 15 l 173 15 l 143 -10 q 109 16 92 53 q 74 90 74 130 l 74 130 q 74 171 89 203 q 104 234 129 255 q 154 276 185 286 q 216 297 249 297 l 249 297 q 287 297 319 283 q 351 269 374 246 q 396 223 409 194 q 422 164 422 133 l 422 133 q 422 107 413 82 q 404 57 384 34 l 384 34 l 696 34 l 696 440 l 780 440 l 780 0 z"},"ഫ":{"ha":962,"x_min":74,"x_max":962,"o":"m 962 0 l 265 0 l 265 7 q 283 19 297 33 q 311 48 319 64 q 328 80 333 97 q 337 114 337 131 l 337 131 q 337 157 328 176 q 320 196 305 209 q 291 222 272 228 q 254 234 234 234 l 234 234 q 213 234 193 227 q 173 219 157 205 q 141 190 131 168 q 121 146 121 116 l 121 116 q 121 88 134 61 q 146 33 173 15 l 173 15 l 143 -10 q 109 16 92 53 q 74 90 74 130 l 74 130 q 74 171 89 202 q 104 233 129 254 q 153 275 185 285 q 216 296 248 296 l 248 296 q 280 296 311 285 q 342 275 367 254 q 391 234 406 203 q 421 172 421 132 l 421 132 q 421 106 412 81 q 402 56 384 34 l 384 34 l 556 34 l 556 260 q 556 307 573 342 q 590 378 618 402 q 646 426 681 438 q 717 450 755 450 l 755 450 q 793 450 830 437 q 867 424 896 397 q 926 371 944 330 q 962 289 962 234 l 962 234 l 962 0 z m 930 34 l 930 194 q 930 247 917 285 q 903 323 882 348 q 860 373 833 385 q 806 396 778 396 l 778 396 q 752 396 727 386 q 702 376 682 356 q 663 336 651 307 q 639 278 639 240 l 639 240 l 639 34 l 930 34 z"},"ബ":{"ha":1024,"x_min":74,"x_max":1022,"o":"m 1022 0 l 620 0 l 620 24 q 643 38 661 61 q 680 84 692 113 q 705 141 711 173 q 718 205 718 236 l 718 236 q 718 269 710 298 q 703 327 687 350 q 670 372 646 385 q 622 398 588 398 l 588 398 q 569 398 552 393 q 535 388 521 378 q 507 368 499 353 q 490 338 490 320 l 490 320 l 490 0 l 408 0 l 408 300 q 408 321 398 338 q 388 355 371 368 q 354 380 333 387 q 312 394 290 394 l 290 394 q 250 394 219 382 q 187 371 164 347 q 141 323 126 285 q 112 247 106 192 l 106 192 l 110 190 q 132 228 159 245 q 187 262 214 262 l 214 262 q 240 262 260 250 q 281 237 294 217 q 308 197 315 172 q 322 146 322 120 l 322 120 q 322 95 316 71 q 309 47 296 29 q 282 11 261 0 q 240 -12 212 -12 l 212 -12 q 179 -12 153 4 q 127 19 110 45 q 92 71 83 105 q 74 139 74 177 l 74 177 q 74 234 92 284 q 109 334 141 371 q 172 408 217 429 q 261 450 314 450 l 314 450 q 340 450 362 445 q 383 440 402 430 q 421 420 438 405 q 456 390 473 370 l 473 370 q 486 390 503 404 q 520 419 538 429 q 556 438 575 443 q 594 448 612 448 l 612 448 q 660 448 694 430 q 729 413 752 383 q 774 354 786 316 q 797 278 797 238 l 797 238 q 797 209 792 181 q 786 153 775 127 q 765 101 749 78 q 733 55 712 38 l 712 38 l 714 34 l 950 34 l 950 440 l 1022 440 l 1022 0 z m 258 128 l 258 128 q 258 144 253 159 q 249 174 240 187 q 232 199 219 206 q 207 214 190 214 l 190 214 q 178 214 167 208 q 155 203 145 193 q 136 182 130 167 q 124 151 124 132 l 124 132 q 124 110 130 94 q 136 78 145 68 q 155 57 167 52 q 180 47 192 47 l 192 47 q 209 47 221 54 q 233 61 241 72 q 250 83 254 98 q 258 112 258 128 z"},"ഭ":{"ha":500,"x_min":77,"x_max":499,"o":"m 499 88 l 499 88 q 499 70 490 52 q 480 34 460 20 q 439 6 408 -3 q 376 -12 332 -12 l 332 -12 q 311 -12 291 -10 q 270 -8 251 -6 q 232 -3 215 0 q 199 3 187 6 l 187 6 l 178 53 q 186 50 201 47 q 216 44 234 41 q 252 38 273 36 q 294 34 314 34 l 314 34 q 340 34 359 39 q 378 43 391 50 q 403 57 409 66 q 415 75 415 85 l 415 85 q 415 99 402 112 q 388 124 362 127 l 362 127 q 345 130 324 131 q 303 131 282 134 l 282 134 q 255 136 235 144 q 216 151 203 161 q 191 171 185 184 q 180 196 180 209 l 180 209 q 180 225 187 239 q 194 253 207 264 q 219 275 237 282 q 254 288 274 288 l 274 288 q 299 288 323 283 q 348 278 373 278 l 373 278 q 382 278 390 281 q 397 285 403 290 q 409 296 413 303 q 416 310 416 318 l 416 318 q 416 332 408 346 q 400 360 385 373 q 369 385 344 393 q 320 400 287 400 l 287 400 q 257 400 226 389 q 195 377 170 351 q 146 324 130 281 q 114 237 114 174 l 114 174 q 114 129 124 85 q 133 42 145 -1 l 145 -1 l 103 -10 q 93 38 85 85 q 77 132 77 181 l 77 181 q 77 254 97 306 q 117 357 149 389 q 181 421 221 436 q 261 450 303 450 l 303 450 q 351 450 388 437 q 424 424 449 403 q 474 383 487 358 q 499 333 499 310 l 499 310 q 499 294 493 280 q 487 267 477 256 q 466 246 450 240 q 435 234 416 234 l 416 234 q 405 234 394 237 q 383 239 372 242 q 361 245 350 247 q 339 249 328 249 l 328 249 q 314 249 302 246 q 291 243 282 237 q 273 231 269 224 q 264 216 264 208 l 264 208 q 264 193 282 181 q 300 169 341 169 l 341 169 q 357 169 371 170 q 384 172 400 172 l 400 172 q 423 172 441 165 q 459 158 472 146 q 485 134 492 119 q 499 104 499 88 z"},"മ":{"ha":511,"x_min":77,"x_max":511,"o":"m 511 0 l 77 0 l 77 156 q 77 234 91 290 q 104 346 130 381 q 157 417 197 434 q 236 450 289 450 l 289 450 q 340 450 381 433 q 422 416 451 382 q 479 349 495 298 q 511 248 511 182 l 511 182 l 511 0 z m 444 34 l 444 194 q 444 221 442 248 q 440 274 435 298 q 429 322 418 342 q 408 363 391 377 q 375 392 350 400 q 326 409 293 408 l 293 408 q 325 386 344 357 q 362 328 362 288 l 362 288 q 362 247 346 211 q 329 176 303 145 q 278 114 247 87 q 217 60 188 34 l 188 34 l 444 34 z m 290 304 l 290 304 q 290 320 286 335 q 282 351 273 362 q 264 374 251 381 q 238 388 220 388 l 220 388 q 196 388 179 376 q 163 365 151 346 q 140 328 134 304 q 127 280 124 256 q 121 231 120 208 q 119 185 119 167 l 119 167 l 119 34 q 152 58 183 86 q 214 115 238 149 q 261 183 276 222 q 290 260 290 304 z"},"യ":{"ha":793,"x_min":79,"x_max":790,"o":"m 790 247 l 790 247 q 790 198 773 152 q 757 105 725 70 q 694 34 647 12 q 601 -10 542 -10 l 542 -10 q 521 -10 500 -8 q 480 -7 460 3 l 460 3 q 436 -4 412 -7 q 388 -10 362 -10 l 362 -10 q 313 -10 273 1 q 233 12 201 31 q 170 50 147 75 q 124 101 109 130 q 94 160 86 191 q 79 223 79 254 l 79 254 q 79 292 90 328 q 100 363 120 390 q 140 417 168 432 q 197 448 234 448 l 234 448 q 255 448 273 441 q 291 434 306 422 q 320 411 332 395 q 344 379 353 362 l 353 362 q 366 379 382 395 q 398 411 417 422 q 435 434 456 441 q 478 448 501 448 l 501 448 q 534 448 562 433 q 589 417 609 392 q 629 367 640 336 q 650 305 650 274 l 650 274 q 650 193 616 135 q 581 78 511 40 l 511 40 q 528 34 545 34 l 545 34 q 592 34 629 52 q 666 70 690 100 q 715 130 728 168 q 740 207 740 247 l 740 247 q 740 271 736 295 q 731 319 722 342 q 712 365 698 385 q 684 406 665 423 l 665 423 l 702 448 q 747 408 769 355 q 790 302 790 247 z m 568 244 l 568 244 q 568 267 563 293 q 559 319 547 341 q 535 363 516 378 q 497 393 469 393 l 469 393 q 441 393 421 379 q 401 365 387 344 q 374 323 367 298 q 360 272 360 249 l 360 249 q 360 221 367 193 q 375 165 388 139 q 401 114 421 93 q 440 71 466 58 l 466 58 q 492 70 511 90 q 531 110 543 135 q 556 160 562 188 q 568 216 568 244 z m 412 40 l 412 40 q 386 54 365 78 q 343 103 328 132 q 313 161 304 193 q 295 224 295 253 l 295 253 q 295 271 291 295 q 287 318 277 338 q 267 359 251 373 q 235 387 211 387 l 211 387 q 191 387 175 375 q 159 364 148 345 q 136 327 130 302 q 124 277 124 250 l 124 250 q 124 212 136 174 q 149 136 176 105 q 204 74 247 54 q 291 34 354 34 l 354 34 q 369 34 383 35 q 397 36 412 40 z"},"ര":{"ha":528,"x_min":77,"x_max":530,"o":"m 530 196 l 530 196 q 530 143 518 104 q 506 64 486 39 q 466 14 440 2 q 415 -10 389 -10 l 389 -10 q 363 -10 338 1 q 314 12 295 32 q 276 53 264 82 q 253 111 253 148 l 253 148 q 253 217 283 273 q 313 329 364 371 l 364 371 q 346 385 329 392 q 313 398 290 398 l 290 398 q 250 398 220 380 q 189 362 168 332 q 147 302 137 263 q 126 225 126 185 l 126 185 q 126 135 147 89 q 167 43 213 10 l 213 10 l 190 -12 q 160 8 138 33 q 117 59 103 87 q 89 116 83 147 q 77 178 77 210 l 77 210 q 77 256 91 300 q 105 343 133 377 q 161 411 203 432 q 245 452 300 452 l 300 452 q 343 452 384 436 q 425 420 458 388 q 490 356 510 308 q 530 260 530 196 z m 453 186 l 453 186 q 453 210 449 235 q 445 259 438 281 q 430 303 419 320 q 408 338 394 349 l 394 349 q 373 332 354 311 q 336 291 322 268 q 308 245 300 219 q 292 194 292 166 l 292 166 q 292 141 300 120 q 307 99 320 83 q 332 68 348 60 q 363 52 379 52 l 379 52 q 393 52 406 59 q 420 66 430 83 q 440 99 447 124 q 453 149 453 186 z"},"റ":{"ha":512,"x_min":76,"x_max":512,"o":"m 512 220 l 512 220 q 512 185 502 150 q 492 115 473 84 q 454 53 426 29 q 397 4 360 -10 l 360 -10 l 332 30 q 357 43 376 62 q 395 81 406 103 q 418 125 424 149 q 430 174 430 198 l 430 198 q 430 240 417 272 q 403 303 382 324 q 360 345 333 356 q 305 366 276 366 l 276 366 q 247 366 219 355 q 191 344 169 323 q 147 302 134 270 q 120 238 120 196 l 120 196 q 120 169 127 142 q 133 115 147 91 q 160 67 181 48 q 202 29 230 17 l 230 17 l 213 -10 q 178 7 153 31 q 127 55 110 84 q 93 114 85 146 q 76 179 76 212 l 76 212 q 76 270 96 314 q 115 358 147 388 q 179 418 220 433 q 261 448 303 448 l 303 448 q 342 448 380 434 q 417 420 447 392 q 476 364 494 321 q 512 278 512 220 z"},"ല":{"ha":714,"x_min":77,"x_max":712,"o":"m 712 0 l 77 0 l 77 208 q 77 269 95 314 q 112 359 141 389 q 170 419 208 434 q 245 448 284 448 l 284 448 q 323 448 361 433 q 399 418 429 388 q 458 358 477 313 q 495 268 495 208 l 495 208 l 495 161 l 161 161 l 161 34 l 629 34 l 629 440 l 712 440 l 712 0 z m 457 194 l 457 196 l 457 232 q 457 275 444 307 q 432 339 411 360 q 391 380 364 390 q 337 400 310 400 l 310 400 q 282 400 256 390 q 229 380 208 361 q 187 342 174 314 q 161 286 161 249 l 161 249 l 161 194 l 457 194 z"},"ള":{"ha":554,"x_min":74,"x_max":558,"o":"m 558 -180 l 183 -180 q 161 -180 141 -174 q 121 -167 106 -155 q 92 -143 83 -125 q 74 -106 74 -82 l 74 -82 q 74 -60 83 -40 q 91 -21 105 -6 q 120 8 140 16 q 160 24 183 24 l 183 24 l 360 24 q 377 24 396 29 q 416 34 432 44 q 448 54 458 69 q 469 84 469 104 l 469 104 q 469 123 459 136 q 450 148 435 156 q 421 164 404 167 q 387 170 372 170 l 372 170 l 372 223 q 390 223 407 228 q 424 234 438 245 q 451 255 459 271 q 468 286 468 306 l 468 306 q 468 333 453 351 q 438 370 416 381 q 394 392 368 396 q 342 400 320 400 l 320 400 q 288 400 255 392 q 223 384 195 368 q 167 352 146 326 q 125 301 116 267 l 116 267 l 122 264 q 137 288 162 304 q 187 320 216 320 l 216 320 q 242 320 263 310 q 284 299 298 281 q 312 263 320 240 q 327 217 327 192 l 327 192 q 327 166 319 142 q 310 118 294 100 q 279 83 256 72 q 234 62 206 62 l 206 62 q 174 62 150 75 q 125 89 108 112 q 91 135 83 163 q 74 192 74 221 l 74 221 q 74 277 95 319 q 116 362 152 390 q 187 419 234 434 q 281 448 333 448 l 333 448 q 354 448 379 444 q 403 440 428 433 q 453 425 476 413 q 499 400 517 384 q 534 367 545 346 q 556 325 556 300 l 556 300 q 556 283 550 267 q 543 252 533 239 q 523 226 510 215 q 497 204 482 196 l 482 196 q 498 190 511 181 q 525 172 535 160 q 544 148 550 134 q 556 119 556 102 l 556 102 q 556 73 542 51 q 529 28 509 13 q 488 -3 462 -11 q 436 -20 410 -20 l 410 -20 l 183 -20 q 173 -20 163 -22 q 152 -25 144 -31 q 136 -37 130 -45 q 125 -54 125 -65 l 125 -65 q 125 -77 131 -84 q 136 -92 145 -97 q 153 -102 163 -104 q 173 -106 183 -106 l 183 -106 l 558 -106 l 558 -180 z m 261 194 l 261 194 q 261 208 257 222 q 253 237 246 249 q 238 261 227 269 q 215 276 198 276 l 198 276 q 183 276 172 269 q 162 261 155 249 q 147 237 144 223 q 141 209 141 196 l 141 196 q 141 183 144 167 q 147 152 155 140 q 162 127 173 119 q 185 110 200 110 l 200 110 q 217 110 228 118 q 240 126 247 139 q 254 151 258 166 q 261 181 261 194 z"},"ഴ":{"ha":517,"x_min":77,"x_max":519,"o":"m 519 300 l 519 300 q 519 274 510 250 q 501 225 482 202 q 463 180 434 162 q 405 144 364 133 l 364 133 q 369 120 371 109 q 374 97 374 86 l 374 86 q 374 65 366 48 q 357 31 342 18 q 327 6 306 -1 q 285 -8 259 -8 l 259 -8 q 239 -8 219 -4 q 199 -1 182 7 q 164 15 149 28 q 134 42 123 62 l 123 62 l 148 88 q 152 74 161 63 q 170 53 182 47 q 193 40 207 37 q 221 34 234 34 l 234 34 q 266 34 281 52 q 296 69 296 94 l 296 94 q 296 111 290 127 l 290 127 q 241 127 201 143 q 162 159 134 185 q 106 210 92 244 q 77 277 77 313 l 77 313 q 77 350 95 386 q 113 423 152 450 l 152 450 l 188 416 q 171 395 163 367 q 154 340 154 312 l 154 312 q 154 283 162 256 q 170 229 187 208 q 203 187 227 174 q 250 161 282 161 l 282 161 q 262 190 250 228 q 238 266 238 304 l 238 304 q 238 341 249 369 q 260 396 278 414 q 295 431 319 440 q 342 448 366 448 l 366 448 q 401 448 429 436 q 458 423 477 403 q 497 382 508 355 q 519 329 519 300 z m 474 298 l 474 298 q 474 317 468 334 q 462 352 451 365 q 440 378 425 386 q 409 394 390 394 l 390 394 q 375 394 361 388 q 347 382 336 371 q 326 359 319 341 q 313 323 313 298 l 313 298 q 313 280 316 261 q 319 242 324 224 q 330 207 337 191 q 344 175 352 163 l 352 163 q 384 170 407 184 q 431 198 445 217 q 460 235 467 256 q 474 277 474 298 z"},"വ":{"ha":716,"x_min":76,"x_max":716,"o":"m 716 0 l 322 0 l 322 20 q 344 35 363 54 q 382 74 397 96 q 412 118 420 143 q 429 168 429 196 l 429 196 q 429 238 415 271 q 402 303 380 324 q 358 346 330 357 q 302 368 272 368 l 272 368 q 235 368 206 354 q 177 339 158 315 q 139 291 129 260 q 119 229 119 196 l 119 196 q 119 170 125 145 q 132 120 144 97 q 157 74 176 54 q 194 35 220 22 l 220 22 l 203 -10 q 170 8 146 33 q 123 58 107 87 q 91 117 84 149 q 76 182 76 215 l 76 215 q 76 259 90 302 q 104 344 132 376 q 160 409 201 428 q 243 448 297 448 l 297 448 q 337 448 376 434 q 415 420 445 393 q 475 365 493 323 q 512 282 512 227 l 512 227 q 512 172 489 123 q 465 74 429 34 l 429 34 l 633 34 l 633 440 l 716 440 l 716 0 z"},"ശ":{"ha":786,"x_min":77,"x_max":786,"o":"m 786 187 l 786 187 q 786 148 777 113 q 767 77 749 50 q 730 23 703 7 q 676 -10 641 -10 l 641 -10 q 615 -10 590 1 q 566 12 547 32 q 528 53 516 82 q 505 111 505 148 l 505 148 q 505 184 513 216 q 522 248 538 277 q 554 305 576 330 q 598 355 625 377 l 625 377 q 604 395 583 403 q 562 411 543 411 l 543 411 q 517 411 494 398 q 472 385 455 362 q 438 339 429 309 q 420 278 420 244 l 420 244 l 420 171 q 420 126 406 93 q 392 59 369 36 q 347 14 317 2 q 288 -10 257 -10 l 257 -10 q 224 -10 192 4 q 160 17 134 45 q 108 72 93 114 q 77 155 77 212 l 77 212 q 77 248 86 283 q 94 318 112 349 q 129 380 156 406 q 183 432 220 448 l 220 448 l 242 423 q 210 409 188 387 q 165 366 150 339 q 135 312 128 282 q 121 251 121 221 l 121 221 q 121 181 133 149 q 145 117 164 95 q 183 73 206 61 q 229 49 253 49 l 253 49 q 271 49 288 57 q 305 65 318 82 q 331 99 339 125 q 347 152 347 188 l 347 188 l 347 190 l 347 256 q 347 305 363 341 q 378 378 405 402 q 432 426 466 438 q 500 450 538 450 l 538 450 q 583 450 627 433 q 671 417 706 384 q 742 351 764 301 q 786 251 786 187 z m 708 175 l 708 175 q 708 200 704 227 q 700 253 692 277 q 685 301 674 321 q 663 341 650 354 l 650 354 q 629 336 609 316 q 590 295 575 272 q 561 249 552 222 q 543 195 543 166 l 543 166 q 543 141 551 120 q 558 99 571 84 q 583 69 599 60 q 615 52 631 52 l 631 52 q 651 52 666 62 q 681 71 690 88 q 699 105 704 127 q 708 150 708 175 z"},"ഷ":{"ha":921,"x_min":74,"x_max":921,"o":"m 921 0 l 265 0 l 265 7 q 283 19 297 33 q 311 48 319 64 q 328 80 333 97 q 337 114 337 131 l 337 131 q 337 157 328 176 q 320 196 305 209 q 291 222 272 228 q 254 234 234 234 l 234 234 q 213 234 193 227 q 173 219 157 205 q 141 190 131 168 q 121 146 121 116 l 121 116 q 121 88 134 61 q 146 33 173 15 l 173 15 l 143 -10 q 109 16 92 53 q 74 90 74 130 l 74 130 q 74 171 89 202 q 104 233 129 254 q 153 275 185 285 q 216 296 248 296 l 248 296 q 280 296 311 285 q 342 275 367 254 q 391 234 406 203 q 421 172 421 132 l 421 132 q 421 106 412 81 q 402 56 384 34 l 384 34 l 576 34 l 576 178 q 545 178 517 189 q 488 201 466 221 q 444 242 430 269 q 417 296 417 328 l 417 328 q 417 354 427 375 q 438 397 456 414 q 473 430 496 439 q 519 448 544 448 l 544 448 q 583 448 606 434 q 629 419 641 395 q 653 372 657 342 q 660 312 660 282 l 660 282 q 660 265 659 248 q 658 231 658 215 l 658 215 q 681 221 705 234 q 729 247 753 265 q 777 282 800 303 q 822 325 841 348 q 859 371 873 394 q 887 418 895 440 l 895 440 l 921 440 l 921 0 z m 842 34 l 842 312 q 826 292 805 272 q 783 251 759 234 q 735 216 709 202 q 683 189 658 184 l 658 184 l 658 34 l 842 34 z m 576 212 l 576 331 q 576 359 563 376 q 550 393 521 393 l 521 393 q 507 393 497 386 q 487 379 481 368 q 475 357 472 345 q 469 332 469 320 l 469 320 q 469 297 477 278 q 486 259 500 245 q 515 231 535 222 q 554 214 576 212 l 576 212 z"},"സ":{"ha":978,"x_min":72,"x_max":977,"o":"m 977 207 l 977 207 q 977 166 966 127 q 955 89 933 59 q 912 30 879 12 q 846 -6 803 -6 l 803 -6 q 771 -6 740 6 q 710 18 686 40 q 663 62 648 94 q 634 126 634 168 l 634 168 l 634 242 q 634 287 624 318 q 614 349 598 368 q 582 387 561 396 q 541 404 521 404 l 521 404 q 502 404 484 398 q 467 392 453 381 q 439 370 431 354 q 423 339 423 322 l 423 322 l 423 4 l 339 4 l 339 280 q 339 309 332 330 q 324 351 312 365 q 299 379 283 386 q 267 393 249 393 l 249 393 q 226 393 202 381 q 178 370 159 349 q 140 328 127 297 q 115 266 115 226 l 115 226 q 115 194 121 163 q 127 132 141 105 q 155 78 177 56 q 199 34 230 20 l 230 20 l 203 -6 q 167 13 142 40 q 117 67 102 99 q 86 130 79 166 q 72 202 72 238 l 72 238 q 72 289 88 329 q 104 369 131 396 q 157 424 191 439 q 226 454 262 454 l 262 454 q 300 454 337 437 q 374 419 403 380 l 403 380 q 429 417 464 435 q 500 452 537 452 l 537 452 q 568 452 599 440 q 629 428 653 406 q 676 384 691 353 q 705 321 705 282 l 705 282 l 705 196 q 705 162 714 135 q 723 108 738 91 q 753 73 773 64 q 792 55 813 55 l 813 55 q 841 55 863 69 q 885 83 900 106 q 915 129 923 159 q 931 189 931 223 l 931 223 q 931 253 924 284 q 917 314 902 342 q 887 369 864 392 q 841 415 810 429 l 810 429 l 837 452 q 874 434 901 407 q 927 380 944 348 q 961 315 969 279 q 977 243 977 207 z"},"ഹ":{"ha":978,"x_min":74,"x_max":978,"o":"m 978 217 l 978 217 q 978 182 968 148 q 959 113 940 83 q 921 53 893 29 q 865 4 826 -10 l 826 -10 l 798 30 q 823 43 841 61 q 859 80 871 101 q 883 123 889 146 q 895 170 895 194 l 895 194 q 895 237 881 270 q 867 302 844 323 q 821 345 792 355 q 763 366 732 366 l 732 366 q 702 366 673 355 q 644 345 621 323 q 599 302 584 271 q 570 240 570 198 l 570 198 q 570 169 579 140 q 587 111 604 87 q 621 62 646 43 q 670 25 703 17 l 703 17 l 703 0 l 255 0 l 255 17 q 273 22 287 34 q 300 45 310 60 q 319 75 323 93 q 328 110 328 127 l 328 127 q 328 152 320 171 q 311 189 297 202 q 283 214 265 220 q 247 226 229 226 l 229 226 q 208 226 189 219 q 169 212 154 198 q 139 185 129 165 q 120 145 120 119 l 120 119 q 120 88 134 60 q 147 32 173 15 l 173 15 l 143 -10 q 109 15 92 52 q 74 90 74 131 l 74 131 q 74 170 89 200 q 103 229 127 249 q 150 268 180 278 q 210 287 242 287 l 242 287 q 274 287 304 277 q 335 268 359 248 q 383 229 397 200 q 412 172 412 135 l 412 135 q 412 108 403 83 q 394 57 374 34 l 374 34 l 604 34 q 564 70 545 116 q 526 162 526 209 l 526 209 q 526 268 546 313 q 566 357 599 387 q 631 417 673 431 q 714 446 757 446 l 757 446 q 798 446 838 432 q 878 418 909 389 q 940 361 959 318 q 978 274 978 217 z"},"ഺ":{"ha":1000,"x_min":72,"x_max":668,"o":"m 668 221 l 668 221 q 668 180 657 141 q 646 103 627 70 q 608 37 581 10 q 554 -17 521 -37 q 488 -56 450 -67 q 412 -77 371 -77 l 371 -77 q 309 -77 255 -54 q 200 -31 160 10 q 119 50 96 104 q 72 158 72 220 l 72 220 q 72 282 96 336 q 119 390 160 430 q 200 471 254 494 q 309 518 370 518 l 370 518 q 432 518 486 494 q 540 471 581 430 q 621 390 645 336 q 668 282 668 221 z m 636 219 l 636 219 q 636 275 615 324 q 593 373 557 410 q 520 446 471 467 q 422 488 366 488 l 366 488 q 311 488 261 467 q 212 446 176 410 q 139 373 118 324 q 97 275 97 219 l 97 219 q 97 163 118 114 q 139 64 176 28 q 212 -9 261 -30 q 311 -52 366 -52 l 366 -52 q 422 -52 471 -30 q 520 -9 557 28 q 593 64 615 114 q 636 163 636 219 z m 526 68 l 455 -3 q 447 9 444 22 q 440 36 438 50 q 435 64 431 77 q 427 90 416 101 l 416 101 q 409 108 404 116 q 398 124 394 132 q 389 140 383 148 q 377 156 369 165 l 369 165 q 362 170 356 175 q 351 180 344 183 l 344 183 q 335 183 328 183 q 320 184 312 184 l 312 184 q 311 163 311 143 q 311 124 311 104 l 311 104 l 236 30 q 236 107 240 184 q 244 262 248 334 l 248 334 l 276 362 q 265 362 253 361 q 242 360 232 358 l 232 358 l 307 434 q 327 437 355 437 q 383 437 412 432 q 441 428 467 419 q 492 410 507 395 l 507 395 q 516 386 520 369 q 523 351 523 332 q 523 313 519 296 q 515 279 509 272 l 509 272 l 455 218 q 465 205 471 193 q 478 181 490 169 l 490 169 q 501 158 505 145 q 509 131 511 118 q 514 104 516 92 q 519 79 526 68 l 526 68 z m 448 258 l 448 258 q 450 278 447 297 q 444 315 436 324 l 436 324 q 427 333 415 339 q 402 346 387 350 q 372 354 354 357 q 337 359 320 360 l 320 360 q 317 321 316 280 q 314 240 312 200 l 312 200 l 370 258 q 380 263 391 262 q 401 261 411 257 l 411 257 q 420 257 430 257 q 439 257 448 258 z"},"഻":{"ha":1000,"x_min":72,"x_max":668,"o":"m 668 221 l 668 221 q 668 180 657 141 q 646 103 627 70 q 608 37 581 10 q 554 -17 521 -37 q 488 -56 450 -67 q 412 -77 371 -77 l 371 -77 q 309 -77 255 -54 q 200 -31 160 10 q 119 50 96 104 q 72 158 72 220 l 72 220 q 72 282 96 336 q 119 390 160 430 q 200 471 254 494 q 309 518 370 518 l 370 518 q 432 518 486 494 q 540 471 581 430 q 621 390 645 336 q 668 282 668 221 z m 636 219 l 636 219 q 636 275 615 324 q 593 373 557 410 q 520 446 471 467 q 422 488 366 488 l 366 488 q 311 488 261 467 q 212 446 176 410 q 139 373 118 324 q 97 275 97 219 l 97 219 q 97 163 118 114 q 139 64 176 28 q 212 -9 261 -30 q 311 -52 366 -52 l 366 -52 q 422 -52 471 -30 q 520 -9 557 28 q 593 64 615 114 q 636 163 636 219 z m 526 68 l 455 -3 q 447 9 444 22 q 440 36 438 50 q 435 64 431 77 q 427 90 416 101 l 416 101 q 409 108 404 116 q 398 124 394 132 q 389 140 383 148 q 377 156 369 165 l 369 165 q 362 170 356 175 q 351 180 344 183 l 344 183 q 335 183 328 183 q 320 184 312 184 l 312 184 q 311 163 311 143 q 311 124 311 104 l 311 104 l 236 30 q 236 107 240 184 q 244 262 248 334 l 248 334 l 276 362 q 265 362 253 361 q 242 360 232 358 l 232 358 l 307 434 q 327 437 355 437 q 383 437 412 432 q 441 428 467 419 q 492 410 507 395 l 507 395 q 516 386 520 369 q 523 351 523 332 q 523 313 519 296 q 515 279 509 272 l 509 272 l 455 218 q 465 205 471 193 q 478 181 490 169 l 490 169 q 501 158 505 145 q 509 131 511 118 q 514 104 516 92 q 519 79 526 68 l 526 68 z m 448 258 l 448 258 q 450 278 447 297 q 444 315 436 324 l 436 324 q 427 333 415 339 q 402 346 387 350 q 372 354 354 357 q 337 359 320 360 l 320 360 q 317 321 316 280 q 314 240 312 200 l 312 200 l 370 258 q 380 263 391 262 q 401 261 411 257 l 411 257 q 420 257 430 257 q 439 257 448 258 z"},"഼":{"ha":1000,"x_min":72,"x_max":668,"o":"m 668 221 l 668 221 q 668 180 657 141 q 646 103 627 70 q 608 37 581 10 q 554 -17 521 -37 q 488 -56 450 -67 q 412 -77 371 -77 l 371 -77 q 309 -77 255 -54 q 200 -31 160 10 q 119 50 96 104 q 72 158 72 220 l 72 220 q 72 282 96 336 q 119 390 160 430 q 200 471 254 494 q 309 518 370 518 l 370 518 q 432 518 486 494 q 540 471 581 430 q 621 390 645 336 q 668 282 668 221 z m 636 219 l 636 219 q 636 275 615 324 q 593 373 557 410 q 520 446 471 467 q 422 488 366 488 l 366 488 q 311 488 261 467 q 212 446 176 410 q 139 373 118 324 q 97 275 97 219 l 97 219 q 97 163 118 114 q 139 64 176 28 q 212 -9 261 -30 q 311 -52 366 -52 l 366 -52 q 422 -52 471 -30 q 520 -9 557 28 q 593 64 615 114 q 636 163 636 219 z m 526 68 l 455 -3 q 447 9 444 22 q 440 36 438 50 q 435 64 431 77 q 427 90 416 101 l 416 101 q 409 108 404 116 q 398 124 394 132 q 389 140 383 148 q 377 156 369 165 l 369 165 q 362 170 356 175 q 351 180 344 183 l 344 183 q 335 183 328 183 q 320 184 312 184 l 312 184 q 311 163 311 143 q 311 124 311 104 l 311 104 l 236 30 q 236 107 240 184 q 244 262 248 334 l 248 334 l 276 362 q 265 362 253 361 q 242 360 232 358 l 232 358 l 307 434 q 327 437 355 437 q 383 437 412 432 q 441 428 467 419 q 492 410 507 395 l 507 395 q 516 386 520 369 q 523 351 523 332 q 523 313 519 296 q 515 279 509 272 l 509 272 l 455 218 q 465 205 471 193 q 478 181 490 169 l 490 169 q 501 158 505 145 q 509 131 511 118 q 514 104 516 92 q 519 79 526 68 l 526 68 z m 448 258 l 448 258 q 450 278 447 297 q 444 315 436 324 l 436 324 q 427 333 415 339 q 402 346 387 350 q 372 354 354 357 q 337 359 320 360 l 320 360 q 317 321 316 280 q 314 240 312 200 l 312 200 l 370 258 q 380 263 391 262 q 401 261 411 257 l 411 257 q 420 257 430 257 q 439 257 448 258 z"},"ഽ":{"ha":376,"x_min":72,"x_max":380,"o":"m 116 182 l 116 237 l 358 299 l 358 244 l 116 182 z m 354 514 l 354 514 q 342 514 337 522 q 331 530 331 543 l 331 543 q 331 550 334 556 q 337 562 337 568 l 337 568 q 337 573 332 573 l 332 573 q 327 573 323 566 q 319 560 315 548 q 312 537 308 522 q 305 507 302 492 l 302 492 q 298 476 295 459 q 292 443 290 429 q 288 415 287 404 q 286 393 285 388 l 285 388 q 277 330 268 274 q 260 219 251 161 l 251 161 q 249 144 245 121 q 241 98 236 72 q 231 46 225 20 q 219 -7 211 -32 l 211 -32 q 204 -57 194 -79 q 185 -102 173 -120 q 161 -137 146 -148 q 132 -158 114 -158 l 114 -158 q 95 -158 84 -147 q 72 -135 72 -110 l 72 -110 q 72 -104 74 -97 q 75 -89 78 -83 q 82 -76 86 -72 q 91 -67 98 -67 l 98 -67 q 110 -67 117 -75 q 124 -82 124 -97 l 124 -97 q 124 -101 121 -109 q 119 -117 117 -121 l 117 -121 q 119 -123 120 -123 l 120 -123 q 127 -123 134 -111 q 141 -100 147 -82 q 153 -63 158 -42 q 163 -20 167 1 q 171 21 173 37 q 176 54 177 61 l 177 61 l 234 409 q 236 423 240 443 q 245 462 250 484 q 256 505 264 526 q 272 547 283 564 q 293 581 306 591 q 318 602 334 602 l 334 602 q 343 602 352 599 q 360 596 366 590 q 373 583 376 574 q 380 564 380 552 l 380 552 q 380 545 379 538 q 377 531 375 526 q 372 521 366 517 q 361 514 354 514 z"},"ാ":{"ha":404,"x_min":77,"x_max":400,"o":"m 400 217 l 400 217 q 400 191 396 164 q 392 137 383 111 q 374 86 360 63 q 346 41 327 24 q 308 8 283 -2 q 259 -12 229 -12 l 229 -12 q 198 -12 171 1 q 144 14 123 36 q 103 58 90 87 q 78 116 77 148 l 77 148 l 108 148 q 111 128 119 110 q 127 92 140 78 q 152 64 168 56 q 185 48 204 48 l 204 48 q 226 48 244 57 q 261 65 274 80 q 288 95 297 114 q 306 133 311 153 q 317 174 320 194 q 322 215 322 232 l 322 232 q 322 249 320 267 q 318 286 313 305 q 308 324 299 342 q 291 359 279 373 q 267 386 251 394 q 235 402 215 402 l 215 402 q 193 402 174 393 q 154 383 140 367 q 125 351 117 330 q 108 310 108 287 l 108 287 l 108 272 l 77 272 l 77 282 q 77 315 88 345 q 98 375 117 399 q 137 422 164 436 q 191 450 226 450 l 226 450 q 256 450 281 440 q 306 430 326 413 q 345 396 359 373 q 373 350 382 324 q 392 298 396 271 q 400 243 400 217 z"},"ി":{"ha":284,"x_min":-39,"x_max":255,"o":"m 255 0 l 171 0 l 171 446 q 171 472 163 490 q 156 509 143 521 q 131 533 115 539 q 100 545 83 545 l 83 545 q 66 545 50 539 q 34 533 22 522 q 9 511 2 495 q -5 479 -5 458 l -5 458 l -39 458 q -39 494 -25 520 q -12 547 9 565 q 30 583 57 592 q 84 601 112 601 l 112 601 q 139 601 165 592 q 190 584 210 567 q 230 550 243 525 q 255 500 255 467 l 255 467 l 255 0 z"},"ീ":{"ha":324,"x_min":2,"x_max":298,"o":"m 298 0 l 215 0 l 215 446 q 215 466 209 487 q 203 508 192 525 q 180 542 163 552 q 146 563 124 563 l 124 563 q 117 563 110 562 q 103 561 96 559 l 96 559 q 114 556 127 548 q 141 540 150 528 q 159 517 163 502 q 168 488 168 474 l 168 474 q 168 454 161 438 q 154 423 143 413 q 132 403 117 398 q 103 393 88 393 l 88 393 q 72 393 57 398 q 42 404 29 415 q 17 426 10 443 q 2 460 2 482 l 2 482 q 2 503 11 524 q 20 545 38 562 q 56 579 83 590 q 111 601 148 601 l 148 601 q 176 601 203 593 q 230 584 251 568 q 272 551 285 526 q 298 501 298 467 l 298 467 l 298 0 z m 136 478 l 136 478 q 136 488 131 499 q 127 510 117 519 q 108 528 94 533 q 79 539 60 539 l 60 539 q 46 529 40 515 q 34 500 34 484 l 34 484 q 34 469 38 458 q 42 448 49 441 q 56 434 64 430 q 73 427 83 427 l 83 427 q 92 427 102 430 q 111 434 119 440 q 126 447 131 456 q 136 466 136 478 z"},"ു":{"ha":276,"x_min":44,"x_max":269,"o":"m 269 -127 l 269 -127 q 269 -151 260 -173 q 252 -194 237 -211 q 223 -227 202 -237 q 181 -246 156 -246 l 156 -246 q 130 -246 110 -235 q 89 -225 74 -207 q 60 -189 52 -166 q 44 -144 44 -119 l 44 -119 q 44 -72 66 -40 q 88 -8 137 2 l 137 2 q 147 24 157 48 q 167 72 174 97 q 181 122 186 147 q 190 173 190 198 l 190 198 q 190 229 185 257 q 179 286 166 310 q 152 333 131 352 q 109 370 77 380 l 77 380 l 83 448 q 123 439 150 421 q 178 402 195 375 q 213 348 221 314 q 229 281 229 242 l 229 242 q 229 212 224 181 q 219 151 211 120 q 203 90 192 60 q 182 30 171 2 l 171 2 q 195 -3 213 -15 q 231 -27 243 -44 q 256 -61 262 -82 q 269 -104 269 -127 z m 218 -119 l 218 -119 q 218 -104 213 -90 q 208 -76 199 -65 q 189 -54 176 -47 q 163 -40 146 -40 l 146 -40 q 129 -40 116 -46 q 104 -53 94 -64 q 85 -75 81 -89 q 76 -104 76 -119 l 76 -119 q 76 -135 81 -149 q 86 -163 95 -174 q 104 -185 117 -191 q 130 -197 146 -197 l 146 -197 q 163 -197 176 -191 q 189 -185 199 -174 q 208 -163 213 -149 q 218 -135 218 -119 z"},"ൂ":{"ha":259,"x_min":40,"x_max":252,"o":"m 252 -119 l 252 -119 q 252 -141 244 -161 q 236 -182 222 -197 q 208 -213 188 -222 q 169 -231 146 -231 l 146 -231 q 122 -231 103 -221 q 83 -211 69 -195 q 55 -178 48 -156 q 40 -135 40 -112 l 40 -112 q 40 -66 62 -37 q 83 -8 129 2 l 129 2 q 138 23 147 45 q 156 68 163 91 q 170 114 175 138 q 179 162 179 185 l 179 185 q 179 214 173 241 q 167 268 155 291 q 142 313 122 330 q 102 347 72 356 l 72 356 l 78 421 q 115 413 141 395 q 167 377 183 352 q 200 327 207 295 q 215 264 215 228 l 215 228 q 215 199 210 170 q 206 142 198 113 q 191 84 181 56 q 171 28 161 2 l 161 2 q 185 -2 202 -13 q 220 -24 231 -40 q 242 -56 247 -76 q 252 -96 252 -119 z m 198 -81 l 198 -81 q 189 -63 174 -51 q 159 -38 137 -38 l 137 -38 q 114 -38 99 -50 q 84 -62 76 -83 l 76 -83 q 87 -96 102 -105 q 116 -115 135 -115 l 135 -115 q 155 -115 171 -106 q 187 -97 198 -81 z m 204 -110 l 204 -110 q 189 -122 173 -132 q 156 -142 136 -142 l 136 -142 q 126 -142 117 -139 q 108 -136 100 -131 q 92 -126 85 -121 q 77 -115 70 -109 l 70 -109 q 70 -124 75 -138 q 80 -151 88 -162 q 97 -173 109 -179 q 121 -186 137 -186 l 137 -186 q 153 -186 166 -180 q 178 -174 187 -164 q 195 -153 200 -140 q 204 -126 204 -110 z"},"ൃ":{"ha":379,"x_min":74,"x_max":381,"o":"m 381 -92 l 381 -92 q 381 -126 367 -155 q 353 -183 330 -203 q 307 -224 276 -235 q 246 -246 213 -246 l 213 -246 q 186 -246 161 -239 q 136 -232 116 -219 q 97 -205 86 -183 q 74 -161 74 -131 l 74 -131 q 74 -104 82 -81 q 90 -59 104 -42 q 119 -25 141 -15 q 163 -6 190 -6 l 190 -6 q 214 -6 234 -16 q 254 -27 269 -44 q 283 -61 292 -82 q 300 -103 300 -125 l 300 -125 q 300 -150 290 -172 q 280 -193 260 -208 l 260 -208 l 261 -212 q 281 -206 297 -194 q 313 -182 325 -165 q 336 -148 343 -129 q 349 -109 349 -89 l 349 -89 q 349 -65 339 -44 q 330 -23 315 -5 q 300 14 283 31 q 266 47 250 63 l 250 63 q 220 92 201 129 q 183 166 173 206 q 163 247 159 289 q 156 332 156 372 l 156 372 q 156 388 158 404 q 160 420 164 436 l 164 436 l 245 436 q 241 414 241 391 q 240 369 240 346 l 240 346 l 240 343 q 240 307 241 271 q 243 235 251 200 l 251 200 q 257 176 269 152 q 281 127 295 102 q 310 77 325 52 q 340 27 352 3 q 365 -21 373 -45 q 381 -69 381 -92 z m 268 -134 l 268 -134 q 268 -119 263 -105 q 258 -91 249 -80 q 239 -69 226 -62 q 213 -56 196 -56 l 196 -56 q 180 -56 167 -62 q 153 -68 144 -79 q 135 -90 130 -104 q 125 -118 125 -134 l 125 -134 q 125 -149 130 -163 q 135 -177 145 -188 q 154 -199 167 -205 q 181 -212 196 -212 l 196 -212 q 213 -212 226 -206 q 239 -199 249 -188 q 258 -178 263 -164 q 268 -149 268 -134 z"},"ൄ":{"ha":1000,"x_min":72,"x_max":668,"o":"m 668 221 l 668 221 q 668 180 657 141 q 646 103 627 70 q 608 37 581 10 q 554 -17 521 -37 q 488 -56 450 -67 q 412 -77 371 -77 l 371 -77 q 309 -77 255 -54 q 200 -31 160 10 q 119 50 96 104 q 72 158 72 220 l 72 220 q 72 282 96 336 q 119 390 160 430 q 200 471 254 494 q 309 518 370 518 l 370 518 q 432 518 486 494 q 540 471 581 430 q 621 390 645 336 q 668 282 668 221 z m 636 219 l 636 219 q 636 275 615 324 q 593 373 557 410 q 520 446 471 467 q 422 488 366 488 l 366 488 q 311 488 261 467 q 212 446 176 410 q 139 373 118 324 q 97 275 97 219 l 97 219 q 97 163 118 114 q 139 64 176 28 q 212 -9 261 -30 q 311 -52 366 -52 l 366 -52 q 422 -52 471 -30 q 520 -9 557 28 q 593 64 615 114 q 636 163 636 219 z m 526 68 l 455 -3 q 447 9 444 22 q 440 36 438 50 q 435 64 431 77 q 427 90 416 101 l 416 101 q 409 108 404 116 q 398 124 394 132 q 389 140 383 148 q 377 156 369 165 l 369 165 q 362 170 356 175 q 351 180 344 183 l 344 183 q 335 183 328 183 q 320 184 312 184 l 312 184 q 311 163 311 143 q 311 124 311 104 l 311 104 l 236 30 q 236 107 240 184 q 244 262 248 334 l 248 334 l 276 362 q 265 362 253 361 q 242 360 232 358 l 232 358 l 307 434 q 327 437 355 437 q 383 437 412 432 q 441 428 467 419 q 492 410 507 395 l 507 395 q 516 386 520 369 q 523 351 523 332 q 523 313 519 296 q 515 279 509 272 l 509 272 l 455 218 q 465 205 471 193 q 478 181 490 169 l 490 169 q 501 158 505 145 q 509 131 511 118 q 514 104 516 92 q 519 79 526 68 l 526 68 z m 448 258 l 448 258 q 450 278 447 297 q 444 315 436 324 l 436 324 q 427 333 415 339 q 402 346 387 350 q 372 354 354 357 q 337 359 320 360 l 320 360 q 317 321 316 280 q 314 240 312 200 l 312 200 l 370 258 q 380 263 391 262 q 401 261 411 257 l 411 257 q 420 257 430 257 q 439 257 448 258 z"},"൅":{"ha":1000,"x_min":72,"x_max":668,"o":"m 668 221 l 668 221 q 668 180 657 141 q 646 103 627 70 q 608 37 581 10 q 554 -17 521 -37 q 488 -56 450 -67 q 412 -77 371 -77 l 371 -77 q 309 -77 255 -54 q 200 -31 160 10 q 119 50 96 104 q 72 158 72 220 l 72 220 q 72 282 96 336 q 119 390 160 430 q 200 471 254 494 q 309 518 370 518 l 370 518 q 432 518 486 494 q 540 471 581 430 q 621 390 645 336 q 668 282 668 221 z m 636 219 l 636 219 q 636 275 615 324 q 593 373 557 410 q 520 446 471 467 q 422 488 366 488 l 366 488 q 311 488 261 467 q 212 446 176 410 q 139 373 118 324 q 97 275 97 219 l 97 219 q 97 163 118 114 q 139 64 176 28 q 212 -9 261 -30 q 311 -52 366 -52 l 366 -52 q 422 -52 471 -30 q 520 -9 557 28 q 593 64 615 114 q 636 163 636 219 z m 526 68 l 455 -3 q 447 9 444 22 q 440 36 438 50 q 435 64 431 77 q 427 90 416 101 l 416 101 q 409 108 404 116 q 398 124 394 132 q 389 140 383 148 q 377 156 369 165 l 369 165 q 362 170 356 175 q 351 180 344 183 l 344 183 q 335 183 328 183 q 320 184 312 184 l 312 184 q 311 163 311 143 q 311 124 311 104 l 311 104 l 236 30 q 236 107 240 184 q 244 262 248 334 l 248 334 l 276 362 q 265 362 253 361 q 242 360 232 358 l 232 358 l 307 434 q 327 437 355 437 q 383 437 412 432 q 441 428 467 419 q 492 410 507 395 l 507 395 q 516 386 520 369 q 523 351 523 332 q 523 313 519 296 q 515 279 509 272 l 509 272 l 455 218 q 465 205 471 193 q 478 181 490 169 l 490 169 q 501 158 505 145 q 509 131 511 118 q 514 104 516 92 q 519 79 526 68 l 526 68 z m 448 258 l 448 258 q 450 278 447 297 q 444 315 436 324 l 436 324 q 427 333 415 339 q 402 346 387 350 q 372 354 354 357 q 337 359 320 360 l 320 360 q 317 321 316 280 q 314 240 312 200 l 312 200 l 370 258 q 380 263 391 262 q 401 261 411 257 l 411 257 q 420 257 430 257 q 439 257 448 258 z"},"െ":{"ha":543,"x_min":76,"x_max":540,"o":"m 540 208 l 540 208 q 540 176 533 145 q 526 114 511 86 q 496 57 473 32 q 450 7 419 -12 l 419 -12 l 370 11 q 394 29 411 50 q 427 71 438 95 q 448 119 452 144 q 457 170 457 196 l 457 196 q 457 245 443 283 q 428 320 405 345 q 381 371 351 384 q 321 396 289 396 l 289 396 q 258 396 229 384 q 199 372 174 347 q 149 322 132 283 q 114 245 108 192 l 108 192 l 112 190 q 135 228 162 245 q 189 262 217 262 l 217 262 q 245 262 267 249 q 289 236 303 216 q 318 195 326 169 q 334 143 334 116 l 334 116 q 334 92 327 69 q 320 46 306 28 q 292 10 270 -1 q 249 -12 219 -12 l 219 -12 q 184 -12 157 4 q 130 20 112 47 q 94 74 85 109 q 76 144 76 182 l 76 182 q 76 250 96 300 q 117 350 150 384 q 183 417 226 434 q 268 450 313 450 l 313 450 q 355 450 396 435 q 437 419 469 389 q 501 359 521 313 q 540 268 540 208 z m 269 128 l 269 128 q 269 144 264 159 q 260 174 251 186 q 242 198 229 206 q 216 213 198 213 l 198 213 q 180 213 167 206 q 153 199 144 187 q 135 176 131 161 q 126 146 126 131 l 126 131 q 126 115 131 100 q 135 85 145 73 q 154 62 168 54 q 182 47 200 47 l 200 47 q 218 47 231 54 q 244 61 252 72 q 260 83 264 98 q 269 112 269 128 z"},"േ":{"ha":479,"x_min":76,"x_max":478,"o":"m 478 327 l 478 327 q 478 305 470 288 q 462 272 449 261 q 436 250 419 245 q 403 240 386 240 l 386 240 q 368 240 351 246 q 334 251 321 261 q 308 271 299 287 q 291 302 291 322 l 291 322 q 291 344 301 366 q 312 388 333 406 l 333 406 q 325 411 316 412 q 308 414 300 414 l 300 414 q 262 414 234 397 q 207 381 188 354 q 169 327 160 292 q 150 257 150 221 l 150 221 q 150 184 160 149 q 169 114 188 86 q 207 58 234 41 q 262 24 300 24 l 300 24 q 308 24 316 26 q 325 28 333 32 l 333 32 q 310 46 300 65 q 290 84 290 104 l 290 104 q 290 125 299 142 q 308 159 322 170 q 335 181 353 187 q 371 192 389 192 l 389 192 q 405 192 421 188 q 438 183 450 172 q 462 162 470 147 q 478 131 478 110 l 478 110 q 478 82 464 59 q 450 37 427 22 q 404 6 373 -2 q 343 -10 310 -10 l 310 -10 q 251 -10 208 10 q 164 29 135 62 q 105 94 91 135 q 76 176 76 220 l 76 220 q 76 263 91 304 q 105 345 134 377 q 163 409 206 429 q 250 448 308 448 l 308 448 q 341 448 372 440 q 402 432 426 417 q 449 401 463 379 q 478 356 478 327 z m 444 329 l 444 329 q 444 340 441 351 q 437 362 430 371 q 422 380 411 387 q 399 395 384 398 l 384 398 q 374 393 366 385 q 359 376 353 366 q 348 355 345 344 q 342 333 342 322 l 342 322 q 342 310 346 300 q 350 291 357 285 q 364 279 372 276 q 381 272 390 272 l 390 272 q 400 272 410 276 q 419 280 427 287 q 435 294 440 305 q 444 315 444 329 z m 444 110 l 444 110 q 444 122 440 131 q 435 141 428 147 q 420 153 411 157 q 401 160 392 160 l 392 160 q 382 160 373 157 q 364 154 357 148 q 350 142 346 132 q 342 123 342 110 l 342 110 q 342 91 353 71 q 363 51 384 39 l 384 39 q 399 42 410 50 q 421 58 429 67 q 437 77 440 88 q 444 99 444 110 z"},"ൈ":{"ha":1070,"x_min":76,"x_max":1070,"o":"m 540 208 l 540 208 q 540 176 533 145 q 526 114 511 86 q 496 57 473 32 q 450 7 419 -12 l 419 -12 l 370 11 q 394 29 411 50 q 427 71 438 95 q 448 119 452 144 q 457 170 457 196 l 457 196 q 457 245 443 283 q 428 320 405 345 q 381 371 351 384 q 321 396 289 396 l 289 396 q 258 396 229 384 q 199 372 174 347 q 149 322 132 283 q 114 245 108 192 l 108 192 l 112 190 q 135 228 162 245 q 189 262 217 262 l 217 262 q 245 262 267 249 q 289 236 303 216 q 318 195 326 169 q 334 143 334 116 l 334 116 q 334 92 327 69 q 320 46 306 28 q 292 10 270 -1 q 249 -12 219 -12 l 219 -12 q 184 -12 157 4 q 130 20 112 47 q 94 74 85 109 q 76 144 76 182 l 76 182 q 76 250 96 300 q 117 350 150 384 q 183 417 226 434 q 268 450 313 450 l 313 450 q 355 450 396 435 q 437 419 469 389 q 501 359 521 313 q 540 268 540 208 z m 269 128 l 269 128 q 269 144 264 159 q 260 174 251 186 q 242 198 229 206 q 216 213 198 213 l 198 213 q 180 213 167 206 q 153 199 144 187 q 135 176 131 161 q 126 146 126 131 l 126 131 q 126 115 131 100 q 135 85 145 73 q 154 62 168 54 q 182 47 200 47 l 200 47 q 218 47 231 54 q 244 61 252 72 q 260 83 264 98 q 269 112 269 128 z m 1070 208 l 1070 208 q 1070 176 1063 145 q 1056 114 1041 86 q 1026 57 1003 32 q 979 7 948 -12 l 948 -12 l 900 11 q 924 29 941 50 q 957 71 967 95 q 978 119 982 144 q 986 170 986 196 l 986 196 q 986 245 972 283 q 958 320 935 345 q 911 371 881 384 q 851 396 818 396 l 818 396 q 788 396 758 384 q 728 372 704 347 q 679 322 662 283 q 645 245 639 192 l 639 192 l 642 190 q 665 228 692 245 q 720 262 747 262 l 747 262 q 775 262 797 249 q 819 236 834 216 q 849 195 856 169 q 864 143 864 116 l 864 116 q 864 92 857 69 q 851 46 836 28 q 822 10 801 -1 q 779 -12 749 -12 l 749 -12 q 713 -12 687 4 q 660 20 642 47 q 625 74 615 109 q 606 144 606 182 l 606 182 q 606 250 627 300 q 647 350 680 384 q 713 417 756 434 q 798 450 843 450 l 843 450 q 886 450 927 435 q 967 419 999 389 q 1031 359 1051 313 q 1070 268 1070 208 z m 799 128 l 799 128 q 799 144 794 159 q 790 174 781 186 q 772 198 759 206 q 745 213 728 213 l 728 213 q 709 213 696 206 q 683 199 674 187 q 665 176 661 161 q 656 146 656 131 l 656 131 q 656 115 661 100 q 666 85 675 73 q 684 62 698 54 q 712 47 730 47 l 730 47 q 748 47 760 54 q 773 61 782 72 q 791 83 795 98 q 799 112 799 128 z"},"൉":{"ha":1000,"x_min":72,"x_max":668,"o":"m 668 221 l 668 221 q 668 180 657 141 q 646 103 627 70 q 608 37 581 10 q 554 -17 521 -37 q 488 -56 450 -67 q 412 -77 371 -77 l 371 -77 q 309 -77 255 -54 q 200 -31 160 10 q 119 50 96 104 q 72 158 72 220 l 72 220 q 72 282 96 336 q 119 390 160 430 q 200 471 254 494 q 309 518 370 518 l 370 518 q 432 518 486 494 q 540 471 581 430 q 621 390 645 336 q 668 282 668 221 z m 636 219 l 636 219 q 636 275 615 324 q 593 373 557 410 q 520 446 471 467 q 422 488 366 488 l 366 488 q 311 488 261 467 q 212 446 176 410 q 139 373 118 324 q 97 275 97 219 l 97 219 q 97 163 118 114 q 139 64 176 28 q 212 -9 261 -30 q 311 -52 366 -52 l 366 -52 q 422 -52 471 -30 q 520 -9 557 28 q 593 64 615 114 q 636 163 636 219 z m 526 68 l 455 -3 q 447 9 444 22 q 440 36 438 50 q 435 64 431 77 q 427 90 416 101 l 416 101 q 409 108 404 116 q 398 124 394 132 q 389 140 383 148 q 377 156 369 165 l 369 165 q 362 170 356 175 q 351 180 344 183 l 344 183 q 335 183 328 183 q 320 184 312 184 l 312 184 q 311 163 311 143 q 311 124 311 104 l 311 104 l 236 30 q 236 107 240 184 q 244 262 248 334 l 248 334 l 276 362 q 265 362 253 361 q 242 360 232 358 l 232 358 l 307 434 q 327 437 355 437 q 383 437 412 432 q 441 428 467 419 q 492 410 507 395 l 507 395 q 516 386 520 369 q 523 351 523 332 q 523 313 519 296 q 515 279 509 272 l 509 272 l 455 218 q 465 205 471 193 q 478 181 490 169 l 490 169 q 501 158 505 145 q 509 131 511 118 q 514 104 516 92 q 519 79 526 68 l 526 68 z m 448 258 l 448 258 q 450 278 447 297 q 444 315 436 324 l 436 324 q 427 333 415 339 q 402 346 387 350 q 372 354 354 357 q 337 359 320 360 l 320 360 q 317 321 316 280 q 314 240 312 200 l 312 200 l 370 258 q 380 263 391 262 q 401 261 411 257 l 411 257 q 420 257 430 257 q 439 257 448 258 z"},"ൊ":{"ha":1128,"x_min":80,"x_max":1128,"o":"m 1128 93 l 1128 93 q 1128 63 1116 36 q 1104 9 1084 -10 q 1064 -30 1038 -42 q 1011 -54 980 -54 l 980 -54 l 227 -54 q 196 -54 170 -42 q 143 -30 123 -10 q 104 9 92 36 q 80 63 80 93 l 80 93 l 80 428 q 80 458 92 484 q 104 511 123 531 q 143 551 170 563 q 196 574 227 574 l 227 574 l 980 574 q 1011 574 1038 563 q 1064 551 1084 531 q 1104 511 1116 484 q 1128 458 1128 428 l 1128 428 l 1128 93 z m 1085 138 l 1085 385 q 1085 415 1073 442 q 1062 469 1042 489 q 1022 509 996 521 q 969 532 938 532 l 938 532 l 269 532 q 238 532 212 521 q 186 509 166 489 q 146 469 135 442 q 123 415 123 385 l 123 385 l 123 138 q 123 107 135 81 q 146 55 166 35 q 186 15 212 4 q 238 -8 269 -8 l 269 -8 l 938 -8 q 969 -8 996 4 q 1022 15 1042 35 q 1062 55 1073 81 q 1085 107 1085 138 l 1085 138 z m 1021 256 l 1021 256 q 1021 222 1015 188 q 1010 154 996 127 q 981 100 955 83 q 929 66 888 66 l 888 66 q 824 66 794 96 q 765 125 766 188 l 766 188 l 766 190 l 796 190 q 799 173 803 159 q 807 145 814 135 q 821 126 834 121 q 846 116 866 116 l 866 116 q 896 116 913 130 q 930 144 938 165 q 946 186 948 210 q 950 235 950 257 l 950 257 q 950 275 948 300 q 946 324 939 345 q 932 367 917 382 q 902 396 877 396 l 877 396 q 852 396 837 389 q 822 381 814 368 q 806 354 802 336 q 798 318 796 298 l 796 298 l 766 298 l 766 300 q 765 331 770 356 q 775 381 789 398 q 802 416 824 425 q 846 435 881 435 l 881 435 q 922 435 949 420 q 976 405 992 381 q 1008 356 1014 324 q 1021 292 1021 256 z m 729 218 l 643 218 l 643 259 l 729 259 l 729 218 z m 608 249 l 608 249 q 608 219 599 193 q 589 166 573 142 q 557 119 536 98 q 515 78 492 61 l 492 61 l 446 79 q 485 107 509 146 q 532 186 532 236 l 532 236 q 532 269 520 297 q 507 325 486 346 q 465 367 437 379 q 408 391 376 391 l 376 391 q 341 391 312 378 q 283 365 261 344 q 240 322 226 292 q 212 263 208 230 l 208 230 l 211 227 q 229 251 253 268 q 278 284 309 284 l 309 284 q 331 284 351 274 q 372 265 386 249 q 401 232 410 212 q 419 191 419 170 l 419 170 q 419 146 411 126 q 403 107 389 94 q 375 81 354 73 q 334 66 311 66 l 311 66 q 278 66 253 78 q 229 90 212 110 q 195 131 187 158 q 179 185 179 216 l 179 216 q 179 260 195 300 q 211 340 239 370 q 268 400 306 417 q 345 435 391 435 l 391 435 q 430 435 469 422 q 508 409 539 385 q 570 361 589 326 q 608 292 608 249 z m 358 176 l 358 176 q 358 189 354 202 q 349 215 340 225 q 332 234 320 240 q 308 246 293 246 l 293 246 q 279 246 266 241 q 253 237 244 228 q 234 219 229 207 q 224 195 224 181 l 224 181 q 224 167 229 155 q 235 143 244 133 q 254 124 266 118 q 278 112 292 112 l 292 112 q 305 112 317 117 q 329 122 338 131 q 348 140 353 151 q 358 163 358 176 z"},"ോ":{"ha":1039,"x_min":80,"x_max":1039,"o":"m 1039 93 l 1039 93 q 1039 63 1027 36 q 1016 9 996 -10 q 976 -30 949 -42 q 922 -54 893 -54 l 893 -54 l 227 -54 q 196 -54 170 -42 q 143 -30 123 -10 q 104 9 92 36 q 80 63 80 93 l 80 93 l 80 428 q 80 458 92 484 q 104 511 123 531 q 143 551 170 563 q 196 574 227 574 l 227 574 l 893 574 q 922 574 949 563 q 976 551 996 531 q 1016 511 1027 484 q 1039 458 1039 428 l 1039 428 l 1039 93 z m 1004 126 l 1004 385 q 1004 415 992 442 q 981 469 961 489 q 941 509 914 521 q 887 532 856 532 l 856 532 l 272 532 q 242 532 216 521 q 189 509 169 489 q 149 469 138 442 q 126 415 126 385 l 126 385 l 126 126 q 126 96 138 69 q 149 43 169 23 q 189 3 216 -8 q 242 -20 272 -20 l 272 -20 l 856 -20 q 887 -20 914 -8 q 941 3 961 23 q 981 43 992 69 q 1004 96 1004 126 l 1004 126 z m 922 255 l 922 255 q 922 221 917 187 q 911 153 896 126 q 882 99 856 82 q 830 64 789 64 l 789 64 q 725 64 696 94 q 667 125 667 188 l 667 188 l 667 190 l 696 190 q 700 172 704 159 q 708 145 715 135 q 723 126 735 121 q 748 116 768 116 l 768 116 q 797 116 813 130 q 830 144 838 164 q 847 185 849 210 q 851 234 851 256 l 851 256 q 851 274 849 299 q 847 323 839 344 q 832 365 817 380 q 802 395 776 395 l 776 395 q 751 395 737 387 q 722 379 714 366 q 706 353 703 335 q 699 317 696 297 l 696 297 l 667 297 l 667 300 q 667 331 672 355 q 677 380 689 398 q 702 416 725 425 q 747 435 782 435 l 782 435 q 823 435 850 420 q 877 405 893 380 q 909 355 916 323 q 922 291 922 255 z m 630 218 l 543 218 l 543 258 l 630 258 l 630 218 z m 507 164 l 507 164 q 507 137 492 118 q 477 100 455 89 q 432 78 406 73 q 380 68 358 68 l 358 68 q 315 68 282 82 q 249 95 226 120 q 204 144 193 178 q 182 213 182 255 l 182 255 q 182 296 194 329 q 206 363 228 386 q 251 410 284 423 q 316 436 358 436 l 358 436 q 380 436 406 431 q 432 426 454 415 q 477 404 492 386 q 507 368 507 341 l 507 341 q 507 306 490 287 q 473 269 438 269 l 438 269 q 423 269 408 273 q 393 277 382 285 q 370 294 363 307 q 356 320 356 337 l 356 337 q 356 356 363 374 q 369 391 384 402 l 384 402 q 377 407 369 407 q 362 408 354 408 l 354 408 q 320 408 300 394 q 280 380 268 358 q 257 336 253 309 q 249 282 249 255 l 249 255 q 249 228 253 200 q 257 171 268 148 q 279 125 300 110 q 320 95 354 95 l 354 95 q 371 95 384 101 l 384 101 q 368 111 362 128 q 356 146 356 164 l 356 164 q 356 181 364 193 q 371 206 382 214 q 394 222 409 226 q 423 230 438 230 l 438 230 q 453 230 465 226 q 478 221 487 213 q 496 204 501 192 q 507 179 507 164 z m 478 339 l 478 339 q 478 362 466 377 q 455 392 432 396 l 432 396 q 425 394 420 387 q 416 381 412 373 q 408 366 406 357 q 404 349 404 343 l 404 343 q 404 334 406 326 q 407 317 411 311 q 415 304 422 300 q 428 296 438 296 l 438 296 q 458 296 468 307 q 478 319 478 339 z m 478 166 l 478 166 q 478 182 466 193 q 454 204 438 204 l 438 204 q 429 204 422 200 q 416 197 412 191 q 408 185 406 177 q 404 169 404 161 l 404 161 q 404 145 410 130 q 416 115 432 106 l 432 106 q 455 112 466 127 q 478 143 478 166 z"},"ൌ":{"ha":677,"x_min":76,"x_max":677,"o":"m 677 218 l 677 218 q 677 174 663 133 q 650 92 621 60 q 593 27 548 8 q 503 -12 440 -12 l 440 -12 q 403 -12 368 -3 q 333 5 307 20 q 280 35 264 55 q 248 76 248 102 l 248 102 l 248 114 l 280 114 l 280 103 q 280 88 292 75 q 304 62 323 51 q 342 41 367 35 q 393 28 420 28 l 420 28 q 466 28 499 45 q 532 62 553 89 q 574 116 584 150 q 595 185 595 220 l 595 220 q 595 267 583 300 q 570 334 551 356 q 532 378 509 388 q 486 398 464 398 l 464 398 q 448 398 434 394 q 420 389 409 379 q 398 370 392 356 q 386 343 386 326 l 386 326 l 386 187 l 302 187 l 302 291 q 302 320 295 341 q 289 362 277 375 q 266 389 251 396 q 237 402 221 402 l 221 402 q 201 402 181 392 q 161 382 145 363 q 128 344 118 317 q 108 289 108 254 l 108 254 l 108 223 q 108 215 109 208 q 109 200 112 190 l 112 190 l 80 190 q 78 201 77 209 q 76 217 76 226 l 76 226 q 76 234 77 243 q 77 251 77 262 l 77 262 q 77 306 91 340 q 105 375 128 399 q 150 423 179 436 q 208 448 238 448 l 238 448 q 274 448 308 431 q 341 413 364 375 l 364 375 q 393 414 427 432 q 460 450 495 450 l 495 450 q 530 450 563 433 q 595 416 621 385 q 646 354 661 312 q 677 269 677 218 z"},"്":{"ha":90,"x_min":-47,"x_max":232,"o":"m 232 572 l 232 572 q 232 539 220 513 q 208 488 188 472 q 167 455 142 447 q 116 438 90 438 l 90 438 q 64 438 39 446 q 15 454 -4 469 q -23 485 -35 508 q -47 531 -47 562 l -47 562 q -47 571 -46 580 q -46 589 -42 600 l -42 600 l 34 600 q 30 591 29 583 q 28 575 28 566 l 28 566 q 28 548 35 534 q 42 521 52 512 q 63 503 77 499 q 91 494 106 494 l 106 494 q 122 494 137 499 q 152 504 164 514 q 176 524 183 539 q 190 554 190 574 l 190 574 q 190 581 190 587 q 189 592 187 600 l 187 600 l 229 600 q 230 591 231 585 q 232 579 232 572 z"},"ൎ":{"ha":1000,"x_min":72,"x_max":668,"o":"m 668 221 l 668 221 q 668 180 657 141 q 646 103 627 70 q 608 37 581 10 q 554 -17 521 -37 q 488 -56 450 -67 q 412 -77 371 -77 l 371 -77 q 309 -77 255 -54 q 200 -31 160 10 q 119 50 96 104 q 72 158 72 220 l 72 220 q 72 282 96 336 q 119 390 160 430 q 200 471 254 494 q 309 518 370 518 l 370 518 q 432 518 486 494 q 540 471 581 430 q 621 390 645 336 q 668 282 668 221 z m 636 219 l 636 219 q 636 275 615 324 q 593 373 557 410 q 520 446 471 467 q 422 488 366 488 l 366 488 q 311 488 261 467 q 212 446 176 410 q 139 373 118 324 q 97 275 97 219 l 97 219 q 97 163 118 114 q 139 64 176 28 q 212 -9 261 -30 q 311 -52 366 -52 l 366 -52 q 422 -52 471 -30 q 520 -9 557 28 q 593 64 615 114 q 636 163 636 219 z m 526 68 l 455 -3 q 447 9 444 22 q 440 36 438 50 q 435 64 431 77 q 427 90 416 101 l 416 101 q 409 108 404 116 q 398 124 394 132 q 389 140 383 148 q 377 156 369 165 l 369 165 q 362 170 356 175 q 351 180 344 183 l 344 183 q 335 183 328 183 q 320 184 312 184 l 312 184 q 311 163 311 143 q 311 124 311 104 l 311 104 l 236 30 q 236 107 240 184 q 244 262 248 334 l 248 334 l 276 362 q 265 362 253 361 q 242 360 232 358 l 232 358 l 307 434 q 327 437 355 437 q 383 437 412 432 q 441 428 467 419 q 492 410 507 395 l 507 395 q 516 386 520 369 q 523 351 523 332 q 523 313 519 296 q 515 279 509 272 l 509 272 l 455 218 q 465 205 471 193 q 478 181 490 169 l 490 169 q 501 158 505 145 q 509 131 511 118 q 514 104 516 92 q 519 79 526 68 l 526 68 z m 448 258 l 448 258 q 450 278 447 297 q 444 315 436 324 l 436 324 q 427 333 415 339 q 402 346 387 350 q 372 354 354 357 q 337 359 320 360 l 320 360 q 317 321 316 280 q 314 240 312 200 l 312 200 l 370 258 q 380 263 391 262 q 401 261 411 257 l 411 257 q 420 257 430 257 q 439 257 448 258 z"},"൏":{"ha":1000,"x_min":72,"x_max":668,"o":"m 668 221 l 668 221 q 668 180 657 141 q 646 103 627 70 q 608 37 581 10 q 554 -17 521 -37 q 488 -56 450 -67 q 412 -77 371 -77 l 371 -77 q 309 -77 255 -54 q 200 -31 160 10 q 119 50 96 104 q 72 158 72 220 l 72 220 q 72 282 96 336 q 119 390 160 430 q 200 471 254 494 q 309 518 370 518 l 370 518 q 432 518 486 494 q 540 471 581 430 q 621 390 645 336 q 668 282 668 221 z m 636 219 l 636 219 q 636 275 615 324 q 593 373 557 410 q 520 446 471 467 q 422 488 366 488 l 366 488 q 311 488 261 467 q 212 446 176 410 q 139 373 118 324 q 97 275 97 219 l 97 219 q 97 163 118 114 q 139 64 176 28 q 212 -9 261 -30 q 311 -52 366 -52 l 366 -52 q 422 -52 471 -30 q 520 -9 557 28 q 593 64 615 114 q 636 163 636 219 z m 526 68 l 455 -3 q 447 9 444 22 q 440 36 438 50 q 435 64 431 77 q 427 90 416 101 l 416 101 q 409 108 404 116 q 398 124 394 132 q 389 140 383 148 q 377 156 369 165 l 369 165 q 362 170 356 175 q 351 180 344 183 l 344 183 q 335 183 328 183 q 320 184 312 184 l 312 184 q 311 163 311 143 q 311 124 311 104 l 311 104 l 236 30 q 236 107 240 184 q 244 262 248 334 l 248 334 l 276 362 q 265 362 253 361 q 242 360 232 358 l 232 358 l 307 434 q 327 437 355 437 q 383 437 412 432 q 441 428 467 419 q 492 410 507 395 l 507 395 q 516 386 520 369 q 523 351 523 332 q 523 313 519 296 q 515 279 509 272 l 509 272 l 455 218 q 465 205 471 193 q 478 181 490 169 l 490 169 q 501 158 505 145 q 509 131 511 118 q 514 104 516 92 q 519 79 526 68 l 526 68 z m 448 258 l 448 258 q 450 278 447 297 q 444 315 436 324 l 436 324 q 427 333 415 339 q 402 346 387 350 q 372 354 354 357 q 337 359 320 360 l 320 360 q 317 321 316 280 q 314 240 312 200 l 312 200 l 370 258 q 380 263 391 262 q 401 261 411 257 l 411 257 q 420 257 430 257 q 439 257 448 258 z"},"൐":{"ha":1000,"x_min":72,"x_max":668,"o":"m 668 221 l 668 221 q 668 180 657 141 q 646 103 627 70 q 608 37 581 10 q 554 -17 521 -37 q 488 -56 450 -67 q 412 -77 371 -77 l 371 -77 q 309 -77 255 -54 q 200 -31 160 10 q 119 50 96 104 q 72 158 72 220 l 72 220 q 72 282 96 336 q 119 390 160 430 q 200 471 254 494 q 309 518 370 518 l 370 518 q 432 518 486 494 q 540 471 581 430 q 621 390 645 336 q 668 282 668 221 z m 636 219 l 636 219 q 636 275 615 324 q 593 373 557 410 q 520 446 471 467 q 422 488 366 488 l 366 488 q 311 488 261 467 q 212 446 176 410 q 139 373 118 324 q 97 275 97 219 l 97 219 q 97 163 118 114 q 139 64 176 28 q 212 -9 261 -30 q 311 -52 366 -52 l 366 -52 q 422 -52 471 -30 q 520 -9 557 28 q 593 64 615 114 q 636 163 636 219 z m 526 68 l 455 -3 q 447 9 444 22 q 440 36 438 50 q 435 64 431 77 q 427 90 416 101 l 416 101 q 409 108 404 116 q 398 124 394 132 q 389 140 383 148 q 377 156 369 165 l 369 165 q 362 170 356 175 q 351 180 344 183 l 344 183 q 335 183 328 183 q 320 184 312 184 l 312 184 q 311 163 311 143 q 311 124 311 104 l 311 104 l 236 30 q 236 107 240 184 q 244 262 248 334 l 248 334 l 276 362 q 265 362 253 361 q 242 360 232 358 l 232 358 l 307 434 q 327 437 355 437 q 383 437 412 432 q 441 428 467 419 q 492 410 507 395 l 507 395 q 516 386 520 369 q 523 351 523 332 q 523 313 519 296 q 515 279 509 272 l 509 272 l 455 218 q 465 205 471 193 q 478 181 490 169 l 490 169 q 501 158 505 145 q 509 131 511 118 q 514 104 516 92 q 519 79 526 68 l 526 68 z m 448 258 l 448 258 q 450 278 447 297 q 444 315 436 324 l 436 324 q 427 333 415 339 q 402 346 387 350 q 372 354 354 357 q 337 359 320 360 l 320 360 q 317 321 316 280 q 314 240 312 200 l 312 200 l 370 258 q 380 263 391 262 q 401 261 411 257 l 411 257 q 420 257 430 257 q 439 257 448 258 z"},"൑":{"ha":1000,"x_min":72,"x_max":668,"o":"m 668 221 l 668 221 q 668 180 657 141 q 646 103 627 70 q 608 37 581 10 q 554 -17 521 -37 q 488 -56 450 -67 q 412 -77 371 -77 l 371 -77 q 309 -77 255 -54 q 200 -31 160 10 q 119 50 96 104 q 72 158 72 220 l 72 220 q 72 282 96 336 q 119 390 160 430 q 200 471 254 494 q 309 518 370 518 l 370 518 q 432 518 486 494 q 540 471 581 430 q 621 390 645 336 q 668 282 668 221 z m 636 219 l 636 219 q 636 275 615 324 q 593 373 557 410 q 520 446 471 467 q 422 488 366 488 l 366 488 q 311 488 261 467 q 212 446 176 410 q 139 373 118 324 q 97 275 97 219 l 97 219 q 97 163 118 114 q 139 64 176 28 q 212 -9 261 -30 q 311 -52 366 -52 l 366 -52 q 422 -52 471 -30 q 520 -9 557 28 q 593 64 615 114 q 636 163 636 219 z m 526 68 l 455 -3 q 447 9 444 22 q 440 36 438 50 q 435 64 431 77 q 427 90 416 101 l 416 101 q 409 108 404 116 q 398 124 394 132 q 389 140 383 148 q 377 156 369 165 l 369 165 q 362 170 356 175 q 351 180 344 183 l 344 183 q 335 183 328 183 q 320 184 312 184 l 312 184 q 311 163 311 143 q 311 124 311 104 l 311 104 l 236 30 q 236 107 240 184 q 244 262 248 334 l 248 334 l 276 362 q 265 362 253 361 q 242 360 232 358 l 232 358 l 307 434 q 327 437 355 437 q 383 437 412 432 q 441 428 467 419 q 492 410 507 395 l 507 395 q 516 386 520 369 q 523 351 523 332 q 523 313 519 296 q 515 279 509 272 l 509 272 l 455 218 q 465 205 471 193 q 478 181 490 169 l 490 169 q 501 158 505 145 q 509 131 511 118 q 514 104 516 92 q 519 79 526 68 l 526 68 z m 448 258 l 448 258 q 450 278 447 297 q 444 315 436 324 l 436 324 q 427 333 415 339 q 402 346 387 350 q 372 354 354 357 q 337 359 320 360 l 320 360 q 317 321 316 280 q 314 240 312 200 l 312 200 l 370 258 q 380 263 391 262 q 401 261 411 257 l 411 257 q 420 257 430 257 q 439 257 448 258 z"},"൒":{"ha":1000,"x_min":72,"x_max":668,"o":"m 668 221 l 668 221 q 668 180 657 141 q 646 103 627 70 q 608 37 581 10 q 554 -17 521 -37 q 488 -56 450 -67 q 412 -77 371 -77 l 371 -77 q 309 -77 255 -54 q 200 -31 160 10 q 119 50 96 104 q 72 158 72 220 l 72 220 q 72 282 96 336 q 119 390 160 430 q 200 471 254 494 q 309 518 370 518 l 370 518 q 432 518 486 494 q 540 471 581 430 q 621 390 645 336 q 668 282 668 221 z m 636 219 l 636 219 q 636 275 615 324 q 593 373 557 410 q 520 446 471 467 q 422 488 366 488 l 366 488 q 311 488 261 467 q 212 446 176 410 q 139 373 118 324 q 97 275 97 219 l 97 219 q 97 163 118 114 q 139 64 176 28 q 212 -9 261 -30 q 311 -52 366 -52 l 366 -52 q 422 -52 471 -30 q 520 -9 557 28 q 593 64 615 114 q 636 163 636 219 z m 526 68 l 455 -3 q 447 9 444 22 q 440 36 438 50 q 435 64 431 77 q 427 90 416 101 l 416 101 q 409 108 404 116 q 398 124 394 132 q 389 140 383 148 q 377 156 369 165 l 369 165 q 362 170 356 175 q 351 180 344 183 l 344 183 q 335 183 328 183 q 320 184 312 184 l 312 184 q 311 163 311 143 q 311 124 311 104 l 311 104 l 236 30 q 236 107 240 184 q 244 262 248 334 l 248 334 l 276 362 q 265 362 253 361 q 242 360 232 358 l 232 358 l 307 434 q 327 437 355 437 q 383 437 412 432 q 441 428 467 419 q 492 410 507 395 l 507 395 q 516 386 520 369 q 523 351 523 332 q 523 313 519 296 q 515 279 509 272 l 509 272 l 455 218 q 465 205 471 193 q 478 181 490 169 l 490 169 q 501 158 505 145 q 509 131 511 118 q 514 104 516 92 q 519 79 526 68 l 526 68 z m 448 258 l 448 258 q 450 278 447 297 q 444 315 436 324 l 436 324 q 427 333 415 339 q 402 346 387 350 q 372 354 354 357 q 337 359 320 360 l 320 360 q 317 321 316 280 q 314 240 312 200 l 312 200 l 370 258 q 380 263 391 262 q 401 261 411 257 l 411 257 q 420 257 430 257 q 439 257 448 258 z"},"൓":{"ha":1000,"x_min":72,"x_max":668,"o":"m 668 221 l 668 221 q 668 180 657 141 q 646 103 627 70 q 608 37 581 10 q 554 -17 521 -37 q 488 -56 450 -67 q 412 -77 371 -77 l 371 -77 q 309 -77 255 -54 q 200 -31 160 10 q 119 50 96 104 q 72 158 72 220 l 72 220 q 72 282 96 336 q 119 390 160 430 q 200 471 254 494 q 309 518 370 518 l 370 518 q 432 518 486 494 q 540 471 581 430 q 621 390 645 336 q 668 282 668 221 z m 636 219 l 636 219 q 636 275 615 324 q 593 373 557 410 q 520 446 471 467 q 422 488 366 488 l 366 488 q 311 488 261 467 q 212 446 176 410 q 139 373 118 324 q 97 275 97 219 l 97 219 q 97 163 118 114 q 139 64 176 28 q 212 -9 261 -30 q 311 -52 366 -52 l 366 -52 q 422 -52 471 -30 q 520 -9 557 28 q 593 64 615 114 q 636 163 636 219 z m 526 68 l 455 -3 q 447 9 444 22 q 440 36 438 50 q 435 64 431 77 q 427 90 416 101 l 416 101 q 409 108 404 116 q 398 124 394 132 q 389 140 383 148 q 377 156 369 165 l 369 165 q 362 170 356 175 q 351 180 344 183 l 344 183 q 335 183 328 183 q 320 184 312 184 l 312 184 q 311 163 311 143 q 311 124 311 104 l 311 104 l 236 30 q 236 107 240 184 q 244 262 248 334 l 248 334 l 276 362 q 265 362 253 361 q 242 360 232 358 l 232 358 l 307 434 q 327 437 355 437 q 383 437 412 432 q 441 428 467 419 q 492 410 507 395 l 507 395 q 516 386 520 369 q 523 351 523 332 q 523 313 519 296 q 515 279 509 272 l 509 272 l 455 218 q 465 205 471 193 q 478 181 490 169 l 490 169 q 501 158 505 145 q 509 131 511 118 q 514 104 516 92 q 519 79 526 68 l 526 68 z m 448 258 l 448 258 q 450 278 447 297 q 444 315 436 324 l 436 324 q 427 333 415 339 q 402 346 387 350 q 372 354 354 357 q 337 359 320 360 l 320 360 q 317 321 316 280 q 314 240 312 200 l 312 200 l 370 258 q 380 263 391 262 q 401 261 411 257 l 411 257 q 420 257 430 257 q 439 257 448 258 z"},"ൔ":{"ha":1000,"x_min":72,"x_max":668,"o":"m 668 221 l 668 221 q 668 180 657 141 q 646 103 627 70 q 608 37 581 10 q 554 -17 521 -37 q 488 -56 450 -67 q 412 -77 371 -77 l 371 -77 q 309 -77 255 -54 q 200 -31 160 10 q 119 50 96 104 q 72 158 72 220 l 72 220 q 72 282 96 336 q 119 390 160 430 q 200 471 254 494 q 309 518 370 518 l 370 518 q 432 518 486 494 q 540 471 581 430 q 621 390 645 336 q 668 282 668 221 z m 636 219 l 636 219 q 636 275 615 324 q 593 373 557 410 q 520 446 471 467 q 422 488 366 488 l 366 488 q 311 488 261 467 q 212 446 176 410 q 139 373 118 324 q 97 275 97 219 l 97 219 q 97 163 118 114 q 139 64 176 28 q 212 -9 261 -30 q 311 -52 366 -52 l 366 -52 q 422 -52 471 -30 q 520 -9 557 28 q 593 64 615 114 q 636 163 636 219 z m 526 68 l 455 -3 q 447 9 444 22 q 440 36 438 50 q 435 64 431 77 q 427 90 416 101 l 416 101 q 409 108 404 116 q 398 124 394 132 q 389 140 383 148 q 377 156 369 165 l 369 165 q 362 170 356 175 q 351 180 344 183 l 344 183 q 335 183 328 183 q 320 184 312 184 l 312 184 q 311 163 311 143 q 311 124 311 104 l 311 104 l 236 30 q 236 107 240 184 q 244 262 248 334 l 248 334 l 276 362 q 265 362 253 361 q 242 360 232 358 l 232 358 l 307 434 q 327 437 355 437 q 383 437 412 432 q 441 428 467 419 q 492 410 507 395 l 507 395 q 516 386 520 369 q 523 351 523 332 q 523 313 519 296 q 515 279 509 272 l 509 272 l 455 218 q 465 205 471 193 q 478 181 490 169 l 490 169 q 501 158 505 145 q 509 131 511 118 q 514 104 516 92 q 519 79 526 68 l 526 68 z m 448 258 l 448 258 q 450 278 447 297 q 444 315 436 324 l 436 324 q 427 333 415 339 q 402 346 387 350 q 372 354 354 357 q 337 359 320 360 l 320 360 q 317 321 316 280 q 314 240 312 200 l 312 200 l 370 258 q 380 263 391 262 q 401 261 411 257 l 411 257 q 420 257 430 257 q 439 257 448 258 z"},"ൕ":{"ha":1000,"x_min":72,"x_max":668,"o":"m 668 221 l 668 221 q 668 180 657 141 q 646 103 627 70 q 608 37 581 10 q 554 -17 521 -37 q 488 -56 450 -67 q 412 -77 371 -77 l 371 -77 q 309 -77 255 -54 q 200 -31 160 10 q 119 50 96 104 q 72 158 72 220 l 72 220 q 72 282 96 336 q 119 390 160 430 q 200 471 254 494 q 309 518 370 518 l 370 518 q 432 518 486 494 q 540 471 581 430 q 621 390 645 336 q 668 282 668 221 z m 636 219 l 636 219 q 636 275 615 324 q 593 373 557 410 q 520 446 471 467 q 422 488 366 488 l 366 488 q 311 488 261 467 q 212 446 176 410 q 139 373 118 324 q 97 275 97 219 l 97 219 q 97 163 118 114 q 139 64 176 28 q 212 -9 261 -30 q 311 -52 366 -52 l 366 -52 q 422 -52 471 -30 q 520 -9 557 28 q 593 64 615 114 q 636 163 636 219 z m 526 68 l 455 -3 q 447 9 444 22 q 440 36 438 50 q 435 64 431 77 q 427 90 416 101 l 416 101 q 409 108 404 116 q 398 124 394 132 q 389 140 383 148 q 377 156 369 165 l 369 165 q 362 170 356 175 q 351 180 344 183 l 344 183 q 335 183 328 183 q 320 184 312 184 l 312 184 q 311 163 311 143 q 311 124 311 104 l 311 104 l 236 30 q 236 107 240 184 q 244 262 248 334 l 248 334 l 276 362 q 265 362 253 361 q 242 360 232 358 l 232 358 l 307 434 q 327 437 355 437 q 383 437 412 432 q 441 428 467 419 q 492 410 507 395 l 507 395 q 516 386 520 369 q 523 351 523 332 q 523 313 519 296 q 515 279 509 272 l 509 272 l 455 218 q 465 205 471 193 q 478 181 490 169 l 490 169 q 501 158 505 145 q 509 131 511 118 q 514 104 516 92 q 519 79 526 68 l 526 68 z m 448 258 l 448 258 q 450 278 447 297 q 444 315 436 324 l 436 324 q 427 333 415 339 q 402 346 387 350 q 372 354 354 357 q 337 359 320 360 l 320 360 q 317 321 316 280 q 314 240 312 200 l 312 200 l 370 258 q 380 263 391 262 q 401 261 411 257 l 411 257 q 420 257 430 257 q 439 257 448 258 z"},"ൖ":{"ha":1000,"x_min":72,"x_max":668,"o":"m 668 221 l 668 221 q 668 180 657 141 q 646 103 627 70 q 608 37 581 10 q 554 -17 521 -37 q 488 -56 450 -67 q 412 -77 371 -77 l 371 -77 q 309 -77 255 -54 q 200 -31 160 10 q 119 50 96 104 q 72 158 72 220 l 72 220 q 72 282 96 336 q 119 390 160 430 q 200 471 254 494 q 309 518 370 518 l 370 518 q 432 518 486 494 q 540 471 581 430 q 621 390 645 336 q 668 282 668 221 z m 636 219 l 636 219 q 636 275 615 324 q 593 373 557 410 q 520 446 471 467 q 422 488 366 488 l 366 488 q 311 488 261 467 q 212 446 176 410 q 139 373 118 324 q 97 275 97 219 l 97 219 q 97 163 118 114 q 139 64 176 28 q 212 -9 261 -30 q 311 -52 366 -52 l 366 -52 q 422 -52 471 -30 q 520 -9 557 28 q 593 64 615 114 q 636 163 636 219 z m 526 68 l 455 -3 q 447 9 444 22 q 440 36 438 50 q 435 64 431 77 q 427 90 416 101 l 416 101 q 409 108 404 116 q 398 124 394 132 q 389 140 383 148 q 377 156 369 165 l 369 165 q 362 170 356 175 q 351 180 344 183 l 344 183 q 335 183 328 183 q 320 184 312 184 l 312 184 q 311 163 311 143 q 311 124 311 104 l 311 104 l 236 30 q 236 107 240 184 q 244 262 248 334 l 248 334 l 276 362 q 265 362 253 361 q 242 360 232 358 l 232 358 l 307 434 q 327 437 355 437 q 383 437 412 432 q 441 428 467 419 q 492 410 507 395 l 507 395 q 516 386 520 369 q 523 351 523 332 q 523 313 519 296 q 515 279 509 272 l 509 272 l 455 218 q 465 205 471 193 q 478 181 490 169 l 490 169 q 501 158 505 145 q 509 131 511 118 q 514 104 516 92 q 519 79 526 68 l 526 68 z m 448 258 l 448 258 q 450 278 447 297 q 444 315 436 324 l 436 324 q 427 333 415 339 q 402 346 387 350 q 372 354 354 357 q 337 359 320 360 l 320 360 q 317 321 316 280 q 314 240 312 200 l 312 200 l 370 258 q 380 263 391 262 q 401 261 411 257 l 411 257 q 420 257 430 257 q 439 257 448 258 z"},"ൗ":{"ha":677,"x_min":76,"x_max":677,"o":"m 677 218 l 677 218 q 677 174 663 133 q 650 92 621 60 q 593 27 548 8 q 503 -12 440 -12 l 440 -12 q 403 -12 368 -3 q 333 5 307 20 q 280 35 264 55 q 248 76 248 102 l 248 102 l 248 114 l 280 114 l 280 103 q 280 88 292 75 q 304 62 323 51 q 342 41 367 35 q 393 28 420 28 l 420 28 q 466 28 499 45 q 532 62 553 89 q 574 116 584 150 q 595 185 595 220 l 595 220 q 595 267 583 300 q 570 334 551 356 q 532 378 509 388 q 486 398 464 398 l 464 398 q 448 398 434 394 q 420 389 409 379 q 398 370 392 356 q 386 343 386 326 l 386 326 l 386 187 l 302 187 l 302 291 q 302 320 295 341 q 289 362 277 375 q 266 389 251 396 q 237 402 221 402 l 221 402 q 201 402 181 392 q 161 382 145 363 q 128 344 118 317 q 108 289 108 254 l 108 254 l 108 223 q 108 215 109 208 q 109 200 112 190 l 112 190 l 80 190 q 78 201 77 209 q 76 217 76 226 l 76 226 q 76 234 77 243 q 77 251 77 262 l 77 262 q 77 306 91 340 q 105 375 128 399 q 150 423 179 436 q 208 448 238 448 l 238 448 q 274 448 308 431 q 341 413 364 375 l 364 375 q 393 414 427 432 q 460 450 495 450 l 495 450 q 530 450 563 433 q 595 416 621 385 q 646 354 661 312 q 677 269 677 218 z"},"൘":{"ha":1000,"x_min":72,"x_max":668,"o":"m 668 221 l 668 221 q 668 180 657 141 q 646 103 627 70 q 608 37 581 10 q 554 -17 521 -37 q 488 -56 450 -67 q 412 -77 371 -77 l 371 -77 q 309 -77 255 -54 q 200 -31 160 10 q 119 50 96 104 q 72 158 72 220 l 72 220 q 72 282 96 336 q 119 390 160 430 q 200 471 254 494 q 309 518 370 518 l 370 518 q 432 518 486 494 q 540 471 581 430 q 621 390 645 336 q 668 282 668 221 z m 636 219 l 636 219 q 636 275 615 324 q 593 373 557 410 q 520 446 471 467 q 422 488 366 488 l 366 488 q 311 488 261 467 q 212 446 176 410 q 139 373 118 324 q 97 275 97 219 l 97 219 q 97 163 118 114 q 139 64 176 28 q 212 -9 261 -30 q 311 -52 366 -52 l 366 -52 q 422 -52 471 -30 q 520 -9 557 28 q 593 64 615 114 q 636 163 636 219 z m 526 68 l 455 -3 q 447 9 444 22 q 440 36 438 50 q 435 64 431 77 q 427 90 416 101 l 416 101 q 409 108 404 116 q 398 124 394 132 q 389 140 383 148 q 377 156 369 165 l 369 165 q 362 170 356 175 q 351 180 344 183 l 344 183 q 335 183 328 183 q 320 184 312 184 l 312 184 q 311 163 311 143 q 311 124 311 104 l 311 104 l 236 30 q 236 107 240 184 q 244 262 248 334 l 248 334 l 276 362 q 265 362 253 361 q 242 360 232 358 l 232 358 l 307 434 q 327 437 355 437 q 383 437 412 432 q 441 428 467 419 q 492 410 507 395 l 507 395 q 516 386 520 369 q 523 351 523 332 q 523 313 519 296 q 515 279 509 272 l 509 272 l 455 218 q 465 205 471 193 q 478 181 490 169 l 490 169 q 501 158 505 145 q 509 131 511 118 q 514 104 516 92 q 519 79 526 68 l 526 68 z m 448 258 l 448 258 q 450 278 447 297 q 444 315 436 324 l 436 324 q 427 333 415 339 q 402 346 387 350 q 372 354 354 357 q 337 359 320 360 l 320 360 q 317 321 316 280 q 314 240 312 200 l 312 200 l 370 258 q 380 263 391 262 q 401 261 411 257 l 411 257 q 420 257 430 257 q 439 257 448 258 z"},"൙":{"ha":1000,"x_min":72,"x_max":668,"o":"m 668 221 l 668 221 q 668 180 657 141 q 646 103 627 70 q 608 37 581 10 q 554 -17 521 -37 q 488 -56 450 -67 q 412 -77 371 -77 l 371 -77 q 309 -77 255 -54 q 200 -31 160 10 q 119 50 96 104 q 72 158 72 220 l 72 220 q 72 282 96 336 q 119 390 160 430 q 200 471 254 494 q 309 518 370 518 l 370 518 q 432 518 486 494 q 540 471 581 430 q 621 390 645 336 q 668 282 668 221 z m 636 219 l 636 219 q 636 275 615 324 q 593 373 557 410 q 520 446 471 467 q 422 488 366 488 l 366 488 q 311 488 261 467 q 212 446 176 410 q 139 373 118 324 q 97 275 97 219 l 97 219 q 97 163 118 114 q 139 64 176 28 q 212 -9 261 -30 q 311 -52 366 -52 l 366 -52 q 422 -52 471 -30 q 520 -9 557 28 q 593 64 615 114 q 636 163 636 219 z m 526 68 l 455 -3 q 447 9 444 22 q 440 36 438 50 q 435 64 431 77 q 427 90 416 101 l 416 101 q 409 108 404 116 q 398 124 394 132 q 389 140 383 148 q 377 156 369 165 l 369 165 q 362 170 356 175 q 351 180 344 183 l 344 183 q 335 183 328 183 q 320 184 312 184 l 312 184 q 311 163 311 143 q 311 124 311 104 l 311 104 l 236 30 q 236 107 240 184 q 244 262 248 334 l 248 334 l 276 362 q 265 362 253 361 q 242 360 232 358 l 232 358 l 307 434 q 327 437 355 437 q 383 437 412 432 q 441 428 467 419 q 492 410 507 395 l 507 395 q 516 386 520 369 q 523 351 523 332 q 523 313 519 296 q 515 279 509 272 l 509 272 l 455 218 q 465 205 471 193 q 478 181 490 169 l 490 169 q 501 158 505 145 q 509 131 511 118 q 514 104 516 92 q 519 79 526 68 l 526 68 z m 448 258 l 448 258 q 450 278 447 297 q 444 315 436 324 l 436 324 q 427 333 415 339 q 402 346 387 350 q 372 354 354 357 q 337 359 320 360 l 320 360 q 317 321 316 280 q 314 240 312 200 l 312 200 l 370 258 q 380 263 391 262 q 401 261 411 257 l 411 257 q 420 257 430 257 q 439 257 448 258 z"},"൚":{"ha":1000,"x_min":72,"x_max":668,"o":"m 668 221 l 668 221 q 668 180 657 141 q 646 103 627 70 q 608 37 581 10 q 554 -17 521 -37 q 488 -56 450 -67 q 412 -77 371 -77 l 371 -77 q 309 -77 255 -54 q 200 -31 160 10 q 119 50 96 104 q 72 158 72 220 l 72 220 q 72 282 96 336 q 119 390 160 430 q 200 471 254 494 q 309 518 370 518 l 370 518 q 432 518 486 494 q 540 471 581 430 q 621 390 645 336 q 668 282 668 221 z m 636 219 l 636 219 q 636 275 615 324 q 593 373 557 410 q 520 446 471 467 q 422 488 366 488 l 366 488 q 311 488 261 467 q 212 446 176 410 q 139 373 118 324 q 97 275 97 219 l 97 219 q 97 163 118 114 q 139 64 176 28 q 212 -9 261 -30 q 311 -52 366 -52 l 366 -52 q 422 -52 471 -30 q 520 -9 557 28 q 593 64 615 114 q 636 163 636 219 z m 526 68 l 455 -3 q 447 9 444 22 q 440 36 438 50 q 435 64 431 77 q 427 90 416 101 l 416 101 q 409 108 404 116 q 398 124 394 132 q 389 140 383 148 q 377 156 369 165 l 369 165 q 362 170 356 175 q 351 180 344 183 l 344 183 q 335 183 328 183 q 320 184 312 184 l 312 184 q 311 163 311 143 q 311 124 311 104 l 311 104 l 236 30 q 236 107 240 184 q 244 262 248 334 l 248 334 l 276 362 q 265 362 253 361 q 242 360 232 358 l 232 358 l 307 434 q 327 437 355 437 q 383 437 412 432 q 441 428 467 419 q 492 410 507 395 l 507 395 q 516 386 520 369 q 523 351 523 332 q 523 313 519 296 q 515 279 509 272 l 509 272 l 455 218 q 465 205 471 193 q 478 181 490 169 l 490 169 q 501 158 505 145 q 509 131 511 118 q 514 104 516 92 q 519 79 526 68 l 526 68 z m 448 258 l 448 258 q 450 278 447 297 q 444 315 436 324 l 436 324 q 427 333 415 339 q 402 346 387 350 q 372 354 354 357 q 337 359 320 360 l 320 360 q 317 321 316 280 q 314 240 312 200 l 312 200 l 370 258 q 380 263 391 262 q 401 261 411 257 l 411 257 q 420 257 430 257 q 439 257 448 258 z"},"൛":{"ha":1000,"x_min":72,"x_max":668,"o":"m 668 221 l 668 221 q 668 180 657 141 q 646 103 627 70 q 608 37 581 10 q 554 -17 521 -37 q 488 -56 450 -67 q 412 -77 371 -77 l 371 -77 q 309 -77 255 -54 q 200 -31 160 10 q 119 50 96 104 q 72 158 72 220 l 72 220 q 72 282 96 336 q 119 390 160 430 q 200 471 254 494 q 309 518 370 518 l 370 518 q 432 518 486 494 q 540 471 581 430 q 621 390 645 336 q 668 282 668 221 z m 636 219 l 636 219 q 636 275 615 324 q 593 373 557 410 q 520 446 471 467 q 422 488 366 488 l 366 488 q 311 488 261 467 q 212 446 176 410 q 139 373 118 324 q 97 275 97 219 l 97 219 q 97 163 118 114 q 139 64 176 28 q 212 -9 261 -30 q 311 -52 366 -52 l 366 -52 q 422 -52 471 -30 q 520 -9 557 28 q 593 64 615 114 q 636 163 636 219 z m 526 68 l 455 -3 q 447 9 444 22 q 440 36 438 50 q 435 64 431 77 q 427 90 416 101 l 416 101 q 409 108 404 116 q 398 124 394 132 q 389 140 383 148 q 377 156 369 165 l 369 165 q 362 170 356 175 q 351 180 344 183 l 344 183 q 335 183 328 183 q 320 184 312 184 l 312 184 q 311 163 311 143 q 311 124 311 104 l 311 104 l 236 30 q 236 107 240 184 q 244 262 248 334 l 248 334 l 276 362 q 265 362 253 361 q 242 360 232 358 l 232 358 l 307 434 q 327 437 355 437 q 383 437 412 432 q 441 428 467 419 q 492 410 507 395 l 507 395 q 516 386 520 369 q 523 351 523 332 q 523 313 519 296 q 515 279 509 272 l 509 272 l 455 218 q 465 205 471 193 q 478 181 490 169 l 490 169 q 501 158 505 145 q 509 131 511 118 q 514 104 516 92 q 519 79 526 68 l 526 68 z m 448 258 l 448 258 q 450 278 447 297 q 444 315 436 324 l 436 324 q 427 333 415 339 q 402 346 387 350 q 372 354 354 357 q 337 359 320 360 l 320 360 q 317 321 316 280 q 314 240 312 200 l 312 200 l 370 258 q 380 263 391 262 q 401 261 411 257 l 411 257 q 420 257 430 257 q 439 257 448 258 z"},"൜":{"ha":1000,"x_min":72,"x_max":668,"o":"m 668 221 l 668 221 q 668 180 657 141 q 646 103 627 70 q 608 37 581 10 q 554 -17 521 -37 q 488 -56 450 -67 q 412 -77 371 -77 l 371 -77 q 309 -77 255 -54 q 200 -31 160 10 q 119 50 96 104 q 72 158 72 220 l 72 220 q 72 282 96 336 q 119 390 160 430 q 200 471 254 494 q 309 518 370 518 l 370 518 q 432 518 486 494 q 540 471 581 430 q 621 390 645 336 q 668 282 668 221 z m 636 219 l 636 219 q 636 275 615 324 q 593 373 557 410 q 520 446 471 467 q 422 488 366 488 l 366 488 q 311 488 261 467 q 212 446 176 410 q 139 373 118 324 q 97 275 97 219 l 97 219 q 97 163 118 114 q 139 64 176 28 q 212 -9 261 -30 q 311 -52 366 -52 l 366 -52 q 422 -52 471 -30 q 520 -9 557 28 q 593 64 615 114 q 636 163 636 219 z m 526 68 l 455 -3 q 447 9 444 22 q 440 36 438 50 q 435 64 431 77 q 427 90 416 101 l 416 101 q 409 108 404 116 q 398 124 394 132 q 389 140 383 148 q 377 156 369 165 l 369 165 q 362 170 356 175 q 351 180 344 183 l 344 183 q 335 183 328 183 q 320 184 312 184 l 312 184 q 311 163 311 143 q 311 124 311 104 l 311 104 l 236 30 q 236 107 240 184 q 244 262 248 334 l 248 334 l 276 362 q 265 362 253 361 q 242 360 232 358 l 232 358 l 307 434 q 327 437 355 437 q 383 437 412 432 q 441 428 467 419 q 492 410 507 395 l 507 395 q 516 386 520 369 q 523 351 523 332 q 523 313 519 296 q 515 279 509 272 l 509 272 l 455 218 q 465 205 471 193 q 478 181 490 169 l 490 169 q 501 158 505 145 q 509 131 511 118 q 514 104 516 92 q 519 79 526 68 l 526 68 z m 448 258 l 448 258 q 450 278 447 297 q 444 315 436 324 l 436 324 q 427 333 415 339 q 402 346 387 350 q 372 354 354 357 q 337 359 320 360 l 320 360 q 317 321 316 280 q 314 240 312 200 l 312 200 l 370 258 q 380 263 391 262 q 401 261 411 257 l 411 257 q 420 257 430 257 q 439 257 448 258 z"},"൝":{"ha":1000,"x_min":72,"x_max":668,"o":"m 668 221 l 668 221 q 668 180 657 141 q 646 103 627 70 q 608 37 581 10 q 554 -17 521 -37 q 488 -56 450 -67 q 412 -77 371 -77 l 371 -77 q 309 -77 255 -54 q 200 -31 160 10 q 119 50 96 104 q 72 158 72 220 l 72 220 q 72 282 96 336 q 119 390 160 430 q 200 471 254 494 q 309 518 370 518 l 370 518 q 432 518 486 494 q 540 471 581 430 q 621 390 645 336 q 668 282 668 221 z m 636 219 l 636 219 q 636 275 615 324 q 593 373 557 410 q 520 446 471 467 q 422 488 366 488 l 366 488 q 311 488 261 467 q 212 446 176 410 q 139 373 118 324 q 97 275 97 219 l 97 219 q 97 163 118 114 q 139 64 176 28 q 212 -9 261 -30 q 311 -52 366 -52 l 366 -52 q 422 -52 471 -30 q 520 -9 557 28 q 593 64 615 114 q 636 163 636 219 z m 526 68 l 455 -3 q 447 9 444 22 q 440 36 438 50 q 435 64 431 77 q 427 90 416 101 l 416 101 q 409 108 404 116 q 398 124 394 132 q 389 140 383 148 q 377 156 369 165 l 369 165 q 362 170 356 175 q 351 180 344 183 l 344 183 q 335 183 328 183 q 320 184 312 184 l 312 184 q 311 163 311 143 q 311 124 311 104 l 311 104 l 236 30 q 236 107 240 184 q 244 262 248 334 l 248 334 l 276 362 q 265 362 253 361 q 242 360 232 358 l 232 358 l 307 434 q 327 437 355 437 q 383 437 412 432 q 441 428 467 419 q 492 410 507 395 l 507 395 q 516 386 520 369 q 523 351 523 332 q 523 313 519 296 q 515 279 509 272 l 509 272 l 455 218 q 465 205 471 193 q 478 181 490 169 l 490 169 q 501 158 505 145 q 509 131 511 118 q 514 104 516 92 q 519 79 526 68 l 526 68 z m 448 258 l 448 258 q 450 278 447 297 q 444 315 436 324 l 436 324 q 427 333 415 339 q 402 346 387 350 q 372 354 354 357 q 337 359 320 360 l 320 360 q 317 321 316 280 q 314 240 312 200 l 312 200 l 370 258 q 380 263 391 262 q 401 261 411 257 l 411 257 q 420 257 430 257 q 439 257 448 258 z"},"൞":{"ha":1000,"x_min":72,"x_max":668,"o":"m 668 221 l 668 221 q 668 180 657 141 q 646 103 627 70 q 608 37 581 10 q 554 -17 521 -37 q 488 -56 450 -67 q 412 -77 371 -77 l 371 -77 q 309 -77 255 -54 q 200 -31 160 10 q 119 50 96 104 q 72 158 72 220 l 72 220 q 72 282 96 336 q 119 390 160 430 q 200 471 254 494 q 309 518 370 518 l 370 518 q 432 518 486 494 q 540 471 581 430 q 621 390 645 336 q 668 282 668 221 z m 636 219 l 636 219 q 636 275 615 324 q 593 373 557 410 q 520 446 471 467 q 422 488 366 488 l 366 488 q 311 488 261 467 q 212 446 176 410 q 139 373 118 324 q 97 275 97 219 l 97 219 q 97 163 118 114 q 139 64 176 28 q 212 -9 261 -30 q 311 -52 366 -52 l 366 -52 q 422 -52 471 -30 q 520 -9 557 28 q 593 64 615 114 q 636 163 636 219 z m 526 68 l 455 -3 q 447 9 444 22 q 440 36 438 50 q 435 64 431 77 q 427 90 416 101 l 416 101 q 409 108 404 116 q 398 124 394 132 q 389 140 383 148 q 377 156 369 165 l 369 165 q 362 170 356 175 q 351 180 344 183 l 344 183 q 335 183 328 183 q 320 184 312 184 l 312 184 q 311 163 311 143 q 311 124 311 104 l 311 104 l 236 30 q 236 107 240 184 q 244 262 248 334 l 248 334 l 276 362 q 265 362 253 361 q 242 360 232 358 l 232 358 l 307 434 q 327 437 355 437 q 383 437 412 432 q 441 428 467 419 q 492 410 507 395 l 507 395 q 516 386 520 369 q 523 351 523 332 q 523 313 519 296 q 515 279 509 272 l 509 272 l 455 218 q 465 205 471 193 q 478 181 490 169 l 490 169 q 501 158 505 145 q 509 131 511 118 q 514 104 516 92 q 519 79 526 68 l 526 68 z m 448 258 l 448 258 q 450 278 447 297 q 444 315 436 324 l 436 324 q 427 333 415 339 q 402 346 387 350 q 372 354 354 357 q 337 359 320 360 l 320 360 q 317 321 316 280 q 314 240 312 200 l 312 200 l 370 258 q 380 263 391 262 q 401 261 411 257 l 411 257 q 420 257 430 257 q 439 257 448 258 z"},"ൟ":{"ha":1000,"x_min":72,"x_max":668,"o":"m 668 221 l 668 221 q 668 180 657 141 q 646 103 627 70 q 608 37 581 10 q 554 -17 521 -37 q 488 -56 450 -67 q 412 -77 371 -77 l 371 -77 q 309 -77 255 -54 q 200 -31 160 10 q 119 50 96 104 q 72 158 72 220 l 72 220 q 72 282 96 336 q 119 390 160 430 q 200 471 254 494 q 309 518 370 518 l 370 518 q 432 518 486 494 q 540 471 581 430 q 621 390 645 336 q 668 282 668 221 z m 636 219 l 636 219 q 636 275 615 324 q 593 373 557 410 q 520 446 471 467 q 422 488 366 488 l 366 488 q 311 488 261 467 q 212 446 176 410 q 139 373 118 324 q 97 275 97 219 l 97 219 q 97 163 118 114 q 139 64 176 28 q 212 -9 261 -30 q 311 -52 366 -52 l 366 -52 q 422 -52 471 -30 q 520 -9 557 28 q 593 64 615 114 q 636 163 636 219 z m 526 68 l 455 -3 q 447 9 444 22 q 440 36 438 50 q 435 64 431 77 q 427 90 416 101 l 416 101 q 409 108 404 116 q 398 124 394 132 q 389 140 383 148 q 377 156 369 165 l 369 165 q 362 170 356 175 q 351 180 344 183 l 344 183 q 335 183 328 183 q 320 184 312 184 l 312 184 q 311 163 311 143 q 311 124 311 104 l 311 104 l 236 30 q 236 107 240 184 q 244 262 248 334 l 248 334 l 276 362 q 265 362 253 361 q 242 360 232 358 l 232 358 l 307 434 q 327 437 355 437 q 383 437 412 432 q 441 428 467 419 q 492 410 507 395 l 507 395 q 516 386 520 369 q 523 351 523 332 q 523 313 519 296 q 515 279 509 272 l 509 272 l 455 218 q 465 205 471 193 q 478 181 490 169 l 490 169 q 501 158 505 145 q 509 131 511 118 q 514 104 516 92 q 519 79 526 68 l 526 68 z m 448 258 l 448 258 q 450 278 447 297 q 444 315 436 324 l 436 324 q 427 333 415 339 q 402 346 387 350 q 372 354 354 357 q 337 359 320 360 l 320 360 q 317 321 316 280 q 314 240 312 200 l 312 200 l 370 258 q 380 263 391 262 q 401 261 411 257 l 411 257 q 420 257 430 257 q 439 257 448 258 z"},"ൠ":{"ha":677,"x_min":79,"x_max":674,"o":"m 674 -32 l 674 -32 q 674 -65 658 -89 q 643 -113 618 -129 q 593 -146 562 -156 q 530 -166 497 -171 q 464 -177 433 -179 q 402 -181 378 -181 l 378 -181 q 354 -181 323 -179 q 291 -177 258 -171 q 225 -166 193 -156 q 161 -146 135 -129 q 110 -113 94 -89 q 79 -65 79 -32 l 79 -32 q 79 -5 89 15 q 98 36 115 50 q 131 63 153 72 q 175 81 199 85 l 199 85 q 167 96 145 114 q 122 132 107 155 q 93 179 86 207 q 79 235 79 268 l 79 268 q 79 300 88 333 q 97 365 115 391 q 134 417 161 432 q 188 448 225 448 l 225 448 q 250 448 272 439 q 293 429 309 413 q 324 396 333 374 q 341 352 341 326 l 341 326 q 341 300 333 277 q 326 253 312 236 q 297 218 276 207 q 254 196 227 196 l 227 196 q 193 196 168 213 q 144 230 126 258 l 126 258 l 126 251 l 126 248 q 125 213 137 189 q 148 165 167 148 q 187 132 212 122 q 237 113 265 108 q 293 103 322 102 q 351 101 378 101 l 378 101 q 406 101 435 102 q 465 104 493 110 q 521 115 545 126 q 570 136 589 154 q 607 171 618 197 q 629 222 629 258 l 629 258 q 612 230 586 213 q 560 196 526 196 l 526 196 q 499 196 478 207 q 457 218 442 236 q 427 253 420 277 q 412 300 412 326 l 412 326 q 412 352 420 374 q 429 396 444 413 q 459 429 481 439 q 502 448 528 448 l 528 448 q 565 448 592 432 q 620 417 638 391 q 656 365 665 333 q 674 300 674 268 l 674 268 q 674 235 667 207 q 660 179 646 156 q 631 132 608 115 q 585 98 554 87 l 554 87 q 578 82 600 73 q 622 64 638 50 q 654 35 664 15 q 674 -5 674 -32 z m 601 323 l 601 323 q 601 337 596 352 q 592 367 583 379 q 575 391 563 399 q 551 406 535 406 l 535 406 q 520 406 509 399 q 498 391 491 379 q 484 368 481 354 q 478 339 478 326 l 478 326 q 478 311 480 295 q 483 279 490 267 q 497 254 509 247 q 521 239 540 239 l 540 239 q 556 239 568 247 q 579 255 586 268 q 594 280 597 295 q 601 310 601 323 z m 275 326 l 275 326 q 275 339 272 354 q 269 368 262 379 q 255 391 244 399 q 233 406 218 406 l 218 406 q 202 406 190 398 q 178 391 170 379 q 161 367 157 352 q 152 337 152 323 l 152 323 q 152 309 156 294 q 160 280 167 267 q 174 255 186 247 q 198 239 214 239 l 214 239 q 233 239 245 247 q 257 255 264 267 q 271 280 273 295 q 275 311 275 326 z m 597 -33 l 597 -33 q 597 -12 585 4 q 573 20 554 31 q 535 42 511 49 q 487 56 462 60 q 438 64 416 66 q 394 67 378 67 l 378 67 q 362 67 340 66 q 317 64 293 61 q 268 57 244 50 q 219 43 200 32 q 180 21 168 5 q 156 -11 156 -33 l 156 -33 q 156 -56 168 -72 q 180 -88 199 -100 q 219 -111 243 -119 q 268 -126 292 -130 q 317 -135 339 -136 q 362 -138 378 -138 l 378 -138 q 394 -138 417 -136 q 439 -134 463 -130 q 488 -126 511 -118 q 535 -111 554 -99 q 573 -88 585 -72 q 597 -55 597 -33 z m 559 -38 l 559 -38 q 559 -57 539 -74 q 520 -91 480 -100 l 480 -100 l 461 -92 q 491 -82 502 -67 q 514 -53 514 -37 l 514 -37 q 514 -18 495 -4 q 477 11 439 11 l 439 11 q 430 11 420 9 q 411 8 404 5 q 397 2 393 -2 q 389 -6 389 -11 l 389 -11 l 389 -98 l 343 -98 l 343 -22 q 343 -7 326 0 q 310 8 288 8 l 288 8 q 251 8 232 -7 q 212 -21 212 -40 l 212 -40 q 212 -56 227 -71 q 241 -85 274 -93 l 274 -93 l 259 -100 q 221 -90 205 -73 q 188 -56 188 -38 l 188 -38 q 188 -26 196 -14 q 203 -3 217 6 q 231 15 251 21 q 272 26 299 26 l 299 26 q 321 26 342 21 q 363 15 379 5 l 379 5 q 395 15 414 20 q 433 25 453 25 l 453 25 q 478 25 497 20 q 517 15 530 6 q 544 -3 551 -14 q 559 -26 559 -38 z"},"ൡ":{"ha":1007,"x_min":73,"x_max":1006,"o":"m 1006 69 l 1006 69 q 1006 24 992 -16 q 978 -55 952 -84 q 925 -114 888 -131 q 850 -147 803 -147 l 803 -147 l 809 -88 q 845 -88 873 -73 q 900 -58 919 -33 q 938 -8 948 24 q 958 55 958 88 l 958 88 q 958 112 953 135 q 948 159 937 179 q 926 199 909 215 q 892 230 868 240 l 868 240 q 871 230 871 220 q 871 210 871 200 l 871 200 q 871 167 863 130 q 855 94 838 63 q 821 32 793 11 q 766 -9 726 -9 l 726 -9 q 700 -9 680 2 q 661 13 647 30 q 634 48 628 70 q 621 93 621 116 l 621 116 q 621 148 631 178 q 641 207 660 230 q 678 253 705 268 q 731 284 764 288 l 764 288 q 756 313 744 333 q 732 353 716 368 q 700 382 678 390 q 657 398 630 398 l 630 398 q 614 398 594 393 q 573 388 554 378 q 535 369 522 354 q 509 339 509 320 l 509 320 l 509 0 l 426 0 l 426 276 q 426 296 421 319 q 417 341 406 360 q 396 379 378 391 q 361 403 337 403 l 337 403 q 317 403 297 400 q 277 396 260 385 l 260 385 q 283 366 302 342 q 322 318 337 291 q 351 264 359 234 q 367 205 367 175 l 367 175 q 367 145 358 112 q 349 79 332 52 q 314 25 287 8 q 261 -10 226 -10 l 226 -10 q 187 -10 158 7 q 130 24 111 52 q 92 79 83 113 q 73 146 73 181 l 73 181 q 73 232 91 281 q 108 329 140 367 q 172 404 217 427 q 262 450 315 450 l 315 450 q 339 450 361 444 q 383 438 402 428 q 421 417 438 402 q 456 387 471 369 l 471 369 q 503 409 545 430 q 587 451 639 451 l 639 451 q 676 451 711 439 q 746 426 775 404 q 804 382 825 351 q 846 321 856 285 l 856 285 q 893 275 921 254 q 949 233 968 204 q 987 174 996 140 q 1006 105 1006 69 z m 790 175 l 790 175 q 790 195 786 217 q 783 239 778 259 l 778 259 q 755 252 734 240 q 712 229 696 213 q 679 196 668 175 q 658 154 658 128 l 658 128 q 658 115 663 101 q 667 87 676 76 q 684 64 695 57 q 707 50 721 50 l 721 50 q 741 50 754 63 q 768 77 776 97 q 784 117 787 138 q 790 159 790 175 z m 333 175 l 333 175 q 333 205 325 231 q 318 258 305 281 q 292 305 273 326 q 254 347 232 365 l 232 365 q 188 329 167 283 q 146 237 146 181 l 146 181 q 146 159 151 136 q 156 113 167 94 q 178 75 196 63 q 213 51 239 51 l 239 51 q 264 51 281 62 q 299 74 311 92 q 322 109 328 131 q 333 153 333 175 z"},"ൢ":{"ha":1000,"x_min":72,"x_max":668,"o":"m 668 221 l 668 221 q 668 180 657 141 q 646 103 627 70 q 608 37 581 10 q 554 -17 521 -37 q 488 -56 450 -67 q 412 -77 371 -77 l 371 -77 q 309 -77 255 -54 q 200 -31 160 10 q 119 50 96 104 q 72 158 72 220 l 72 220 q 72 282 96 336 q 119 390 160 430 q 200 471 254 494 q 309 518 370 518 l 370 518 q 432 518 486 494 q 540 471 581 430 q 621 390 645 336 q 668 282 668 221 z m 636 219 l 636 219 q 636 275 615 324 q 593 373 557 410 q 520 446 471 467 q 422 488 366 488 l 366 488 q 311 488 261 467 q 212 446 176 410 q 139 373 118 324 q 97 275 97 219 l 97 219 q 97 163 118 114 q 139 64 176 28 q 212 -9 261 -30 q 311 -52 366 -52 l 366 -52 q 422 -52 471 -30 q 520 -9 557 28 q 593 64 615 114 q 636 163 636 219 z m 526 68 l 455 -3 q 447 9 444 22 q 440 36 438 50 q 435 64 431 77 q 427 90 416 101 l 416 101 q 409 108 404 116 q 398 124 394 132 q 389 140 383 148 q 377 156 369 165 l 369 165 q 362 170 356 175 q 351 180 344 183 l 344 183 q 335 183 328 183 q 320 184 312 184 l 312 184 q 311 163 311 143 q 311 124 311 104 l 311 104 l 236 30 q 236 107 240 184 q 244 262 248 334 l 248 334 l 276 362 q 265 362 253 361 q 242 360 232 358 l 232 358 l 307 434 q 327 437 355 437 q 383 437 412 432 q 441 428 467 419 q 492 410 507 395 l 507 395 q 516 386 520 369 q 523 351 523 332 q 523 313 519 296 q 515 279 509 272 l 509 272 l 455 218 q 465 205 471 193 q 478 181 490 169 l 490 169 q 501 158 505 145 q 509 131 511 118 q 514 104 516 92 q 519 79 526 68 l 526 68 z m 448 258 l 448 258 q 450 278 447 297 q 444 315 436 324 l 436 324 q 427 333 415 339 q 402 346 387 350 q 372 354 354 357 q 337 359 320 360 l 320 360 q 317 321 316 280 q 314 240 312 200 l 312 200 l 370 258 q 380 263 391 262 q 401 261 411 257 l 411 257 q 420 257 430 257 q 439 257 448 258 z"},"ൣ":{"ha":1000,"x_min":72,"x_max":668,"o":"m 668 221 l 668 221 q 668 180 657 141 q 646 103 627 70 q 608 37 581 10 q 554 -17 521 -37 q 488 -56 450 -67 q 412 -77 371 -77 l 371 -77 q 309 -77 255 -54 q 200 -31 160 10 q 119 50 96 104 q 72 158 72 220 l 72 220 q 72 282 96 336 q 119 390 160 430 q 200 471 254 494 q 309 518 370 518 l 370 518 q 432 518 486 494 q 540 471 581 430 q 621 390 645 336 q 668 282 668 221 z m 636 219 l 636 219 q 636 275 615 324 q 593 373 557 410 q 520 446 471 467 q 422 488 366 488 l 366 488 q 311 488 261 467 q 212 446 176 410 q 139 373 118 324 q 97 275 97 219 l 97 219 q 97 163 118 114 q 139 64 176 28 q 212 -9 261 -30 q 311 -52 366 -52 l 366 -52 q 422 -52 471 -30 q 520 -9 557 28 q 593 64 615 114 q 636 163 636 219 z m 526 68 l 455 -3 q 447 9 444 22 q 440 36 438 50 q 435 64 431 77 q 427 90 416 101 l 416 101 q 409 108 404 116 q 398 124 394 132 q 389 140 383 148 q 377 156 369 165 l 369 165 q 362 170 356 175 q 351 180 344 183 l 344 183 q 335 183 328 183 q 320 184 312 184 l 312 184 q 311 163 311 143 q 311 124 311 104 l 311 104 l 236 30 q 236 107 240 184 q 244 262 248 334 l 248 334 l 276 362 q 265 362 253 361 q 242 360 232 358 l 232 358 l 307 434 q 327 437 355 437 q 383 437 412 432 q 441 428 467 419 q 492 410 507 395 l 507 395 q 516 386 520 369 q 523 351 523 332 q 523 313 519 296 q 515 279 509 272 l 509 272 l 455 218 q 465 205 471 193 q 478 181 490 169 l 490 169 q 501 158 505 145 q 509 131 511 118 q 514 104 516 92 q 519 79 526 68 l 526 68 z m 448 258 l 448 258 q 450 278 447 297 q 444 315 436 324 l 436 324 q 427 333 415 339 q 402 346 387 350 q 372 354 354 357 q 337 359 320 360 l 320 360 q 317 321 316 280 q 314 240 312 200 l 312 200 l 370 258 q 380 263 391 262 q 401 261 411 257 l 411 257 q 420 257 430 257 q 439 257 448 258 z"},"൤":{"ha":1000,"x_min":72,"x_max":668,"o":"m 668 221 l 668 221 q 668 180 657 141 q 646 103 627 70 q 608 37 581 10 q 554 -17 521 -37 q 488 -56 450 -67 q 412 -77 371 -77 l 371 -77 q 309 -77 255 -54 q 200 -31 160 10 q 119 50 96 104 q 72 158 72 220 l 72 220 q 72 282 96 336 q 119 390 160 430 q 200 471 254 494 q 309 518 370 518 l 370 518 q 432 518 486 494 q 540 471 581 430 q 621 390 645 336 q 668 282 668 221 z m 636 219 l 636 219 q 636 275 615 324 q 593 373 557 410 q 520 446 471 467 q 422 488 366 488 l 366 488 q 311 488 261 467 q 212 446 176 410 q 139 373 118 324 q 97 275 97 219 l 97 219 q 97 163 118 114 q 139 64 176 28 q 212 -9 261 -30 q 311 -52 366 -52 l 366 -52 q 422 -52 471 -30 q 520 -9 557 28 q 593 64 615 114 q 636 163 636 219 z m 526 68 l 455 -3 q 447 9 444 22 q 440 36 438 50 q 435 64 431 77 q 427 90 416 101 l 416 101 q 409 108 404 116 q 398 124 394 132 q 389 140 383 148 q 377 156 369 165 l 369 165 q 362 170 356 175 q 351 180 344 183 l 344 183 q 335 183 328 183 q 320 184 312 184 l 312 184 q 311 163 311 143 q 311 124 311 104 l 311 104 l 236 30 q 236 107 240 184 q 244 262 248 334 l 248 334 l 276 362 q 265 362 253 361 q 242 360 232 358 l 232 358 l 307 434 q 327 437 355 437 q 383 437 412 432 q 441 428 467 419 q 492 410 507 395 l 507 395 q 516 386 520 369 q 523 351 523 332 q 523 313 519 296 q 515 279 509 272 l 509 272 l 455 218 q 465 205 471 193 q 478 181 490 169 l 490 169 q 501 158 505 145 q 509 131 511 118 q 514 104 516 92 q 519 79 526 68 l 526 68 z m 448 258 l 448 258 q 450 278 447 297 q 444 315 436 324 l 436 324 q 427 333 415 339 q 402 346 387 350 q 372 354 354 357 q 337 359 320 360 l 320 360 q 317 321 316 280 q 314 240 312 200 l 312 200 l 370 258 q 380 263 391 262 q 401 261 411 257 l 411 257 q 420 257 430 257 q 439 257 448 258 z"},"൥":{"ha":1000,"x_min":72,"x_max":668,"o":"m 668 221 l 668 221 q 668 180 657 141 q 646 103 627 70 q 608 37 581 10 q 554 -17 521 -37 q 488 -56 450 -67 q 412 -77 371 -77 l 371 -77 q 309 -77 255 -54 q 200 -31 160 10 q 119 50 96 104 q 72 158 72 220 l 72 220 q 72 282 96 336 q 119 390 160 430 q 200 471 254 494 q 309 518 370 518 l 370 518 q 432 518 486 494 q 540 471 581 430 q 621 390 645 336 q 668 282 668 221 z m 636 219 l 636 219 q 636 275 615 324 q 593 373 557 410 q 520 446 471 467 q 422 488 366 488 l 366 488 q 311 488 261 467 q 212 446 176 410 q 139 373 118 324 q 97 275 97 219 l 97 219 q 97 163 118 114 q 139 64 176 28 q 212 -9 261 -30 q 311 -52 366 -52 l 366 -52 q 422 -52 471 -30 q 520 -9 557 28 q 593 64 615 114 q 636 163 636 219 z m 526 68 l 455 -3 q 447 9 444 22 q 440 36 438 50 q 435 64 431 77 q 427 90 416 101 l 416 101 q 409 108 404 116 q 398 124 394 132 q 389 140 383 148 q 377 156 369 165 l 369 165 q 362 170 356 175 q 351 180 344 183 l 344 183 q 335 183 328 183 q 320 184 312 184 l 312 184 q 311 163 311 143 q 311 124 311 104 l 311 104 l 236 30 q 236 107 240 184 q 244 262 248 334 l 248 334 l 276 362 q 265 362 253 361 q 242 360 232 358 l 232 358 l 307 434 q 327 437 355 437 q 383 437 412 432 q 441 428 467 419 q 492 410 507 395 l 507 395 q 516 386 520 369 q 523 351 523 332 q 523 313 519 296 q 515 279 509 272 l 509 272 l 455 218 q 465 205 471 193 q 478 181 490 169 l 490 169 q 501 158 505 145 q 509 131 511 118 q 514 104 516 92 q 519 79 526 68 l 526 68 z m 448 258 l 448 258 q 450 278 447 297 q 444 315 436 324 l 436 324 q 427 333 415 339 q 402 346 387 350 q 372 354 354 357 q 337 359 320 360 l 320 360 q 317 321 316 280 q 314 240 312 200 l 312 200 l 370 258 q 380 263 391 262 q 401 261 411 257 l 411 257 q 420 257 430 257 q 439 257 448 258 z"},"൦":{"ha":560,"x_min":73,"x_max":558,"o":"m 558 325 l 558 325 q 558 300 545 291 q 532 282 509 282 l 509 282 l 244 282 q 219 282 202 271 q 185 259 174 240 q 163 222 158 200 q 153 178 153 157 l 153 157 q 153 137 159 116 q 165 95 176 78 q 187 62 204 51 q 221 40 244 40 l 244 40 q 267 40 283 51 q 300 63 312 80 q 323 97 328 117 q 334 138 334 157 l 334 157 q 334 185 326 209 q 319 234 300 254 l 300 254 l 363 254 q 371 236 373 217 q 375 198 375 178 l 375 178 q 375 143 365 111 q 354 79 334 54 q 314 30 285 15 q 256 0 219 0 l 219 0 q 207 0 197 2 q 188 3 180 7 q 172 10 164 15 q 157 20 147 26 l 147 26 q 129 39 115 56 q 101 74 92 94 q 83 114 78 136 q 73 159 73 181 l 73 181 q 73 213 83 245 q 92 278 111 304 q 129 331 156 347 q 184 363 220 363 l 220 363 l 558 363 l 558 325 z"},"൧":{"ha":660,"x_min":70,"x_max":660,"o":"m 122 -57 l 122 -57 q 122 -67 125 -77 q 129 -87 135 -95 q 141 -103 150 -108 q 159 -112 170 -112 l 170 -112 l 345 -112 l 345 -153 l 170 -153 q 148 -153 130 -146 q 112 -139 99 -125 q 85 -112 78 -94 q 70 -76 70 -54 l 70 -54 q 70 -21 86 -1 q 103 19 133 29 l 133 29 q 136 30 141 32 q 146 33 152 35 q 158 36 164 37 q 169 38 172 38 l 172 38 l 250 38 l 250 287 q 250 364 314 409 l 314 409 q 345 429 379 440 q 414 451 450 451 l 450 451 q 495 451 534 436 q 572 421 600 394 q 628 367 644 329 q 660 291 660 245 l 660 245 l 660 -1 l 170 -1 q 158 -1 149 -6 q 140 -10 134 -18 q 128 -26 125 -36 q 122 -46 122 -57 z m 629 216 l 629 216 q 629 248 619 280 q 609 312 590 337 q 571 362 544 378 q 517 394 481 394 l 481 394 q 452 394 425 384 q 397 375 377 357 q 356 340 344 315 q 331 290 331 259 l 331 259 l 331 38 l 629 38 l 629 216 z"},"൨":{"ha":675,"x_min":78,"x_max":678,"o":"m 323 0 l 323 21 q 346 38 365 57 q 385 76 399 97 q 414 119 422 144 q 431 169 431 198 l 431 198 q 431 234 421 265 q 412 295 394 318 q 375 341 347 354 q 319 366 281 366 l 281 366 q 244 366 214 354 q 185 343 164 321 q 144 300 133 270 q 122 240 122 203 l 122 203 q 122 141 150 95 q 178 48 231 18 l 231 18 l 215 -10 q 187 7 162 31 q 137 56 118 84 q 100 113 89 145 q 78 178 78 212 l 78 212 q 78 264 94 308 q 110 352 140 384 q 170 415 212 433 q 255 450 309 450 l 309 450 q 356 450 394 432 q 432 414 458 383 q 485 353 499 312 q 514 271 514 226 l 514 226 q 514 170 491 122 q 469 74 431 34 l 431 34 l 678 34 l 678 0 l 323 0 z"},"൩":{"ha":934,"x_min":74,"x_max":934,"o":"m 934 0 l 582 0 l 582 34 l 583 34 q 604 52 619 74 q 634 96 643 120 q 652 144 656 170 q 660 196 660 223 l 660 223 q 660 257 652 289 q 643 321 626 345 q 609 370 584 385 q 559 399 525 399 l 525 399 q 507 399 491 394 q 475 388 463 378 q 450 367 443 352 q 436 337 436 318 l 436 318 l 436 0 l 353 0 l 353 276 q 353 303 344 324 q 336 345 323 359 q 309 373 291 380 q 273 387 254 387 l 254 387 q 221 387 196 372 q 170 357 153 332 q 135 308 126 276 q 117 244 117 210 l 117 210 q 117 181 124 153 q 130 124 144 98 q 157 72 178 51 q 199 29 229 16 l 229 16 l 201 -10 q 168 8 144 34 q 120 59 104 89 q 89 119 82 151 q 74 184 74 217 l 74 217 q 74 262 88 304 q 101 347 127 380 q 152 413 189 432 q 227 452 274 452 l 274 452 q 313 452 351 434 q 388 415 417 376 l 417 376 q 446 415 481 433 q 516 451 551 451 l 551 451 q 595 451 630 431 q 665 412 690 379 q 715 346 728 304 q 741 262 741 218 l 741 218 q 741 193 736 168 q 731 143 722 119 q 712 96 697 74 q 683 52 663 34 l 663 34 l 934 34 l 934 0 z"}}}
